<?xml version="1.0" encoding="utf-8"?>
<!-- Generator: Adobe Illustrator 22.0.1, SVG Export Plug-In . SVG Version: 6.00 Build 0)  -->
<svg version="1.1" id="Layer_1" xmlns="http://www.w3.org/2000/svg" xmlns:xlink="http://www.w3.org/1999/xlink" x="0px" y="0px"
	 viewBox="0 0 2560 1440" style="enable-background:new 0 0 2560 1440;" xml:space="preserve">
<style type="text/css">
	.st0{fill:#9EB5A9;}
	.st1{fill:#FFFFFF;}
</style>
<symbol  id="Deleted_Symbol" viewBox="-363.5 -660.9 727 1321.8">
	<g>
		<g>
			<g>
				<path d="M140.6-558.9c-1.6-2.5-1.2-5.6-2.4-8.1c-0.5-1-0.8-2.5-2.2-2.4c-1.3,0.1-0.5,1.7-1,2.4c-1.4,2.4-2.2,4.9-2.2,7.7
					c-5-4.5-10.7-7.8-16.7-10.6c-0.7-0.3-1.6-0.7-2.1,0c-0.7,1,0.2,1.6,0.8,2.3c1.9,2.3,4.1,4.5,3,7.9c-3.8-0.6-7.4-2.6-11.3-0.7
					c-1.6,0.7-2.2,1.4-1.8,3.2c1.1,4.5,6.5,10.2,11,11.2c-7.1-0.2-14.1-1.7-21.7,0.1c4.9,6.6,13,6.7,18.9,11
					c-1.7-0.2-3.4-0.5-5.1-0.7c-1.6-0.1-3.4-0.2-3,2.2c0.2,1.5-0.6,1.1-1.4,0.9c-2.5-0.6-4.7-1.1-6.2,2c-1.5,3,0.6,4.6,1.9,6.6
					c0.1,0.2,0.2,0.5,0.4,0.7c-1.3,0.9-2.3,1.1-3.1-0.6c-0.4-0.8-1.1-1.5-1.8-2c-2.7-2-2.8-3.8-0.4-6.2c0.4-0.4,1.1-0.5,1.2-0.9
					c0.7-1.6,1.1-3.5,0.3-4.8c-0.9-1.4-2.3,0.2-3.4,0.5c-1.2,0.3-2.3,1.2-3.9,0.9c4.4-6.4,2.6-13.8,4-20.9c-3.4,2.8-6.1,6.1-9.5,8.5
					c-2.9,2.1-3.6,2.1-4-1.4c-0.3-2.9-0.3-6,1.6-8.6c2-2.9,1.9-6.2,2.6-9.7c-3.6,0.6-3.4,3.7-4.7,5.7c-1.2-2.9-2.5-5.6-3.4-8.3
					c-0.9-2.5-3.1-3.6-5.2-3.3c-2.4,0.4-1.9,3-1.8,4.9c0.2,2.5,0.6,5.1,1.9,7.8c-4.1-2.1-7.5-5-12-5.6c-3.3-0.4-4.1,0.4-3,3.5
					c0.7,1.8,1.6,3.5,2.5,5.5c-2.1,0.2-3.2-1.4-4.7-2.2c-0.7-0.4-1.4-1.4-2.4-0.8c-1,0.7-0.3,1.7,0,2.5c0.6,1.6,1.3,3.1,2,4.7
					c-0.9,0.7-1.6-0.5-2.4-0.2c-2.4,0.9-6.4-1.2-6.3,4.3c0,2.9-3.8,5-4.2,8.4c-1.2-0.2-2.6,1.4-3.5-0.7c-1-2.2-2.7-3.4-5.1-3.6
					c-1.8-0.2-1.8-1.4-1.8-2.8c-0.1-12.2,0-24.3,1.3-36.4c1.4-13.3,4.8-26.2,8.3-38.9c2.3-8.4,6.7-16.1,10-24.2c2.1-5,1-7.4-4.2-9.5
					c-3.8-1.5-7.8-2.3-11.8-2.4c-6.8-0.2-13.7-0.6-20.5-0.9c-9-0.3-17.5,2-26.2,2.5c-3.5,0.2-5.6,2.4-7.8,4.6
					c-1.1,1.1-0.4,2.2,0,3.2c5.3,12.8,9.6,25.9,13.8,39.1c0.8,2.3,1.2,4.8,1.6,7.2c3.1,18.3,4.4,36.7,3.5,55.3
					c-0.3,6.1,0.3,12.4,0.2,18.6c0,1.3,0.5,2.6-0.4,4c-1.8-1-1.9-2.8-1.6-4.3c0.3-1.4,0.1-2.8,0.2-4.2c0-1.4,0.5-3.3-1.4-3.5
					c-1.6-0.2-1.3,2.1-2,2.7c-2.7,2.3-2.8,6.4-5.8,8.2c-1.4,0.8-0.7,1.7-0.7,2.6c0,0.8,0.2,1.7-0.8,1.9c-1.2,0.2-1.5-0.8-1.7-1.7
					c-0.3-1.1,0.2-2.4-1.5-2.8c-1.3,2.3,0.9,4.1,0.9,6.2c-0.4,0.6-1,0.4-1.4,0.3c-1.7-0.3-3.4-2.5-4.9-0.8c-1.5,1.7-0.1,4,0.4,5.9
					c0.3,1,1.2,1.9,2.1,3.1c-2.8,1.1-4.9,3.7-8.5,2.6c-0.8-0.2-3.3-0.3-3.3,1.7c0,1.5,0.7,3.2,2.7,3.9c1.3,0.4,3,0.1,3.7,2.2
					c-7.7,0.9-15.7,0.7-22.2,7.3c2.5,0.3,4.4,0.6,6.4,0.8c6.7,0.6,7.8,2.7,4.1,8.4c-1,0-0.9-0.7-0.8-1.4c0.1-1.2,0-2.6-1.4-2.8
					c-1.3-0.2-2.4,1.1-2.4,2.1c-0.1,2.8-4.6,2.3-4,5.7c0.1,0.5-1.5,0-1.7-1c-0.3-1-0.4-2.2-1.7-2.2c-1.3,0-1.8,1-2.1,2
					c-0.6,2-1.7,4.3-3.7,3.7c-2.1-0.7-4.2-2.7-3.7-5.7c0.3-2.4-0.2-2.9-2.5-1.7c-2.1,1.1-4.2,1.8-6,3.5c-1.2,1.1-2.7,2-4.9,1.5
					c-2.1-0.5-2.4-1.6-1.4-2.9c1.8-2.4,2.5-5.1,3-7.9c0.3-2,1.9-3.9-0.6-6.1c-1-0.9-0.5-4-0.1-6c0.8-3.8-3.9-4.2-4.2-7.5
					c-0.1-0.7-2.4,0.1-2.9,1.5c-2.6,6.5-8.1,11.4-9.9,18.4c-1.2-4.2,0.9-8.2,0.4-12.3c-0.5,1.5-1,3.1-1.5,4.6c-1.2-2-2.3-4,0.2-5.8
					c1.7-1.2,2.8-3,3.8-4.8c0.5-1,1.8-1.9,0.7-3.1c-0.8-0.9-2-0.5-2.9-0.2c-3.1,1-6,2.2-7.4,5.7c-0.5,1.3-1.7,2.6-3.1,2.7
					c-1.7,0.1-2.1-1.8-2.5-3c-1-2.7-2.8-4.8-4.6-7.1c-1.4-1.8-3.1-3.5-4.9-2.7c-1.9,0.8-1.7,3.4-1.3,5.4c0.1,0.6,0.5,1.2,1.1,2.8
					c-4.3-2.9-8.4-2.9-12.6-2.7c-2.6,0.1-4.5,0.5-3,3.8c0.8,1.8,0.7,3.8,1.9,5.5c0.4,0.5,0.6,1.3,0,1.8c-0.6,0.6-1,0-1.6-0.4
					c-3.1-2.3-6.9-2.5-10.4-3.7c-2.1-0.7-2.3,0.8-1.6,2.5c1.4,3,3.3,5.5,5.8,7.7c0.9,0.8,2.6,1.8,1.4,3.1c-0.9,1-2.2-0.3-2.9-1.1
					c-2.4-3.1-5.8-1.3-8.7-2c-1.3-0.3-1.5,1.1-1.3,2.3c0.3,2.5,1.1,5,3.6,6.1c2.1,1,3.6,2.8,6.2,4.2c-4.8,0-8.9,0-13,0
					c-2.7,0-6.9,0.1-7.3,1.7c-0.6,2.7,3.5,3.1,5.5,4.3c2.1,1.3,4.2,2.4,6.3,3.7c2.9,1.7,2.5,3.4,0.9,5.7c-2.4,3.4-5.5,2.8-8.7,1.1
					c-1.8-1-2.4-3-4.8-3.6c-2.5-0.7-2.2-4.8-1.7-7.5c0.3-1.9,0.1-3.6,0-5.4c-0.1-1.4-0.8-2.1-2.3-1.6c-0.7,0.3-1.5,1-2.1,0.1
					c-0.5-0.8-0.3-1.8,0.4-2.5c0.9-1,2.4-2.4,1.1-3.4c-1.7-1.3-2.5,0.8-3.5,1.9c-2.2,2.6-4.6,5-7.1,7.8c-0.3-0.9-0.6-1.2-0.6-1.5
					c0-4.7,0-4.6-4.4-3.1c-1.3,0.4-3,2.2-4.1-0.9c-1-2.6-2.9-0.6-4.6,0.9c0.4-4.3,2.1-7.6,3.7-10.7c1.3-2.6,4.5-2.2,7-2.7
					c1.3-0.3,3.3,0.6,3.6-1.4c0.3-2-1.6-2.9-3.1-3.4c-4.8-1.6-9.7-2.8-14.6-0.9c-3.6,1.4-6.6,1.7-9.6-1.7c-1.3,4.7,1.1,7.8,2.7,11.4
					c-3.3-2.1-6.7-4.2-9.9-6.5c-2.1-1.5-4.5-2.6-6.8-3.8c-0.6-0.3-1.2-0.7-1.8-0.1c-0.6,0.6-0.2,1.2,0.2,1.7c0.8,1,1.5,2.3,2.5,2.9
					c4,2.4,6.7,6.3,11.2,9.8c-3.2-0.9-5.3-1.6-7.5-2.1c-0.9-0.2-2.3-0.4-2.9,0.6c-0.8,1.3,0.8,1.6,1.4,2.4c0.5,0.7,1.7,1,1.3,2.5
					c-3-0.4-6,0-9-1.1c-0.9-0.3-1.8-0.8-2.4,0.3c-0.7,1.1,0.4,1.6,1.1,2.2c0.7,0.6,1.5,1.1,2.1,1.7c1.1,1,3.6,0.7,3.3,2.8
					c-0.4,2.3-2.3,4-4.3,5.1c-0.9,0.5-2.2-0.1-2.6,1.8c-0.3,1.3-2,0.7-2.7,0.3c-2-1.2-4.9-1.4-6.2-2.9c-2-2.2-4.7-1.2-6.7-2.6
					c-0.7-0.5-2,0-2.3,0.9c-0.9,3.1-4,4.2-5.7,6.7c1.4-5.3,3.5-10.4,4.1-16.1c-2.4,2.8-4.2,6.1-7.1,8.7c-1.9-0.7-1.2-2.7-1.7-4.1
					c-2.3,1.9-8.1,0.5-5.1,7c-3.5-1.8-4.3-5.4-7.8-5.9c0,1.5,0,2.9,0,4.8c-3.7-2.8-6.7-5.5-9-8.9c-0.6-0.9-1-1.7-2.3-1.6
					c-1.4,0.1-1.7,1.2-1.9,2.2c-0.6,2.3-1,4.7-1.7,7.1c-0.2,0.9,0.9,2.3-0.8,2.6c-1.1,0.2-1.9-0.7-2.6-1.5c-0.3-0.4-0.8-0.6-1.2-1
					c-1.1,1,1.1,1.7,0,2.8c-3.2-2.5-6.5-4.9-10.3-7.8c0.2,2.3,1.4,3.7,2.2,5.2c0.6,1.2,2.3,2.5,1.3,3.7c-0.8,1.1-2.6-0.1-3.9-0.3
					c-3.7-0.4-7.3-0.9-11.5-1.4c1.3,2.5,3.2,3.4,5.1,4.5c4.1,2.4,8.7,3.9,12.3,7.1c0.8,0.7,1.3,1.6,2.1,2.3c1.6,1.6,0.5,2.3-1,2.3
					c-1.8,0.1-3.7,0.4-3.7,2.4c0,2.1,2.3,2.2,3.9,2.5c2,0.4,4,0.7,6.4,1.1c-2.5,1.3-3.9,3.1-5.2,5c-0.6,0.9-1.6,1.3-2.7,1.1
					c-1.4-0.3-1.5-1.5-1.2-2.5c0.7-3.2-1.9-4.7-3.3-6.8c-1.8-2.6-3.6-5.2-5.8-8.2c-1.3,3.3-0.5,6-0.3,8.6c0.1,1.1,0.8,2.5-0.7,3.1
					c-1,0.4-2.1-0.4-2.6-1.3c-3-4.9-8.2-8.3-10-14.1c-0.4-1.2-1.4-2-2.7-1.7c-1.5,0.4-0.9,1.7-1,2.6c-0.3,4.1,1.4,8,1.6,12.1
					c0.1,1.1,0.4,1.9-0.9,1.7c-4.4-0.7-1.7,1.8-1.1,2.7c0.9,1.2,2.3,1.9,3.4,3c2.9,2.7,2.3,5.2-1.5,6.4c-2.5,0.8-5.1-0.1-7.7-0.4
					c-0.9-0.1-1.3-1.1-1.3-2.1c-0.5-8.8-8.9-13.5-16-14.3c-1-0.1-1.9-0.1-2.4,0.7c-0.5,0.9,0.6,1.3,1,1.8
					c3.9,5.8,10.1,8.9,15.3,13.3c-1,1.5-3,0.4-4.2,1.5c0.1,0.3,0.1,0.8,0.2,0.8c5,0.6,4.3,4.9,5,8c0.4,1.5,0,2.9,2.1,3.4
					c1.9,0.5,2.4,2.8,2.1,4.2c-0.4,2-2.3,0.6-3.6,0.6c-2.4-0.1-4.9-0.3-7.3-0.3c-0.9,0-2.3-0.3-2.6,1.1c-0.2,1,0.5,1.7,1.2,2.3
					c1.8,1.4,4,2.3,5,4.8c0.7,1.5,2.8,2.1,4.8,2.1c3.4,0,6.7,0.1,10.1,0c2.6-0.1,5.1,0.9,7.6,1.1c8.6,0.7,16.7,5.5,25.6,3.4
					c1-0.2,2.2-0.6,2,1.4c-0.2,1.4,1.6,1.9,2.8,3.3c-7.7-0.9-14.8-2.7-21.9-0.6c-0.8,0.2-2-0.2-2.3,0.9c-0.3,1.4,1.1,1.5,2,1.9
					c8.7,5,18.4,5.5,28.5,6.6c-3.7,1.4-6.9,2.8-10.2,3.9c-2.9,0.9-4.3,3.2-5.7,5.6c-1.1,1.9-0.2,2.8,1.8,2.4
					c2.2-0.4,4.3,0.2,6.5-0.2c3.5-0.6,4.9,1.1,4.1,4.6c-0.5,2.3-0.1,4.7-1.3,6.8c-0.3,0.6-0.3,1.7-1.4,1.5c-0.7-0.2-0.9-0.9-1-1.5
					c-0.1-1-0.2-2.1-0.4-3.1c-0.1-0.8-0.3-1.6-1.3-1.6c-0.7,0-1.3,0.4-1.4,1.1c-0.1,1.9-1.8,2.7-2.6,4c-1.1,1.8-4,2.8-2.8,5.9
					c0.4,1-1,2-2,2.4c-4.4,2.1-4.7,3.1-1.7,6.8c0.5,0.6,1.3,0.9,0.8,2.4c-2.8-2.4-5.4-4.6-8-6.9c-0.6-0.6-1.3-2-2.1-1.1
					c-3.6,4.2-6.5,0.4-9.6-0.7c-2.8-1-4.8-3.8-8.9-4.2c2.9,2.9,5.4,5,8.4,6.5c1.6,0.8,2.6,2,2.7,3.9c0.1,2.4-2,1.9-3.2,2.7
					c-2,1.4-4,0.1-5.9-0.2c-3-0.4-1.9-2.8-2.1-4.6c-0.1-0.6,0.1-1.4-0.7-1.6c-0.9-0.2-1.6,0.4-1.6,1.2c-0.4,4-5.6,5.4-5.4,9.9
					c0,0.8-1.2,1.9-2.1,0.2c-1.5-2.9-2.9-6-7-3.4c-0.1,0.1-0.5-0.1-0.5-0.2c-0.2-1.7-1.2-3-2.8-2.2c-2.1,1-3.2,3.4-3.2,5.4
					c0,3.9-1.5,4.8-4.9,3.6c-2-0.7-2.6,0.3-2.7,2c-0.1,3.5-1.7,3.3-3.9,1.6c-2-1.6-4.3-2.3-6.7-2.7c-3.2-0.5-3.9,0.5-2.2,3.2
					c-0.5,0.1-0.7,0.2-0.9,0.2c-1.8-0.1-4.3-1.8-5.3,0.2c-0.9,1.9,1.3,3.8,2.8,5c3.1,2.5,5.3,6.1,8.9,8c1.7,0.9,0.7,3,2.9,4.5
					c-4.6-0.3-8.2-0.6-11.7,0.2c-0.8,0.2-2-0.5-2.3,0.8c-0.3,1.3,0.9,1.7,1.7,2.3c3.6,2.3,7.7,3.7,11.8,5c6,1.8,7,5.7,2.8,10.1
					c-1.2,1.3-0.5,2.1,1,2.3c2.4,0.4,4.8,0.9,7.2,0.8c1.8-0.1,2.7-0.1,2.7,2c0,0.7,0.4,1.5,0.5,2.3c0.5,2.5,1.7,5.3,4,5.5
					c1.6,0.2,1.8-3.2,2.5-5c1.5-4.5,4.4-5.6,8.6-3.2c2.1,1.2,4.4,2.1,5.6,4.5c0.8,1.6,1.9,0.6,2.4-0.1c1.1-1.6,2-3.3,3-5
					c0.6-1,0.8-2.4,2.4-1.9c0.7,0.2,1.7,0.5,2,1.1c0.8,1.5-1.1,1.4-1.6,2.2c-0.4,0.8-1.1,1.5-1.6,2.2c-0.4,0.5-0.9,1.1-0.4,1.7
					c0.4,0.6,1,0.8,1.7,0.6c1.9-0.4,4-0.4,5.5-1.7c2-1.8,4.4-1,6.6-1.5c2.2-0.6,4.1,3,2.7,5c-1,1.5-0.3,3.4-1.5,5.1
					c-1.1-1.7-2.1-3.3-3.2-4.9c-0.4-0.6-0.9-1.4-1.8-1.2c-1,0.2-0.8,1.1-1,1.9c-0.1,0.8-0.6,1.5-0.5,2.3c0.3,3.4-1.6,2.5-3.9,3
					c-3.1,0.6-5.7,1-8.7-0.4c-0.9-0.4-1.8,0.7-1.4,2.1c0.6,2.2,1.3,4.4,2.6,6.3c0.6,0.9,1.9,2,1,3c-0.7,0.9-2.2,0.3-3.3-0.1
					c-1.6-0.5-3.3-1-4.9-0.5c-1,0.3-2.7-0.7-3,0.9c-0.3,1.5,0.3,2.9,1.7,3.6c2.7,1.3,4.9,3.4,7.8,4.3c1.5,0.4,3,1,2,3.3
					c-0.9,2-1.8,2.4-3.8,1.3c-6.5-3.3-13.4-1.2-20.1-0.8c-0.5,0-1.2,0.1-1.1,0.7c0,0.4,0.3,1,0.7,1.2c1.1,0.6,2.3,1.4,3.6,1.5
					c4.6,0.4,8.4,3.5,13.2,3.1c2-0.2,3.2,1.1,2.2,3.3c-0.9,2.1-1.1,4.3-1.3,6.5c-0.1,0.8-0.2,1.7,0.8,2c0.8,0.2,1.5-0.5,1.9-1.1
					c0.5-0.8,0.9-1.7,0.9-2.5c-0.2-4.2,2.6-5,5.8-5.1c3.4-0.1,7,2.5,7.5,5.4c0.3,1.8,0.8,3.2,3.1,4.1c-3.7,1.3-7.8,1.8-6,7.2
					c0.5,1.6-2.2,0.6-3.1,2c-0.1,1.4,2.3,1.4,2.3,3.3c-2-0.4-2.9-1.9-3.9-3.3c-1.2-1.7-3.1-2.9-5-1.6c-1.7,1.2-1.1,3.3-0.4,5
					c0.6,1.3,1.4,2.4,2.7,4.5c-4.6-1.7-7.8-4.3-11.7-4.8c-1-0.1-2.1-0.9-2.9,0.2c-0.7,1,0.1,2,0.6,2.8c1.2,1.8,2.3,3.8,4.6,4.5
					c1.3,0.4,1.7,1.2,1.3,2.4c-0.5,1.4-1.7,1.1-2.6,0.7c-6.3-2.4-12.9-3.4-19.3-5.2c-1.1-0.3-2.4-1.3-3.1,0.1
					c-0.7,1.4,0.8,1.9,1.7,2.6c2.8,2.1,5.7,4.1,8.4,6.3c3.6,3,7.9,3.5,12.2,3.9c1.7,0.2,2.7,0.5,3,2.6c-9.5-1.5-18.8-1.7-27.6,2.4
					c6.4,1.9,13,0.8,20.2,1.3c-3.2,1-5.7,1.7-8.2,2.6c-1.5,0.6-3,1.7-2.6,3.4c0.4,1.7,2.2,0.8,3.4,0.8c3.5,0,6.8-1,10.5-1.9
					c-1.1,2.2-3,3.1-4.7,4.1c-1.4,0.8-2.9,2.1-2.3,3.6c0.6,1.8,2.6,0.7,3.8,0.3c4.3-1.5,9.1-2.1,11.9-6.5c0.8-1.4,2.1-1.2,3.4-0.4
					c1.2,0.8,2.5,1.5,3.8,1.9c2.4,0.7,2.5,2.1,1.8,4.2c-1.3,3.9-0.9,4.3,3.3,3.5c0.6-0.1,1.2-0.2,2.1-0.3c-0.9,3.6-1.5,6.9-0.9,10.2
					c0.3,1.7,0.6,4.1,3.3,1.9c0.9-0.7,1.5-0.2,1.9,0.5c2,3.9,6.2,4.7,9.9,6.9c-3.8-0.2-7.3-0.7-10.7,0.2c-5,1.3-5.4,2.2-2.1,5.8
					c-1.5,1-2.2-0.9-4.2-0.9c3.2,2.5,5.9,4.7,8.6,6.9c0.8,0.7,2.6,0.8,2.1,2.3c-0.4,1.3-1.8,0.5-2.7,0.7c-1.4,0.3-2.8,0.6-4.1,1.2
					c-2.7,1.2-2.8,3-0.2,5.4c-4.6,2.7-9.9,3.9-14.1,7.8c3.4,1.7,6.2-0.2,8.8-1.3c5.2-2.2,9.7-5.5,13.8-9.2c1.4-1.3,2.7-1.8,4.7-0.2
					c-2.6,0.9-3.6,2.8-4,5.2c-0.9,4.9-5.3,5.9-9,7.6c-0.8,0.4-2,0.2-1.9,1.5c0.1,0.9,1,1.1,1.7,1.4c0.8,0.3,2,0.4,1.5,1.7
					c-0.4,1.1-1.5,0.8-2.4,0.8c-1.5,0.1-2.6-0.5-3.8-1.3c-1-0.7-2.5-0.6-3.1,0.5c-0.8,1.5,0.9,1.5,1.6,2.1c1.5,1.2,2.9,2.3,4.4,3.5
					c-0.7,1.6-3.9,0.2-3.4,2.4c0.5,2.5,3.5,2.3,5.3,3.5c-2.4,1.7-4.7,3.7-7.9,3.8c-1,0-2.1,1.1-2,2.1c0.1,1.6,1.6,0.9,2.5,1
					c2.6,0.3,5.1,0.5,7.7,0.6c3.3,0.1,3,1.8,1.7,3.8c-0.6,0.9-1.3,1.7-2.1,2.2c-2.1,1.3-1.7,2.6-0.3,4.1c2,2.1,2.9,4.8,4.1,7.7
					c-3.3,1.3-5.7-1.5-8.6-1.2c-1.8,0.2-4.5-1.4-5.1,0.9c-0.6,2.4,1.8,3.7,4.1,4.4c1.3,0.4,2.8,0.7,3.4,2.6
					c-6.3,0.9-12.7-0.9-19.3,1.4c2.9,2,5.8,2.9,8.7,3.3c2.9,0.5,5.9,0.6,9.7,1c-1.9,0.9-3.1,1.5-4.2,2.1c-0.8,0.4-1.7,0.8-1.6,1.9
					c0.1,1.1,1,1.5,1.8,1.9c2.7,1,5.4,1,8,0c1.5-0.6,3-0.9,4.5-0.3c1.2,0.4,3.6-0.8,2.6,2.4c-0.3,1.1,1.5,1,2.5,1.3
					c4.8,1.4,6.3,4.1,5.2,9c-0.5,2.3-2,5.6-0.3,6.9c1.8,1.2,3.7-2.1,5.5-3.3c1.8-1.2,2.8-3.3,4.3-5c0.8-0.9,1.1-2.8,2.8-2.1
					c1.4,0.6,1.9,2.2,1.7,3.6c-0.3,2.6,0.2,4.9,1.9,6.9c1.7,2.1,2.9,2.4,4.7-0.2c2.1-3,2.1-6.5,3.1-9.8c1.5,0,1.9,1.4,2.7,2.1
					c4,3.6,4.1,4.3,0.7,8.6c-2.9,3.6-3.3,7.7-3.4,12c0,1-0.1,2.3,1,2.8c1.3,0.6,2.3-0.4,3-1.3c3.1-3.9,6.2-7.9,8.7-12.2
					c0.3-0.4,0.6-0.8,1.4-2c0.2,2.9,0.4,5,0.4,7.2c0,1.2,0,2.4,1,3.2c1.6,1.5,2.3,5.2,4.8,4.3c2.7-0.9,3.5-4.4,3.8-7.2
					c0.2-1.3,0.3-2.7,0.4-4.1c2.6,0.5,4,2.9,6.4,3.7c1.8,0.6,3.6,1.5,5.6,1.3c1.2-0.1,2.8-0.1,3.2,0.9c1.4,3.6,4.1,2.1,6.5,2.1
					c1.4,0,3.1-0.9,3.9,0.7c0.8,1.5-1.8,1.7-1.6,3.1c5-0.9,5.7,0,6.8,5c0.6,2.8,0,5.9,2.4,8.4c0.6,0.6,0.9,3-1,3.5
					c-1.4,0.4-2.8,0.3-3.1-1.8c-0.2-1.4,0.2-3.6-2-3.7c-2.3-0.1-3.2,1.9-3.8,3.8c-0.2,0.5-0.1,1-1.1,1.1c-0.2-0.3-0.3-0.8-0.6-1.2
					c-0.7-1.3-0.6-4-2.3-3.5c-1.9,0.6-1,3.2-0.5,4.8c0.4,1.2,1.2,2.3,0.6,3.9c-6.3-5-14.2-2.5-21.8-5.5c3.4,4.9,7.4,7.8,11.2,11
					c-4.6-0.4-8.7-3.7-13.9-2.1c1.9,2.6,4.7,3.5,7,4.9c1.9,1.2,2.4,2,0,3c-0.9,0.4-2.3,0.5-2.3,1.7c0.1,1.5,1.7,2.3,2.8,2.3
					c3.1-0.1,3.6,1.7,4.3,4.1c0.8,2.5-0.3,3.2-2.4,3c-2.2-0.2-4.3-0.5-6.5-0.1c-1,0.2-2.3-0.5-2.8,0.7c-0.5,1.2,0.9,1.7,1.5,2.4
					c0.3,0.4,0.8,0.6,1.6,1.1c-1.8,0.8-4.6-2.4-4.8,1.8c-0.1,1.2-2.4,0.1-3.7,0c-0.7,0-1.6-0.7-2.2,0.1c-0.8,1.1,0.5,1.5,1,2.2
					c1.4,2,3.8,2.7,5.5,4.3c0.7,0.7,1.9,1.2,1.4,2.5c-0.5,1.1-1.7,0.9-2.8,0.8c-1-0.1-2.1-0.2-3.1,0c-1.3,0.3-3.3-0.8-3.6,1.2
					c-0.3,1.6,1.5,2.3,2.7,3c1.8,1,3.7,1.7,5.9,2.7c-6.3,0.6-12.3,0.8-18.7,4.2c6.9,1.6,13.1,1.4,19.8,1c-1.5,2.3-3.4,2.3-4.9,3
					c-3.7,1.7-4.1,3.3-1.5,6.1c0.4,0.5,1,0.9,0.7,1.6c-0.4,0.8-1.1,0.9-2,0.9c-1.3,0.1-3.4-1.8-3.8-0.1c-0.4,1.8-1.3,4,0.1,5.9
					c0.7,1,0.6,1.9,0.4,2.8c-3.9-0.6-7.7-1.3-11.4-1.9c-1.9-0.3-2.5-0.1-1.8,2.2c1.4,4.3,3.9,7.8,7,11.1c-3.3-1.3-6.5-3.2-10.1-2.6
					c-1.1,0.2-3-0.6-3.1,1.3c-0.1,1.4-0.4,3,1.1,4.3c6.8,5.8,14.7,9.1,23.6,9.7c4,0.2,7.3,1.9,10.7,3.8c-7.5,0.3-14.9-1.7-22.7,0.6
					c4.4,5,9.8,7.1,16.1,7.4c1.3,0.1,3.8-1.4,4.1,1.7c0.1,0.6,0.9,0.3,1.2-0.1c2.5-3.1,6.9-3.3,9.7-6.7c0.3,2.8-1.4,4.2-2.7,5.3
					c-3.1,2.9,0,6.1-0.9,9.1c-0.2,0.7,1.6,0.9,2.6,0.3c1.8-1.1,3.5-2.1,5.3-3.2c2.7-1.7,1.8-4.3,1.1-6.3c-1.3-3.8,0.9-5.8,3-8.1
					c0.7-0.7,1.4-0.9,2.4-0.6c4.2,1.6,8.4,2.6,13,1.4c0.9-0.2,1.3,0.7,1.5,1.5c0.3,1.2-0.6,1.4-1.5,1.8c-3.3,1.4-6.2,3.5-10,4
					c2.6,1.9,4.9,3.7,8,3.4c2.6-0.2,4.2,0.8,4.9,3.6c-1.7,0.4-3.3,0.6-4.9,1.1c-0.8,0.2-1.9,0.5-1.8,1.7c0.1,1,1.2,0.8,1.8,1.1
					c1.2,0.4,2.6,0.4,3.4,2.2c-2.6-0.8-3.1,0.3-2.9,2.6c0.2,2.4,0.1,4.9-0.2,7.3c-0.3,2.4-1.4,3-3.7,1.6c-2.2-1.3-4.7-2.1-7-3.2
					c-0.9-0.4-1.8-0.3-2.5,0.4c-0.9,1-0.1,1.8,0.5,2.3c1.5,1.3,1.6,3.2,2.7,4.7c2.1,3.1,1.8,3.5-2,3.8c-1.4,0.1-2.9,0-4.2,0.3
					c-1.1,0.3-2.8,0-3.1,1.2c-0.3,1.4,1.1,2.5,2.2,3.3c1.1,0.8,2.8,0.9,3.6,2.1c0.5,0.7,2.5,1.1,0.1,2.6c-1.5,0.9,0.5,1.6,1.6,1.9
					c5.1,1.5,10.4,0.9,15.8,1.9c-1.1,1.2-3.4,0.1-4.2,1.9c0.5,1.1,1.7,0.9,2.3,0.6c5.8-2.1,10.8,2.1,16.3,1.9c0.3,0,1,0.3,1,0.5
					c0.7,6.5,6.8,2.6,9.9,5c2.1,1.6,5.3,1.6,8.8,2.6c-3.7,1.3-7.4,1.7-6.7,6.5c0.2,1.4-1.9,0.5-3,0.9c-2.9,1-5.5,3.3-9.1,1.9
					c-1.2-0.5-2.1,0.8-1.7,2.2c0.3,1.1,0.9,2.2,1.4,3.2c2.3,4.7,0.5,7.8-4.6,7.5c-0.4,0-0.8,0-1.2,0c-5.3,0.4-5.3,0.4-3.1,4.8
					c0.3,0.6,0.4,1.2,0.6,1.8c-1.2,1-4.2-0.3-3.5,1.2c1.4,2.9-5.4,4.2-0.8,6.9c1.7,1,3.8,1.6,5.3,3.3c-5,2.3-11,0-15.6,3.7
					c1.5,2.2,4.1,1.2,5.6,2.7c-0.2,0.9-1,0.6-1.6,0.9c-0.7,0.3-1.7,0.3-1.7,1.2c0,1.2,1.1,1.3,2,1.3c6.4,0.4,12.7,0.9,19.1,1.1
					c4.7,0.1,7.9-3.4,11.5-5.8c0.5-0.3,0.4-1.6,1.2-1.3c3.8,1.6,8.1,2.2,11.2,5.7c-2.2,0.9-4.9,0.4-5.8,2c-0.9,1.6,2,2.3,2.8,3.8
					c-1.5,0.6-2.5-0.6-3.6-1.1c-4.5-1.9-5.8-1.3-7.4,3.4c-0.2,0.5-0.6,1.2-0.8,1c-2.8-1.5-5,2.8-7.9,0.6c-0.7-0.5-1.8-0.5-2.5,0.4
					c-0.6,0.9-0.1,1.7,0.3,2.5c1.1,2,2.3,3.7,4.2,5c-2.1,2.9-4.8,3-7.9,2.3c-2.2-0.5-2.5,0.8-1.5,2.4c0.6,0.9,1.4,1.8,2.1,2.7
					c-1.4,1-2.7,0.1-4.1,0.7c3.8,2.3,9,2.3,12,6.9c-3.5,0.2-6.2-1.6-9-2.6c-2.9-1-5.7-1.6-8.7-1.8c-1.9-0.2-2.8,0.7-1.4,2.6
					c0.9,1.2,2,2.3,3.4,3c5.8,2.9,10.2,7.8,15.8,11c2.2,1.3,2,2.6,0.1,4.1c-4,3.2-5.7,7.6-6.5,12.4c-0.2,1.3-0.4,2.8,0.6,3.7
					c1.3,1,1.9-0.9,2.8-1.3c3.5-1.5,4.7-5,7-7.6c1-1.2,1.6-2.6,3.4-2.9c1.7,2.8,0.1,6.2,1.9,9c1.4,2.1,2.4,4.6,5.5,1.8
					c1.7-1.5,1.7,1.2,2.8,1.6c1.4,0.5,4.1,0.6,3.6,2.6c-0.3,1.6-2.9,1.2-4.5,1.5c-1.6,0.3-3.2,0.1-2.3,2.7c0.5,1.5-1.1,1.5-2.1,1.5
					c-1.8,0.1-3.6,0-5.4,0.2c5.4,1.9,12.3-1.8,16.4,4.8c-2.1-0.6-4.1,0.7-6.1,0.4c-2.8-0.5-3.2,3.1-5.9,3.1c-0.5,0,1,1.9,2,2.6
					c3.8,2.5,5.3,4.8,5.8,8.7c-3.9-0.4-3.8-6-7.9-6c-0.9,0.8-0.3,1.7-0.3,2.5c-0.1,2-1.1,2.6-2.8,1.7c-1.2-0.6-2.6-1.7-3.5-0.8
					c-1.2,1.2,0.2,2.9,0.6,4.3c0.3,1.1,1.7,1.6,1.6,3.1c-2.4,1-4-1.3-6.2-1.3c-1.1,0-2.4-0.7-3.1,0.8c-0.6,1.3,0.5,1.8,1.3,2.5
					c1,1,2.4,2.2,2.1,3.5c-0.3,1.4-2.2,0.7-3.4,1c-0.8,0.2-2-0.2-2.2,1.1c-0.1,1,0.7,1.7,1.5,2.1c3.3,1.6,6.4,3.4,10,4.2
					c1.9,0.4,3.8,0.8,5.6,1.4c3,1,3,1,0.5,3.6c1.2,0.2,2.2,0.4,3.5,0.7c-2.2,2.6-5.8,2.3-7.7,5.3c3,1.1,5.4-0.4,7.8-1.4
					c4-1.6,7.7-3.6,12.3-1.2c1.3,0.6,3.8-1,5.6-1.8c1-0.4,1.9-1.3,2.4,0.4c1.5,5.4,6.3,7.2,10.4,9.6c0.5,0.3,1,0.7,2.2,1.7
					c-8.2,0-15.6-2.3-23.4-0.1c2.8,4.1,7.1,5.4,11.2,6.9c2,0.7,4.4,1.2,6.5,0.8c3.8-0.8,5.3,2.4,7.8,3.7c0.2,0.1,0.4,0.5,0.4,0.6
					c-2.4,5.1,3.3,7,4.4,11.4c-4,0-7.8,0-11.6,0c-0.9,0-2.1-0.2-2.4,0.8c-0.4,1.4,1.1,1.5,2,1.9c3,1.3,5.4,2.5,7.3,5.9
					c2,3.6,6.5,5.9,9.9,8.7c1,0.8,2,1.4,1.3,3.1c-0.8,2.1-2.3,0.9-3.2,0.7c-4-0.9-7.8-2.1-11.4,1.6c-0.8,0.9-3.8-0.3-6.5-0.6
					c3.3,5.8,8.9,7.7,13.8,11.7c-5.9,0.2-11.2-3.7-16.6-0.5c3.4,4,8,4.9,12.9,6.3c-2.5,0.9-4.5,1.6-6.5,2.5
					c-1.3,0.6-2.1,1.4-1.5,3.4c0.6,2.1,1.7,1.4,2.9,1.3c8.1-0.4,16.2-1.2,23.9-4c1.3-0.5,2.2,0.4,2.8,1c-3.5,1.4-6.2,4.1-9.5,5.9
					c1.2,2.1,0.2,5.1,2.3,6.6c1.7,1.3,2.2,2.6,2.1,4.5c-0.3,4.2,1.4,7.8,3.5,11.3c0.5,0.9,1.1,1.9,2.4,1.7c1.4-0.2,1.5-1.3,1.6-2.3
					c0.3-2.3,0.6-4.6,0.9-6.9c0.1-1-0.5-2.7,1.3-2.7c1.6-0.1,3.4-0.3,4.9,0.8c1.4,1.1-0.2,2.1-0.1,3.1c0,1.3-2.9,5.4,2.2,2.9
					c0.5-0.3,1.1-0.2,1.3,0.4c0.1,0.4,0.1,1-0.1,1.5c-1.2,2.6-3.7,2.5-5.9,2.9c-1.1,0.2-2.7-0.2-3.1,1.1c-0.4,1.4,0.9,2.4,1.9,3.1
					c3.2,2.1,1.2,3.9-0.4,5.5c-0.6,0.6-1.2,0.7-0.8,1.7c1.9,5.6,4.2,10.9,10,13.7c-4.9,4.5-10.8,0.8-16,2.5
					c-0.7,0.2-1.7-0.3-2.1,0.6c-0.4,1.1,0.6,1.7,1.3,2.1c3.5,1.8,6.5,4.6,10.8,4.9c1.1,0.1,2.3,0.6,3.2,1.3c1,0.7,2.3,1.8,1.6,3.2
					c-0.6,1.3-2.1,1-3.1,0.7c-2-0.6-3.2,0.1-4.3,1.7c-0.4,0.6-0.6,1.3,0.1,1.6c4.8,2.3,5.4,9,11.6,10c-1.8,1.5-3.2,0.9-4.3,0.7
					c-4.6-0.9-9.3-0.8-13.9-0.1c-0.6,0.1-1.4-0.2-1.7,0.6c-0.3,0.8,0.3,1.5,0.9,2c2.3,2.2,5.3,3.3,8.1,4.5c2.6,1.1,5.3,2,8,2.9
					c1,0.4,2,0.9,2.1,2c0.2,1.7-1.3,1.2-2.1,1.6c-4.2,2.5-7.8,5.8-11.4,9c-0.5,0.4-1,0.9-0.7,1.6c0.3,0.8,1,0.7,1.7,0.6
					c2-0.3,4.1-0.4,6.1-1c2-0.6,2.7-0.3,3.1,1.9c0.3,2-0.3,5.3,2.4,5.5c2.5,0.2,2.5-3.1,3.7-4.9c1.4-2,1.6-4.6,3.2-6.6
					c1.4-1.7,2.6-2.1,3.2,0.3c0.5,2.2,2.1,2.8,3.7,3.6c2.6,1.4,4.2,1.1,4.5-2.2c0.1-0.7,0.7-1.4,0.9-2.1c0.4-1.5,1.6-1.1,2.5-1
					c0.9,0.1,2,0.4,2.2,1.3c0.3,1.2-0.7,1.8-1.6,2.3c-3.3,1.7-5.3,4.5-5.6,8.2c-0.1,1.4-0.9,1.7-1.9,1.9c-3.2,0.6-5.8,2.7-8.8,3.9
					c-0.5,0.2-1.1,0.2-1.1,0.9c-0.1,0.8,0.6,1.3,1.2,1.2c5.5-0.2,9.9,1.5,13.3,6.2c1,1.4,3.4,1.7,5.1,2.8c-6.7,0.9-13.5,0-20.5,1.9
					c2.4,2.6,5.2,3.4,8.1,3.8c5.1,0.8,10.3,0.9,15.5-0.1c2.7-0.5,4,1.4,6,2.5c-3.2,3.5-7.2,0.7-10.6,1.5c-1.2,0.3-2.8-0.2-4.2,0.1
					c-1.3,0.3-3.5-0.6-3.8,1c-0.2,1.6,1.5,3,3,3.7c2.3,1.1,4.7,2.3,7.2,2.7c2.9,0.5,2.5,1.6,1.3,3.2c-0.5,0.6-1.2,1.2-0.8,2
					c0.7,1.1,1.6,0.2,2.4,0c2.3-0.8,4.9-0.5,7.1-1.9c1.1-0.7,2.3,0,2.9,1.2c0.9,1.6-1.1,1-1.2,1.6c-2,5.3-6.8,2.9-10.8,3.8
					c5.6,7.3,14.8,6.3,21.8,10.7c-7.9-0.3-15.6-1.6-23.7,0.5c2.8,4.1,7.4,4.3,11.2,6c4.1,1.9,8.8-1,12.7,2.1
					c-2.9,3.7-7,4.3-11.2,4.8c-0.9,0.1-2-0.3-2.3,0.9c-0.3,1.1,0.7,1.5,1.3,2.2c2.8,3,6.8,2.9,10.2,4.5c1.6,0.7,4.2-0.2,4.2,2.9
					c0,3.3-0.1,7.2-3.6,8.2c-3.9,1.1-1.5,3.6-1.3,4.8c0.3,2.4,2.7,1.1,3.7,0.5c3.2-1.8,5.7-0.7,7.8,1.5c1.8,1.9,4.5,1.9,7.2,3.6
					c-8.7-0.1-16.8-1.9-25.4-0.1c4.3,4.6,9.3,6.8,14.9,7.4c3.6,0.4,3.8,1.7,2.3,4.4c-0.6,1-1.1,2.1-1.4,3.2c-0.4,1.4-2.5,4,1.7,2.7
					c1.6-0.5,2.1,1.8,3.5,2.2c8.1,2.3,13.8,8.5,20.4,13.1c1.3,0.9,3.2,1.1,4.1,2.7c-0.2,0.3-0.3,0.6-0.5,0.7
					c-1.1,0.6-3.3-0.7-3.5,1.4c-0.2,1.8,1.6,2.1,2.9,2.6c1.8,0.7,3.5,1.6,5.9,2.7c-5,0.7-6.9,2.9-4.6,7.3c-2.6,0.7-0.9,5.6-5,5.1
					c-1.1-0.1-2.4,0.7-3.6,1.2c-1.1,0.4-3.1,0.2-3.1,1.8c0,2,2.2,2.1,3.5,2.4c3.6,0.9,7.3,0.5,10.6-1.3c3.6-1.9,7.2-2.7,11.2-1.8
					c2.3,0.5,4.6-0.4,6.8-1.3c2.8-1.1,5.3-1,6.8,2.1c1.6,3.2,4.3,5.4,7.2,7.4c0.8,0.5,1.4,1.3,2.4,0.7c0.8-0.5,0.7-1.4,0.6-2.1
					c-0.6-5.5-2.2-10.4-8.2-12.9c4-1.8,7.5-3.3,10.9-5c1.2-0.6,3.2-1.4,2.7-3.4c-0.5-1.7-2.4-1.3-3.7-1.5c-1.5-0.2-3.1,0.2-4.6,0.4
					c-1,0.1-1.4-0.5-1.4-1.4c0-1.1,0.6-1.2,1.5-1c1,0.2,2,0.5,3.1,0.5c4.6,0.3,6.8-1.6,7.2-6c0.1-1.4-0.8-1.4-1.7-1.5
					c-2.2-0.2-4.3-0.9-6.7-0.4c1.1-2.8,2.5-5.2,6-4.8c0.9,0.1,1.6-0.1,1.9-0.9c1.7-4.5,4.9-8.1,8.1-12.3c-2.8-0.2-3.6,1.8-4.9,2.8
					c-0.9,0.7-1.6,2.1-2.9,1.4c-0.6-0.3-1-1.5-1.1-2.4c-0.1-1.4,1.4-2.1,2.3-2.2c3.1-0.6,5.9-2,8.8-3c0.8-0.3,1.8-0.5,2.3-1.8
					c-1.6-1-3.2-0.2-4.7,0c-1.4,0.1-2.9,0-2.9-1.7c0-4.1-2.4-7.5-3.5-11.2c-0.9-3,0.8-5.3,3.8-4.9c5.9,0.8,11.5,0.7,16-4.3
					c1.5-1.7,3.3,0,4.9,0.8c1.5,0.8,3.3,2.8,4.8,1c1.4-1.7-0.9-3.4-2-4.5c-2-2-4.2-3.9-5.1-6.7c-1.2-3.9-2.4-7.9-4.2-11.6
					c-0.8-1.6,0.8-1.5,1.4-1.4c2.3,0.2,4.6,0.1,6.3,2.2c0.8,1,1.9,1.7,2.9,2.6c1.9,1.6,3,0.8,3-1.3c0-4-1.2-7.7-4-10.9
					c4.5-1.8,8.9-3.8,13.5-5.4c3.7-1.3,4.2-2,2.5-5.6c-0.3-0.7-0.7-1.5-1.3-1.9c-3.3-2.1-4.7-4.4-1.1-7.5c0.2-0.2,0.5-0.9,0.4-1
					c-5.1-3.4,1.3-5.4,1.3-8.3c-0.2,2.1,0.3,4.1,0.9,6.1c0.8,2.5,2.3,4.2,4.9,4.2c2.8,0,2.2-2.8,2.9-4.4c0.9-1.9-0.1-4-0.2-6.4
					c3.1,1.3,6.1,1.8,9.4,1.7c1.2-0.1,2-0.2,2.4-1.4c0.4-1.3,0.3-2.2-0.9-3c-3.5-2.4-6.8-5.4-11.5-4.7c-1.7,0.3-2.6-0.5-3.3-1.9
					c-1.2-2.7-3.2-4.9-5.1-7.6c3.7-0.3,7.3,0,10.7-1.3c2.1-0.8,2.7-1.5,0.9-3.4c-2.7-2.9-4.4-6.6-7.8-9c-0.8-0.5-1.9-1.4-1.2-2.5
					c0.7-1.3,1.9-0.9,3.1-0.6c3.2,0.7,6.4,0.9,9.5-0.6c2.2-1.1,3.2-2.3,0.7-4.2c-2.4-1.9-4-5.1-8.1-4c4.3-2,7.7-4.3,10.3-8.2
					c1-1.5,3.8-2.9,6.3-1.3c1.7,1,3,0.5,3.7-1.3c0.7-1.8,1.9-2,3.6-1.8c5.6,0.6,10.9-1,16.1-2.9c2.3-0.9,2.2-2.1,0.9-3.3
					c-2.4-2.3-5.1-4.4-7.7-6.5c-1.4-1.1-2.5-1.8-0.6-3.7c2.3-2.4,1.7-3.4-1.9-4.1c-0.9-0.2-1.7-0.2-2.2-1.3
					c-1.3-3.4-1.4-3.4-4.7-2.9c4.4-4.2,1.7-12.3,9.8-14.8c-3.4-1.7-5.7-3.1-6.6-6.6c-1-3.7,0.7-5.3,2.8-7.2c2.2-1.8,4.2-1.1,6.3,0.6
					c3.1,2.4,6.4,4.4,10.3,5.3c0.9,0.2,1.7,0.9,2.5,0.1c1-0.9,0.4-1.9,0-2.9c-1.8-4.7-1.8-4.8,3.5-5c1,0,2.2,0.4,2.5-1
					c0.3-1.3-0.7-1.9-1.6-2.3c-2.4-1.2-4.8-2.6-7.4-3.2c-2.2-0.5-2.5-2.2-2.9-3.5c-0.4-1.4,1.5-1.8,2.5-2.6c1.5-1.1,5.1-1.3,4.4-2.9
					c-0.9-2.1-3.5,0.4-5.4,0.3c-0.1,0-0.3,0-0.7-0.1c-0.3-1.6,0.1-3.3,1.4-3.9c4.2-2,4.1-6.3,6-9.6c0.5-0.9,0.9-2.2-0.1-2.9
					c-1.2-0.8-1.8,0.5-2.5,1.2c-1,1-1.9,2-3.3,3.3c-0.9-4.4-2.2-3.5-4-0.9c-0.8,1.2-2,2-3.2,3.1c-0.9-1.8-1.5-3.6-2.6-5.1
					c-2.7-3.7-0.3-7.3,0.4-10.8c0.4-1.8,2.5-1.5,4-1.1c0.4,0.1,0.9,0.6,1.2,1c3.2,5.2,8.4,4.1,13.2,4.2c1.3,0,2.9,0.1,3.5-1.2
					c0.5-1.2-1.1-1.9-1.6-2.9c-0.7-1.4-2.2-1.7-3.5-2.4c-0.9-0.5-2.1-0.7-1.3-2.2c1.1-1.8,1.5,0.1,2.3,0.3c1,0.3,1.4,1.1,2,1.8
					c0.9,1,2.1,1.4,3,0.2c1.9-2.6,4.9-4.8,4.3-8.7c-0.3-1.9,1.1-1.2,2-1.3c2.5-0.2,3.9,2.4,6.4,2.5c1.1,0.1,2.3,1.8,3.4,0.2
					c0.9-1.4,1.3-3.1,0.1-4.7c-1.4-1.8-2.5-4-4.3-5.4c-2.7-2.1-2.2-5.7-4.4-8c-0.5-0.5,0.2-0.9,0.7-1.1c0.8-0.4,1.5-1.4,1.1-1.8
					c-2.2-2.1-0.9-4.2-0.3-6.3c0.3-1.1-1.5-2.6,0-3c1.9-0.4,3.9-1.8,5.9-0.4c0.7,0.5,1.1,1.4,2.3,0.8c7-3.2,14.8-4.8,21-9.7
					c0.9-0.7,2.4-0.9,1.7-2.5c-0.5-1.4-1.9-1.3-3-1.3c-7.5,0.1-16.6,3.3-20,12c-2.2-2.6-2.5-6-4.2-8.7c-0.6-0.9,0.1-4.7,3.1-5.6
					c1.8-0.6,3.8-1.6,2-3.9c-2.4-3.1,0.9-4.9,1.5-7.2c0.5-1.9,1.7-5.1,5.5-3.7c1.5,0.6,2.2-0.8,2-2.4c-0.3-1.4-0.7-2.8-1.7-3.9
					c-1.6-1.8-2.2-3.3,0.6-4.7c2-1,1.1-2.7-0.4-3.7c-0.9-0.7-2.1-1-3.1-1.5c-2-1-3.6-2.7-4.8-4.5c-2-3.1,2.7-2.7,2.9-5.5
					c-0.1-1-1.8,0.9-2.3-0.3c1.4-2.9,4.4-4.3,6.2-7.1c2.2-3.4,3.4-6.9,4.4-10.7c0.9-3.7,2.5-4.1,5.4-1.5c1.2,1.1,2.7,2.1,3.6,0.8
					c3-4,8.1-4.5,11.5-7.7c0.7-0.7,2.1-1,1.7-2.3c-0.3-1.1-1.5-0.9-2.3-0.9c-3.2,0-3.6-1.3-2.5-4c1-2.4,1.7-5,1.6-7.6
					c-0.2-3.7,2.9-5.9,4.1-8.9c0.6-1.4,2-3.1,0.9-4.3c-1.2-1.3-3.1-0.1-4.7,0.4c-1,0.3-1.9,0.9-2.8,1.3c-1.8,0.7-4.1-1.1-3.3-2.5
					c2.6-4.5,1.5-8.8-0.2-13.2c0.5-0.2,0.7-0.4,0.9-0.3c1.7,0.5,3.3,2.9,4.8,1.5c1.4-1.2-0.3-3.4-0.8-5c-0.9-2.7-2.5-5.3-3.9-8
					c2.6-0.9,5,0.6,7.7,0.6c5.6-0.2,9.9-4.4,15.4-4.2c-0.1,1.9-3.4,2.3-2.3,3.9c1.1,1.5,3.4,0.4,5.1,0c3.8-1,7.9-1.6,10.6-4.9
					c1.8-2.1,3.5-2.1,5.7-0.7c1.2,0.7,2.7,2.4,4.1,0.9c1.2-1.3,0.1-3.2-0.6-4.3c-1.9-2.8-3.4-5.8-6.9-7.5c-3.7-1.8-2.3-6-2-9.2
					c0.3-2.9,1.4-5.8,1.8-8.7c0.2-2,1.9-2.6,3.5-3.7c2.9-2,5.1-5.1,7.5-7.8c1.2-1.3,1.7-3.2,3.4-4.2c0.8-0.5,1.3-1.4,0.9-2.3
					c-0.6-1.2-1.6-0.5-2.4-0.1c-1.9,1-4.2,1-5.9,2.9c-0.1-0.7-0.1-1-0.1-1.2c0.3-1.9,2.6-4.3,0.6-5.6c-1.5-1-3.8,1-5.5,2
					c-3.6,2.2-6.2,5.7-10.5,7.8c0.9-4.1,3.2-7.5,2.3-11.5c-0.2-1-0.4-2-0.6-3c-0.6-2.7-2-2.8-4.8-0.4c2.4-3.8-0.6-6.7,0.6-10.1
					c0.8-2.5,1.6-2.2,3.1-1.4c6.9,3.5,14.6,3.4,22,4.6c0.8,0.1,1.7-0.2,1.9-1c0.2-1-0.9-1.1-1.4-1.5c-2.3-1.8-4.7-3.5-7-5.3
					c0.8-1.5,3.2-0.5,3-2.2c-0.1-1.8-2.1-1.1-3.2-1.5c-0.7-0.3-1.5-0.2-2.3-0.3c-1.7-0.4-3.9-1.2-3.7-2.7c0.2-2,2.3-0.5,3.6-0.6
					c3.1-0.3,6.3-0.6,8.8-2.6c2.4-1.9,5.1-3.3,7.9-3.7c7.1-0.9,12-6,18.1-8.9c0.7-0.3,1.1-0.7,1-1.4c-0.1-0.9-0.8-0.9-1.5-0.8
					c-6.9,1-14.1-0.1-20.2,4.8c-2.1,1.7-4.6,2.3-7.2,0.4c-1.1-0.8-2.5-1.2-4.2-1.2c2.9-3,3.9-5.2,3.3-9.6c-0.6-4.1-2.4-3.9-4.7-4.5
					c-2.8-0.7-2.6-3.3-1.9-4.7c2.2-4.4-0.5-4.9-3.6-5.6c-1.8-0.4-3.8-0.7-3.3-3.7c0.9-5.3,1.2-5.6,5.9-2.8c1.9,1.1,3.8,2,6,2.6
					c3.2,0.9,3.5-0.1,2.7-2.7c-1.2-3.9-4.2-5.8-7.9-7.1c-1.4-0.5-3.9-0.3-3.3-2.8c0.5-2.4,2.7-1.5,4.2-1.4c2.2,0.1,4.4,0,6.5-0.5
					c1.2-0.3,3-0.2,3.1-1.8c0.1-1.7-1.6-2.2-2.9-2.7c-2.4-0.9-4.9-1.6-7.4-2.4c1.5-3,3.9-4.2,6.7-5.1c1.1-0.3,2-0.9,2-2.1
					c0-1.3-1.2-2-2-2c-4.5-0.2-8.4-1.8-11.4-5.7c0.4-1,1.6-1.9,3.2-2.6c1.3-0.6,2.6-1.2,1.8-3.2c-0.4-1-0.8-2.4,1.3-2.1
					c0.4,0,1.2-0.7,1.1-0.8c-2.1-4.7,3.4-6.3,4.2-9.9c0.3-1.6,1.9-2.9,2.2-4.8c0.4-2.3,1.7-2.6,3.6-1c2.5,2.2,5.4,4,8.5,4.8
					c4.2,1.1,5.9-1.1,4.5-5.2c-1.8-5.4-4.2-10.3-9.9-12.8c5,2.1,9.7,4.7,15.2,3.7c4.5-0.8,8.9-1.3,13.3,0.4c0.9,0.3,1.9,0.2,2.5-0.6
					c0.7-0.9-0.2-1.6-0.8-2.3c-2.3-3.1-4.8-6-8-8.3c-1.4-1-3.2-2.2-3.7-4.4c8.3,2.4,16.6,2.2,24.8,0.7c1.1-0.2,2.7-0.2,3-1.5
					c0.4-1.6-1.4-1.5-2.3-2.1c-4.8-3.2-10.4-4.3-15.7-6.1c2.8-1,3.1-1,5.7,0.3c1.4,0.7,3,2.1,2.2-1.2c-0.3-1.2,1-0.9,1.6-1.1
					c2.6-0.8,4-3.1,5.9-4.9c0.4-0.4,0.8-0.8,0.5-1.3c-3.2-5.4-1.4-13.1-8-17c-1.2-0.7-3.7-2.6-0.6-4.6c0.3-0.2,0.4-1.1,0.1-1.5
					c-2-3.6,0.7-5.1,2.9-6.9c3.4-2.8,4.2-7.4,6.7-10.8c0.4-0.6,0.7-1.6-0.1-2.1c-0.7-0.4-1.5,0-2.1,0.6c-1.4,1.5-2.8,3.1-4.2,4.6
					c-0.9,1-1.9,2-3.1,0.4c-0.9-1.3-2.7-2.5-0.8-4.3c0.7-0.7,1.7-1.2,2.4-1.9c1.2-1.2,3-1.8,1.9-4.6c-0.9-2.1,0.5-4.5,3.6-3.6
					c3.8,1.1,7.8-0.4,11.5,0.9c0.6,0.2,1.3,0.2,1.7-0.5c0.6-1.2-0.5-1.8-1.1-2.2c-3.8-2.1-7.7-4.1-11.6-6.1
					c-0.9-0.4-2.3-0.2-2.6-1.3c-0.3-1,0.9-1.5,1.5-2c5.7-4.2,5.7-15.6,3.2-20.9c-0.4-0.8-0.8-1.7-1.9-1.6c-0.9,0.1-1.2,0.9-1.5,1.6
					c-0.8,1.9-1.6,3.8-2.6,6c-2.2-2.8,0.6-7.9-3.4-8.9c-3.6-0.9-4.7-5-8.6-5.2c3.3-0.6,6.6-0.9,9.4-0.9c5.3,0.1,9.1-2.9,13.6-4.1
					c1.9-0.5,3.5-2,5.7-2.3c0.8-0.1,1.6-0.5,1.6-1.4c-0.1-1.3-1.2-1.2-2-1.1c-6.3,0.7-13-1-18.9,2.5c-0.8,0.4-1.8,1-2.5,0.1
					c-0.8-0.9,0.3-1.7,0.6-2.4c1.4-2.9,3.7-5.2,4.9-8.3c1.1-2.9,1.8-5.6,1.4-8.6c-0.1-0.9-0.5-2-0.1-2.7c2.4-4-0.9-6.3-2.6-9
					c-1.4-2.1-3.3-1.7-3.8,0.7c-0.3,1.5-1.3,2.1-2.1,3.2c-0.9-1.2-0.4-2.6-0.7-3.7c-0.1-0.7-0.2-1.9-0.7-2.1
					c-5.6-2.4-6.4-8.8-10.4-12.5c-1.2-1.1-2.3-3.2-0.4-5.2c1.2-1.2,0.2-2.4-0.7-2.9c-2-1.2-2.9-3.1-3.9-5c-0.2-0.3-0.8-0.7-0.8-0.7
					c2.9-3.4-1.5-4.7-2-7.1c1.4-0.9,2.7-0.5,4.2,0.4c2.5,1.4,5.3,0.8,8,0.4c1.7-0.3,2.4-1.4,1.1-3.1c-0.7-0.9-2-1.9-0.6-2.9
					c1.2-0.8,3-1.6,4.3-1.3c1.6,0.4,0.5,2.2,0.4,3.4c-0.1,2-0.6,3.8-1.8,5.4c-0.7,1-0.9,2.3,0.2,3.1c1.1,0.8,1.9-0.1,2.6-0.9
					c2.2-2.5,4.9-4.7,6.5-7.6c0.8-1.4,2.4-1.6,2.9-3.3c0.4-1.4,1.4-0.1,1.9,0.5c1.4,1.7,3.1,3.1,3.8,5.3c0.3,1,1,1.9,2.3,1.6
					c1.4-0.3,1.3-1.8,1.2-2.5c-0.4-4.1-0.8-8.2-1.7-12.1c-0.4-1.8,0.2-2.2,1.4-2.4c1.8-0.3,3.6-0.6,5.4-0.4
					c9.7,1.2,17.6-2.8,24.2-9.2c3.7-3.6,4.5-9,2.5-14.2c-0.5-1.3-0.5-2.2-0.3-3.5c0.6-5.2-0.1-10.5-0.6-15.7
					c-0.1-0.7-0.3-1.4-1.1-1.4c-0.8-0.1-0.9,0.7-1.2,1.2c-2.2,3.9-3,8.4-4.7,12.6c-4.9-4.1,1.8-7.9-0.1-12.3
					c-1.1,1.3-2.5,1.3-3.8,1.5c-0.7,0.1-1.3,0.3-1.7-0.4c-0.5-0.7,0.1-1.2,0.6-1.6c0.1-0.1,0.3-0.2,0.3-0.2
					c-0.7-3.8-0.2-6.8,3.4-9.4c1.1-0.8-1.3-1.7-2.5-1.2c-2.5,1.2-5.3,1-7.9,1.9c-1.3,0.4-2.1-0.3-2.4-1.3c-0.3-1.1,0.6-1.4,1.5-1.7
					c5.9-2.2,11.4-4.9,15.4-10c0.6-0.8,1.3-1.1,2.3-1.3c1.1-0.3,2.7-0.7,2.2-2.1c-0.5-1.5-2.1-0.8-3.1-0.5
					c-5.1,1.2-10.2,2.6-15.3,3.9c-0.7,0.2-1.2,1.3-2,0.5c-0.6-0.6-0.7-1.6-0.1-2.2c1.9-2-0.4-2.5-1.2-3.2c-1.3-1-2.3,0.3-2.6,1.4
					c-0.6,2-2,2-3.7,2.1c0.2-2.5,0.7-4.6,1.7-6.6c3.5-6.6,4.6-13.7,4.4-21c-0.1-3.4,0.9-4.5,4.4-3.1c3.9,1.6,4.2,1.2,3.6-2.8
					c-0.2-1.1-0.5-2.3-0.5-3.4c0-0.7,0.2-1.5,0.4-2.3c2.8,0.1,4.3,3.9,7.6,2.8c0.6-0.2,1.6,0.6,1.9-0.6c0.2-0.9-0.5-2.4,1.2-2.3
					c1.3,0.1,1.2,1.8,1.9,2.7c0.2-0.2,0.5-0.3,0.5-0.4c-2-8.5,4.6-10.5,10-13.5c2.5-1.4,6.7-1.6,5.8-6.3c0-0.2,0.4-0.6,0.7-0.6
					c2-0.5,2.5-1.1,1.6-3.2c-0.7-1.5-0.7-2.4,0.8-3.2c4.4-2.2,7.7-5.9,12.1-8c0.4-0.2,0.8-0.6,1.9-1.5c-4.5,0.7-7.3,3.2-11.1,3.9
					c1.7-5.3,0.9-10.7,1.1-16.1c0-0.9,0.3-2.3-1-2.7c-1.3-0.4-1.9,0.8-2.2,1.7c-0.9,2.8-3.8,2.2-5.7,3.5c-0.2,0.2-1,0-1.1-0.1
					c-2.6-6-3-0.4-4.3,0.8c-0.2,0.2-0.4,0.4-0.6,0.4c-0.2,0.1-0.5,0-1,0c0.8-2.7,2.6-5.1,2.3-8c-0.2-1.6,0.1-3.6-1.5-4.6
					c-1.5-0.9-2.4,1.1-3.7,1.5c-0.7,0.2-1.3,0.8-1.9,1.2c-1-1.3,0.2-3.6-1.8-4.1c-2.4-0.5-0.7,2.8-2.6,3.1c-0.1,0-0.4-0.1-0.5-0.2
					c-1.1-1.8-1.7-4.4-4-4.3c-2.4,0.1-3.5,2.2-3.7,4.7c-0.1,0.9-1,2.2-2.2,1.5c-1.9-1.1,0.3-2.5,0.1-4c-2.5-0.3-4.9-1.1-6.2-3.6
					c-0.5-1-1.2-1.9-2.6-2c-0.9-0.1-2.4,0.4-2.4-1.2c0-0.5,0.7-1.1,1.1-1.5c1.1-1.1,1.8-0.2,2.5,0.6c0.2,0.3,0.6,0.4,0.9,0.7
					c0.8-0.8-0.1-1.5-0.2-2.2c-0.6-4.4-0.6-4.4,3.8-4.1c4,0.3,5.3-0.8,3.4-3.2c-2.7-3.6-0.1-5.3,1.6-7.6c2.2-3.1,4.1,0.1,5.6,0.6
					c2.9,0.9,3.7-2.1,3.7-2.3c-0.7-3.7,1.7-5.8,4.1-7.3c7-4.3,11.4-11.3,17.2-16.8c0.1-0.1,0-0.5,0-1.1c-2.7,0.5-5.2,1.5-7.5,2.7
					c-2.6,1.3-3.4,0.3-2.8-2.2c0.5-2.2,1.1-4.4,1.7-6.5c0.3-1,0.8-2.2-0.5-2.7c-1.2-0.5-2,0.5-2.3,1.5c-1.7,5.5-6.5,9.3-7.7,15
					c-0.6,2.7-3.5,2.1-5.2,3.7c1.5,0.8,4-0.9,3.8,0.6c-0.3,2.2,1.2,5.2-1.8,7.1c-2.1-3.9-4.1-7.8-6.2-11.5c-0.9-1.6-0.2-2,1.1-2.5
					c1.7-0.7,3.2-1.6,4.9-2.3c2.4-0.9,3.8-2.4,4.9-4.9c1.5-3.3,3.8-6.4,6.5-8.9c3.5-3.2,5.6-7.4,8-11.2c2.5-3.9-0.1-8.3-0.4-12.5
					c-0.1-1.2-1.8-1.4-2.4-0.3c-2.5,4.5-6.9,8.3-6.3,14.2c0.1,1.1-0.6,2.3,0.4,3.3c0.7,0.7,0.9,1.7-0.1,2.3
					c-1.4,0.7-1.8-0.6-2.2-1.5c-0.3-0.7-0.5-1.6-0.3-2.3c2-6.3-1.6-11.7-2.5-17.6c-0.1-1-0.3-2.4-1.6-2.3c-1.3,0.1-0.7,1.4-0.9,2.2
					c-0.7,2.7-1.9,5.4-1.7,8.6c-1.6-0.5-2.1-1.6-2.7-2.7c-1.4-2.6-2.7-5.3-4.5-7.7c-1.5-2-3.9-3.6,0.3-6.2c-5.5,1.6-7.1-2-9.2-4.8
					c-0.5-0.7-0.7-2-1.8-1.7c-1.1,0.3-1.1,1.7-1.2,2.6c-0.1,1,0,2.1,0.3,3.1c0.5,2.3-0.6,4.8-2.3,5c-1.7,0.2-3-2.1-3.2-4.3
					c-0.1-1.8-0.9-3.5-1.4-5.2c-0.9-2.8-2.4-5.1-3.9-7.5c-1-1.6-2.3-2.7-4-2.6c-1.8,0.2-1.8,2.3-2.4,3.6c-1.4,2.9-2.8,5-6.7,4.7
					c-4.1-0.3-6.3-1.6-6-5.9c0.1-1.3-0.1-2.8-1.7-3c-1.6-0.2-1.6,1.4-2,2.4c-0.1,0.2,0,0.6-0.2,0.7c-4.9,3.4-6.3,10-11.9,12.8
					c-1.4,0.7-1.5-0.2-1.9-0.8c-0.9-1.4-1.7-3.2-2.9-0.2c-0.8,1.8-2.1,0.9-3.3,0.3c-1.7-0.9-0.4-1.8,0.1-2.4
					c3.2-3.7,0.9-7.4,0.1-11.1c-0.3-1.2-1.9-2.5-2.4-1c-1,3-4.7,3.3-5.2,6.9c-4-8,2.8-10.6,6.8-14.4c-0.2-0.2-0.5-0.5-0.7-0.7
					c-1.7,0.7-3.5,1.2-5.1,2.1c-1.7,1-2.8,1.7-5.1,0.4c-3.6-2.1-3,1.9-3.9,3.9c-1.7-0.2-3.5-2.8-5.2,0.2c-0.3,0.6-1.4-0.5-1.4-1.3
					c-0.1-1.6-3.1-2.7-0.7-4.7c1.8-1.4,3.5-2.8,5.5-4.3c-2.2-1.3-3.3,0.4-4.7,0.8c-1.6,0.5-3.2,1.8-4.6,0.1c-1.6-1.9,0-3.3,1.2-4.7
					c0.1-0.2,0.2-0.5,0.3-0.8c-2-1.2-3.2-1.9-5.3,0.8c-1.1,1.5-3.1,2.7-4.1,4.6c-0.2,0.3-1.1,0.5-1.4,0.3c-1-0.5-0.3-1.3,0-2
					c2.3-5.1,1.6-11,4.7-15.9c0.4-0.7,0.3-1.6-0.5-2.1c-0.9-0.5-1.4,0.2-1.9,0.8c-2,2-2,5.2-4,7.1c-3.1,3-4.1,6.9-4.9,11
					c-7-6.3-7.7-15-1.9-23.1c0.8-1.1,1.9-2.1,0.7-3.4c-1-1.1-2.2-0.2-3.1,0.5c-1,0.7-1.7,0.9-2.8,0c-1.1-0.9-1.7-2-1.3-3.4
					c0.6-2,1.3-3.9,1.9-5.9c0.3-0.8,1.1-1.5,0.4-2.5c-0.9-1-1.9-0.4-2.9-0.2c-1.7,0.4-3.3,2.6-4.6,1.7c-1.5-1-0.1-3.4-0.4-5.1
					c-0.5-3.9-0.7-7.8-3.5-10.8c-0.6-0.6-0.9-1.8-1.9-1.7c-1.1,0.1-1,1.4-1.3,2.2c-1.4,4-1.8,8.3-2.2,12.5c-0.1,1.8-0.3,3.6-0.9,5.3
					c-1.2,0.2-1.4-0.7-1.5-1.3c-1-5.1-5.1-8.3-7.5-12.6c-0.8-1.4-2.5,0.5-3.9,0.6c-1.3,0-1.2,0.9-0.9,1.9c1,3.1-1.4,4.1-3.4,5
					c-0.5,0.2-1.3,0-1.8-0.3c-0.6-0.5-0.2-1.2,0.2-1.7c4.6-5.3,4.4-11.8,4.5-18.1c0-1.5,1.8-6.8-3.8-3.9c-0.7,0.4-1-0.9-1.5-1.5
					c-2.2-2.5-2.8-6.1-6-8.1c-1.1,2-0.9,3.8-0.8,5.7c0.1,1.6-0.5,2.7-2.2,1.3c-2-1.7-4.4-2.2-6.8-2.7c-1-0.2-2.2-1.7-3.1-0.4
					c-0.7,0.9,0.1,2.2,0.3,3.4c0.4,2,2.3,3.5,1.8,5.9c-2.8,0.4-6.7-4.2-9.2,2C144.3-559.2,141.4-563.3,140.6-558.9
					c1.7,5.5,6.7,8.1,11.1,11.5c-3.7,0.6-5.1-3.1-8-3c-0.6,1.4,1.2,1.9,0.6,3.2c-1.3,0-2.7,0-4.1,0c-2.2,0-2.8-0.6-1.5-2.8
					C140.3-552.6,140.8-555.7,140.6-558.9z M-200.5,62.4c-5.1,0.7-9.4,1.3-13.8,2c0.5-2.5,2.6-2.7,4.1-3.5c1.1-0.6,2.8-0.8,2.8-2.3
					c0-2-2.2-1.1-3.3-1.9c8.2-2.6,18.8-3.2,20.8-0.8c-4.7-1.9-8.4,1.1-12.5,2.1c-0.7,0.2-1.7,0.1-1.9,1.1c-0.2,0.9,0.5,1.4,1.2,1.8
					C-202.4,61.3-201.8,61.6-200.5,62.4z M227.9,9.4c-1.2-3.3-2.2-6-3.3-9.1c2.8,0,4.8-2.8,8.2-1.7c2.2,0.7,2.4,1.1,1.6,3
					C233.1,4.8,230.3,6.5,227.9,9.4z M98.1,434.4c0.3-1,1.1-1.7,2-1c3.8,2.8,3.7-0.6,4.6-2.6c0.4-1,0-3.2,2.5-2
					c1.9,0.9,2.6,1.5,1.8,3.7c-0.7,1.9-2.2,3.2-3,4.9c-0.6,1.2-1.2,3.3-2.9,2.3C101.1,438.5,98.8,437.2,98.1,434.4z M-277.8-418.7
					c-6.5-0.5-12.8-1.9-19.3-0.9c-0.7,0.1-1.7,0.1-1.9-0.9c-0.1-0.4,0.5-1.2,0.7-1.2c1.8,0.4,2.9-1.3,4.6-1.3
					C-288-423.1-282.4-423-277.8-418.7z M78.9,543.7c-5.2-0.2-9.6,2.1-14.2,3.8c-1.8,0.7-3.3,0.1-4.9-0.2c-0.6-0.1-1.4-0.3-1.2-1.2
					c0.2-0.9,1-0.9,1.5-0.6c3.3,1.6,5.6-0.4,8-2.2C72.8,539.6,73.6,539.6,78.9,543.7z"/>
			</g>
		</g>
		<g>
			<g>
				<path class="st0" d="M140.6-558.9c-1.6-2.5-1.2-5.6-2.4-8.1c-0.5-1-0.8-2.5-2.2-2.4c-1.3,0.1-0.5,1.7-1,2.4
					c-1.4,2.4-2.2,4.9-2.2,7.7c-5-4.5-10.7-7.8-16.7-10.6c-0.7-0.3-1.6-0.7-2.1,0c-0.7,1,0.2,1.6,0.8,2.3c1.9,2.3,4.1,4.5,3,7.9
					c-3.8-0.6-7.4-2.6-11.3-0.7c-1.6,0.7-2.2,1.4-1.8,3.2c1.1,4.5,6.5,10.2,11,11.2c-7.1-0.2-14.1-1.7-21.7,0.1
					c4.9,6.6,13,6.7,18.9,11c-1.7-0.2-3.4-0.5-5.1-0.7c-1.6-0.1-3.4-0.2-3,2.2c0.2,1.5-0.6,1.1-1.4,0.9c-2.5-0.6-4.7-1.1-6.2,2
					c-1.5,3,0.6,4.6,1.9,6.6c0.1,0.2,0.2,0.5,0.4,0.7c-1.3,0.9-2.3,1.1-3.1-0.6c-0.4-0.8-1.1-1.5-1.8-2c-2.7-2-2.8-3.8-0.4-6.2
					c0.4-0.4,1.1-0.5,1.2-0.9c0.7-1.6,1.1-3.5,0.3-4.8c-0.9-1.4-2.3,0.2-3.4,0.5c-1.2,0.3-2.3,1.2-3.9,0.9c4.4-6.4,2.6-13.8,4-20.9
					c-3.4,2.8-6.1,6.1-9.5,8.5c-2.9,2.1-3.6,2.1-4-1.4c-0.3-2.9-0.3-6,1.6-8.6c2-2.9,1.9-6.2,2.6-9.7c-3.6,0.6-3.4,3.7-4.7,5.7
					c-1.2-2.9-2.5-5.6-3.4-8.3c-0.9-2.5-3.1-3.6-5.2-3.3c-2.4,0.4-1.9,3-1.8,4.9c0.2,2.5,0.6,5.1,1.9,7.8c-4.1-2.1-7.5-5-12-5.6
					c-3.3-0.4-4.1,0.4-3,3.5c0.7,1.8,1.6,3.5,2.5,5.5c-2.1,0.2-3.2-1.4-4.7-2.2c-0.7-0.4-1.4-1.4-2.4-0.8c-1,0.7-0.3,1.7,0,2.5
					c0.6,1.6,1.3,3.1,2,4.7c-0.9,0.7-1.6-0.5-2.4-0.2c-2.4,0.9-6.4-1.2-6.3,4.3c0,2.9-3.8,5-4.2,8.4c-1.2-0.2-2.6,1.4-3.5-0.7
					c-1-2.2-2.7-3.4-5.1-3.6c-1.8-0.2-1.8-1.4-1.8-2.8c-0.1-12.2,0-24.3,1.3-36.4c1.4-13.3,4.8-26.2,8.3-38.9
					c2.3-8.4,6.7-16.1,10-24.2c2.1-5,1-7.4-4.2-9.5c-3.8-1.5-7.8-2.3-11.8-2.4c-6.8-0.2-13.7-0.6-20.5-0.9c-9-0.3-17.5,2-26.2,2.5
					c-3.5,0.2-5.6,2.4-7.8,4.6c-1.1,1.1-0.4,2.2,0,3.2c5.3,12.8,9.6,25.9,13.8,39.1c0.8,2.3,1.2,4.8,1.6,7.2
					c3.1,18.3,4.4,36.7,3.5,55.3c-0.3,6.1,0.3,12.4,0.2,18.6c0,1.3,0.5,2.6-0.4,4c-1.8-1-1.9-2.8-1.6-4.3c0.3-1.4,0.1-2.8,0.2-4.2
					c0-1.4,0.5-3.3-1.4-3.5c-1.6-0.2-1.3,2.1-2,2.7c-2.7,2.3-2.8,6.4-5.8,8.2c-1.4,0.8-0.7,1.7-0.7,2.6c0,0.8,0.2,1.7-0.8,1.9
					c-1.2,0.2-1.5-0.8-1.7-1.7c-0.3-1.1,0.2-2.4-1.5-2.8c-1.3,2.3,0.9,4.1,0.9,6.2c-0.4,0.6-1,0.4-1.4,0.3c-1.7-0.3-3.4-2.5-4.9-0.8
					c-1.5,1.7-0.1,4,0.4,5.9c0.3,1,1.2,1.9,2.1,3.1c-2.8,1.1-4.9,3.7-8.5,2.6c-0.8-0.2-3.3-0.3-3.3,1.7c0,1.5,0.7,3.2,2.7,3.9
					c1.3,0.4,3,0.1,3.7,2.2c-7.7,0.9-15.7,0.7-22.2,7.3c2.5,0.3,4.4,0.6,6.4,0.8c6.7,0.6,7.8,2.7,4.1,8.4c-1,0-0.9-0.7-0.8-1.4
					c0.1-1.2,0-2.6-1.4-2.8c-1.3-0.2-2.4,1.1-2.4,2.1c-0.1,2.8-4.6,2.3-4,5.7c0.1,0.5-1.5,0-1.7-1c-0.3-1-0.4-2.2-1.7-2.2
					c-1.3,0-1.8,1-2.1,2c-0.6,2-1.7,4.3-3.7,3.7c-2.1-0.7-4.2-2.7-3.7-5.7c0.3-2.4-0.2-2.9-2.5-1.7c-2.1,1.1-4.2,1.8-6,3.5
					c-1.2,1.1-2.7,2-4.9,1.5c-2.1-0.5-2.4-1.6-1.4-2.9c1.8-2.4,2.5-5.1,3-7.9c0.3-2,1.9-3.9-0.6-6.1c-1-0.9-0.5-4-0.1-6
					c0.8-3.8-3.9-4.2-4.2-7.5c-0.1-0.7-2.4,0.1-2.9,1.5c-2.6,6.5-8.1,11.4-9.9,18.4c-1.2-4.2,0.9-8.2,0.4-12.3
					c-0.5,1.5-1,3.1-1.5,4.6c-1.2-2-2.3-4,0.2-5.8c1.7-1.2,2.8-3,3.8-4.8c0.5-1,1.8-1.9,0.7-3.1c-0.8-0.9-2-0.5-2.9-0.2
					c-3.1,1-6,2.2-7.4,5.7c-0.5,1.3-1.7,2.6-3.1,2.7c-1.7,0.1-2.1-1.8-2.5-3c-1-2.7-2.8-4.8-4.6-7.1c-1.4-1.8-3.1-3.5-4.9-2.7
					c-1.9,0.8-1.7,3.4-1.3,5.4c0.1,0.6,0.5,1.2,1.1,2.8c-4.3-2.9-8.4-2.9-12.6-2.7c-2.6,0.1-4.5,0.5-3,3.8c0.8,1.8,0.7,3.8,1.9,5.5
					c0.4,0.5,0.6,1.3,0,1.8c-0.6,0.6-1,0-1.6-0.4c-3.1-2.3-6.9-2.5-10.4-3.7c-2.1-0.7-2.3,0.8-1.6,2.5c1.4,3,3.3,5.5,5.8,7.7
					c0.9,0.8,2.6,1.8,1.4,3.1c-0.9,1-2.2-0.3-2.9-1.1c-2.4-3.1-5.8-1.3-8.7-2c-1.3-0.3-1.5,1.1-1.3,2.3c0.3,2.5,1.1,5,3.6,6.1
					c2.1,1,3.6,2.8,6.2,4.2c-4.8,0-8.9,0-13,0c-2.7,0-6.9,0.1-7.3,1.7c-0.6,2.7,3.5,3.1,5.5,4.3c2.1,1.3,4.2,2.4,6.3,3.7
					c2.9,1.7,2.5,3.4,0.9,5.7c-2.4,3.4-5.5,2.8-8.7,1.1c-1.8-1-2.4-3-4.8-3.6c-2.5-0.7-2.2-4.8-1.7-7.5c0.3-1.9,0.1-3.6,0-5.4
					c-0.1-1.4-0.8-2.1-2.3-1.6c-0.7,0.3-1.5,1-2.1,0.1c-0.5-0.8-0.3-1.8,0.4-2.5c0.9-1,2.4-2.4,1.1-3.4c-1.7-1.3-2.5,0.8-3.5,1.9
					c-2.2,2.6-4.6,5-7.1,7.8c-0.3-0.9-0.6-1.2-0.6-1.5c0-4.7,0-4.6-4.4-3.1c-1.3,0.4-3,2.2-4.1-0.9c-1-2.6-2.9-0.6-4.6,0.9
					c0.4-4.3,2.1-7.6,3.7-10.7c1.3-2.6,4.5-2.2,7-2.7c1.3-0.3,3.3,0.6,3.6-1.4c0.3-2-1.6-2.9-3.1-3.4c-4.8-1.6-9.7-2.8-14.6-0.9
					c-3.6,1.4-6.6,1.7-9.6-1.7c-1.3,4.7,1.1,7.8,2.7,11.4c-3.3-2.1-6.7-4.2-9.9-6.5c-2.1-1.5-4.5-2.6-6.8-3.8
					c-0.6-0.3-1.2-0.7-1.8-0.1c-0.6,0.6-0.2,1.2,0.2,1.7c0.8,1,1.5,2.3,2.5,2.9c4,2.4,6.7,6.3,11.2,9.8c-3.2-0.9-5.3-1.6-7.5-2.1
					c-0.9-0.2-2.3-0.4-2.9,0.6c-0.8,1.3,0.8,1.6,1.4,2.4c0.5,0.7,1.7,1,1.3,2.5c-3-0.4-6,0-9-1.1c-0.9-0.3-1.8-0.8-2.4,0.3
					c-0.7,1.1,0.4,1.6,1.1,2.2c0.7,0.6,1.5,1.1,2.1,1.7c1.1,1,3.6,0.7,3.3,2.8c-0.4,2.3-2.3,4-4.3,5.1c-0.9,0.5-2.2-0.1-2.6,1.8
					c-0.3,1.3-2,0.7-2.7,0.3c-2-1.2-4.9-1.4-6.2-2.9c-2-2.2-4.7-1.2-6.7-2.6c-0.7-0.5-2,0-2.3,0.9c-0.9,3.1-4,4.2-5.7,6.7
					c1.4-5.3,3.5-10.4,4.1-16.1c-2.4,2.8-4.2,6.1-7.1,8.7c-1.9-0.7-1.2-2.7-1.7-4.1c-2.3,1.9-8.1,0.5-5.1,7
					c-3.5-1.8-4.3-5.4-7.8-5.9c0,1.5,0,2.9,0,4.8c-3.7-2.8-6.7-5.5-9-8.9c-0.6-0.9-1-1.7-2.3-1.6c-1.4,0.1-1.7,1.2-1.9,2.2
					c-0.6,2.3-1,4.7-1.7,7.1c-0.2,0.9,0.9,2.3-0.8,2.6c-1.1,0.2-1.9-0.7-2.6-1.5c-0.3-0.4-0.8-0.6-1.2-1c-1.1,1,1.1,1.7,0,2.8
					c-3.2-2.5-6.5-4.9-10.3-7.8c0.2,2.3,1.4,3.7,2.2,5.2c0.6,1.2,2.3,2.5,1.3,3.7c-0.8,1.1-2.6-0.1-3.9-0.3
					c-3.7-0.4-7.3-0.9-11.5-1.4c1.3,2.5,3.2,3.4,5.1,4.5c4.1,2.4,8.7,3.9,12.3,7.1c0.8,0.7,1.3,1.6,2.1,2.3c1.6,1.6,0.5,2.3-1,2.3
					c-1.8,0.1-3.7,0.4-3.7,2.4c0,2.1,2.3,2.2,3.9,2.5c2,0.4,4,0.7,6.4,1.1c-2.5,1.3-3.9,3.1-5.2,5c-0.6,0.9-1.6,1.3-2.7,1.1
					c-1.4-0.3-1.5-1.5-1.2-2.5c0.7-3.2-1.9-4.7-3.3-6.8c-1.8-2.6-3.6-5.2-5.8-8.2c-1.3,3.3-0.5,6-0.3,8.6c0.1,1.1,0.8,2.5-0.7,3.1
					c-1,0.4-2.1-0.4-2.6-1.3c-3-4.9-8.2-8.3-10-14.1c-0.4-1.2-1.4-2-2.7-1.7c-1.5,0.4-0.9,1.7-1,2.6c-0.3,4.1,1.4,8,1.6,12.1
					c0.1,1.1,0.4,1.9-0.9,1.7c-4.4-0.7-1.7,1.8-1.1,2.7c0.9,1.2,2.3,1.9,3.4,3c2.9,2.7,2.3,5.2-1.5,6.4c-2.5,0.8-5.1-0.1-7.7-0.4
					c-0.9-0.1-1.3-1.1-1.3-2.1c-0.5-8.8-8.9-13.5-16-14.3c-1-0.1-1.9-0.1-2.4,0.7c-0.5,0.9,0.6,1.3,1,1.8
					c3.9,5.8,10.1,8.9,15.3,13.3c-1,1.5-3,0.4-4.2,1.5c0.1,0.3,0.1,0.8,0.2,0.8c5,0.6,4.3,4.9,5,8c0.4,1.5,0,2.9,2.1,3.4
					c1.9,0.5,2.4,2.8,2.1,4.2c-0.4,2-2.3,0.6-3.6,0.6c-2.4-0.1-4.9-0.3-7.3-0.3c-0.9,0-2.3-0.3-2.6,1.1c-0.2,1,0.5,1.7,1.2,2.3
					c1.8,1.4,4,2.3,5,4.8c0.7,1.5,2.8,2.1,4.8,2.1c3.4,0,6.7,0.1,10.1,0c2.6-0.1,5.1,0.9,7.6,1.1c8.6,0.7,16.7,5.5,25.6,3.4
					c1-0.2,2.2-0.6,2,1.4c-0.2,1.4,1.6,1.9,2.8,3.3c-7.7-0.9-14.8-2.7-21.9-0.6c-0.8,0.2-2-0.2-2.3,0.9c-0.3,1.4,1.1,1.5,2,1.9
					c8.7,5,18.4,5.5,28.5,6.6c-3.7,1.4-6.9,2.8-10.2,3.9c-2.9,0.9-4.3,3.2-5.7,5.6c-1.1,1.9-0.2,2.8,1.8,2.4
					c2.2-0.4,4.3,0.2,6.5-0.2c3.5-0.6,4.9,1.1,4.1,4.6c-0.5,2.3-0.1,4.7-1.3,6.8c-0.3,0.6-0.3,1.7-1.4,1.5c-0.7-0.2-0.9-0.9-1-1.5
					c-0.1-1-0.2-2.1-0.4-3.1c-0.1-0.8-0.3-1.6-1.3-1.6c-0.7,0-1.3,0.4-1.4,1.1c-0.1,1.9-1.8,2.7-2.6,4c-1.1,1.8-4,2.8-2.8,5.9
					c0.4,1-1,2-2,2.4c-4.4,2.1-4.7,3.1-1.7,6.8c0.5,0.6,1.3,0.9,0.8,2.4c-2.8-2.4-5.4-4.6-8-6.9c-0.6-0.6-1.3-2-2.1-1.1
					c-3.6,4.2-6.5,0.4-9.6-0.7c-2.8-1-4.8-3.8-8.9-4.2c2.9,2.9,5.4,5,8.4,6.5c1.6,0.8,2.6,2,2.7,3.9c0.1,2.4-2,1.9-3.2,2.7
					c-2,1.4-4,0.1-5.9-0.2c-3-0.4-1.9-2.8-2.1-4.6c-0.1-0.6,0.1-1.4-0.7-1.6c-0.9-0.2-1.6,0.4-1.6,1.2c-0.4,4-5.6,5.4-5.4,9.9
					c0,0.8-1.2,1.9-2.1,0.2c-1.5-2.9-2.9-6-7-3.4c-0.1,0.1-0.5-0.1-0.5-0.2c-0.2-1.7-1.2-3-2.8-2.2c-2.1,1-3.2,3.4-3.2,5.4
					c0,3.9-1.5,4.8-4.9,3.6c-2-0.7-2.6,0.3-2.7,2c-0.1,3.5-1.7,3.3-3.9,1.6c-2-1.6-4.3-2.3-6.7-2.7c-3.2-0.5-3.9,0.5-2.2,3.2
					c-0.5,0.1-0.7,0.2-0.9,0.2c-1.8-0.1-4.3-1.8-5.3,0.2c-0.9,1.9,1.3,3.8,2.8,5c3.1,2.5,5.3,6.1,8.9,8c1.7,0.9,0.7,3,2.9,4.5
					c-4.6-0.3-8.2-0.6-11.7,0.2c-0.8,0.2-2-0.5-2.3,0.8c-0.3,1.3,0.9,1.7,1.7,2.3c3.6,2.3,7.7,3.7,11.8,5c6,1.8,7,5.7,2.8,10.1
					c-1.2,1.3-0.5,2.1,1,2.3c2.4,0.4,4.8,0.9,7.2,0.8c1.8-0.1,2.7-0.1,2.7,2c0,0.7,0.4,1.5,0.5,2.3c0.5,2.5,1.7,5.3,4,5.5
					c1.6,0.2,1.8-3.2,2.5-5c1.5-4.5,4.4-5.6,8.6-3.2c2.1,1.2,4.4,2.1,5.6,4.5c0.8,1.6,1.9,0.6,2.4-0.1c1.1-1.6,2-3.3,3-5
					c0.6-1,0.8-2.4,2.4-1.9c0.7,0.2,1.7,0.5,2,1.1c0.8,1.5-1.1,1.4-1.6,2.2c-0.4,0.8-1.1,1.5-1.6,2.2c-0.4,0.5-0.9,1.1-0.4,1.7
					c0.4,0.6,1,0.8,1.7,0.6c1.9-0.4,4-0.4,5.5-1.7c2-1.8,4.4-1,6.6-1.5c2.2-0.6,4.1,3,2.7,5c-1,1.5-0.3,3.4-1.5,5.1
					c-1.1-1.7-2.1-3.3-3.2-4.9c-0.4-0.6-0.9-1.4-1.8-1.2c-1,0.2-0.8,1.1-1,1.9c-0.1,0.8-0.6,1.5-0.5,2.3c0.3,3.4-1.6,2.5-3.9,3
					c-3.1,0.6-5.7,1-8.7-0.4c-0.9-0.4-1.8,0.7-1.4,2.1c0.6,2.2,1.3,4.4,2.6,6.3c0.6,0.9,1.9,2,1,3c-0.7,0.9-2.2,0.3-3.3-0.1
					c-1.6-0.5-3.3-1-4.9-0.5c-1,0.3-2.7-0.7-3,0.9c-0.3,1.5,0.3,2.9,1.7,3.6c2.7,1.3,4.9,3.4,7.8,4.3c1.5,0.4,3,1,2,3.3
					c-0.9,2-1.8,2.4-3.8,1.3c-6.5-3.3-13.4-1.2-20.1-0.8c-0.5,0-1.2,0.1-1.1,0.7c0,0.4,0.3,1,0.7,1.2c1.1,0.6,2.3,1.4,3.6,1.5
					c4.6,0.4,8.4,3.5,13.2,3.1c2-0.2,3.2,1.1,2.2,3.3c-0.9,2.1-1.1,4.3-1.3,6.5c-0.1,0.8-0.2,1.7,0.8,2c0.8,0.2,1.5-0.5,1.9-1.1
					c0.5-0.8,0.9-1.7,0.9-2.5c-0.2-4.2,2.6-5,5.8-5.1c3.4-0.1,7,2.5,7.5,5.4c0.3,1.8,0.8,3.2,3.1,4.1c-3.7,1.3-7.8,1.8-6,7.2
					c0.5,1.6-2.2,0.6-3.1,2c-0.1,1.4,2.3,1.4,2.3,3.3c-2-0.4-2.9-1.9-3.9-3.3c-1.2-1.7-3.1-2.9-5-1.6c-1.7,1.2-1.1,3.3-0.4,5
					c0.6,1.3,1.4,2.4,2.7,4.5c-4.6-1.7-7.8-4.3-11.7-4.8c-1-0.1-2.1-0.9-2.9,0.2c-0.7,1,0.1,2,0.6,2.8c1.2,1.8,2.3,3.8,4.6,4.5
					c1.3,0.4,1.7,1.2,1.3,2.4c-0.5,1.4-1.7,1.1-2.6,0.7c-6.3-2.4-12.9-3.4-19.3-5.2c-1.1-0.3-2.4-1.3-3.1,0.1
					c-0.7,1.4,0.8,1.9,1.7,2.6c2.8,2.1,5.7,4.1,8.4,6.3c3.6,3,7.9,3.5,12.2,3.9c1.7,0.2,2.7,0.5,3,2.6c-9.5-1.5-18.8-1.7-27.6,2.4
					c6.4,1.9,13,0.8,20.2,1.3c-3.2,1-5.7,1.7-8.2,2.6c-1.5,0.6-3,1.7-2.6,3.4c0.4,1.7,2.2,0.8,3.4,0.8c3.5,0,6.8-1,10.5-1.9
					c-1.1,2.2-3,3.1-4.7,4.1c-1.4,0.8-2.9,2.1-2.3,3.6c0.6,1.8,2.6,0.7,3.8,0.3c4.3-1.5,9.1-2.1,11.9-6.5c0.8-1.4,2.1-1.2,3.4-0.4
					c1.2,0.8,2.5,1.5,3.8,1.9c2.4,0.7,2.5,2.1,1.8,4.2c-1.3,3.9-0.9,4.3,3.3,3.5c0.6-0.1,1.2-0.2,2.1-0.3c-0.9,3.6-1.5,6.9-0.9,10.2
					c0.3,1.7,0.6,4.1,3.3,1.9c0.9-0.7,1.5-0.2,1.9,0.5c2,3.9,6.2,4.7,9.9,6.9c-3.8-0.2-7.3-0.7-10.7,0.2c-5,1.3-5.4,2.2-2.1,5.8
					c-1.5,1-2.2-0.9-4.2-0.9c3.2,2.5,5.9,4.7,8.6,6.9c0.8,0.7,2.6,0.8,2.1,2.3c-0.4,1.3-1.8,0.5-2.7,0.7c-1.4,0.3-2.8,0.6-4.1,1.2
					c-2.7,1.2-2.8,3-0.2,5.4c-4.6,2.7-9.9,3.9-14.1,7.8c3.4,1.7,6.2-0.2,8.8-1.3c5.2-2.2,9.7-5.5,13.8-9.2c1.4-1.3,2.7-1.8,4.7-0.2
					c-2.6,0.9-3.6,2.8-4,5.2c-0.9,4.9-5.3,5.9-9,7.6c-0.8,0.4-2,0.2-1.9,1.5c0.1,0.9,1,1.1,1.7,1.4c0.8,0.3,2,0.4,1.5,1.7
					c-0.4,1.1-1.5,0.8-2.4,0.8c-1.5,0.1-2.6-0.5-3.8-1.3c-1-0.7-2.5-0.6-3.1,0.5c-0.8,1.5,0.9,1.5,1.6,2.1c1.5,1.2,2.9,2.3,4.4,3.5
					c-0.7,1.6-3.9,0.2-3.4,2.4c0.5,2.5,3.5,2.3,5.3,3.5c-2.4,1.7-4.7,3.7-7.9,3.8c-1,0-2.1,1.1-2,2.1c0.1,1.6,1.6,0.9,2.5,1
					c2.6,0.3,5.1,0.5,7.7,0.6c3.3,0.1,3,1.8,1.7,3.8c-0.6,0.9-1.3,1.7-2.1,2.2c-2.1,1.3-1.7,2.6-0.3,4.1c2,2.1,2.9,4.8,4.1,7.7
					c-3.3,1.3-5.7-1.5-8.6-1.2c-1.8,0.2-4.5-1.4-5.1,0.9c-0.6,2.4,1.8,3.7,4.1,4.4c1.3,0.4,2.8,0.7,3.4,2.6
					c-6.3,0.9-12.7-0.9-19.3,1.4c2.9,2,5.8,2.9,8.7,3.3c2.9,0.5,5.9,0.6,9.7,1c-1.9,0.9-3.1,1.5-4.2,2.1c-0.8,0.4-1.7,0.8-1.6,1.9
					c0.1,1.1,1,1.5,1.8,1.9c2.7,1,5.4,1,8,0c1.5-0.6,3-0.9,4.5-0.3c1.2,0.4,3.6-0.8,2.6,2.4c-0.3,1.1,1.5,1,2.5,1.3
					c4.8,1.4,6.3,4.1,5.2,9c-0.5,2.3-2,5.6-0.3,6.9c1.8,1.2,3.7-2.1,5.5-3.3c1.8-1.2,2.8-3.3,4.3-5c0.8-0.9,1.1-2.8,2.8-2.1
					c1.4,0.6,1.9,2.2,1.7,3.6c-0.3,2.6,0.2,4.9,1.9,6.9c1.7,2.1,2.9,2.4,4.7-0.2c2.1-3,2.1-6.5,3.1-9.8c1.5,0,1.9,1.4,2.7,2.1
					c4,3.6,4.1,4.3,0.7,8.6c-2.9,3.6-3.3,7.7-3.4,12c0,1-0.1,2.3,1,2.8c1.3,0.6,2.3-0.4,3-1.3c3.1-3.9,6.2-7.9,8.7-12.2
					c0.3-0.4,0.6-0.8,1.4-2c0.2,2.9,0.4,5,0.4,7.2c0,1.2,0,2.4,1,3.2c1.6,1.5,2.3,5.2,4.8,4.3c2.7-0.9,3.5-4.4,3.8-7.2
					c0.2-1.3,0.3-2.7,0.4-4.1c2.6,0.5,4,2.9,6.4,3.7c1.8,0.6,3.6,1.5,5.6,1.3c1.2-0.1,2.8-0.1,3.2,0.9c1.4,3.6,4.1,2.1,6.5,2.1
					c1.4,0,3.1-0.9,3.9,0.7c0.8,1.5-1.8,1.7-1.6,3.1c5-0.9,5.7,0,6.8,5c0.6,2.8,0,5.9,2.4,8.4c0.6,0.6,0.9,3-1,3.5
					c-1.4,0.4-2.8,0.3-3.1-1.8c-0.2-1.4,0.2-3.6-2-3.7c-2.3-0.1-3.2,1.9-3.8,3.8c-0.2,0.5-0.1,1-1.1,1.1c-0.2-0.3-0.3-0.8-0.6-1.2
					c-0.7-1.3-0.6-4-2.3-3.5c-1.9,0.6-1,3.2-0.5,4.8c0.4,1.2,1.2,2.3,0.6,3.9c-6.3-5-14.2-2.5-21.8-5.5c3.4,4.9,7.4,7.8,11.2,11
					c-4.6-0.4-8.7-3.7-13.9-2.1c1.9,2.6,4.7,3.5,7,4.9c1.9,1.2,2.4,2,0,3c-0.9,0.4-2.3,0.5-2.3,1.7c0.1,1.5,1.7,2.3,2.8,2.3
					c3.1-0.1,3.6,1.7,4.3,4.1c0.8,2.5-0.3,3.2-2.4,3c-2.2-0.2-4.3-0.5-6.5-0.1c-1,0.2-2.3-0.5-2.8,0.7c-0.5,1.2,0.9,1.7,1.5,2.4
					c0.3,0.4,0.8,0.6,1.6,1.1c-1.8,0.8-4.6-2.4-4.8,1.8c-0.1,1.2-2.4,0.1-3.7,0c-0.7,0-1.6-0.7-2.2,0.1c-0.8,1.1,0.5,1.5,1,2.2
					c1.4,2,3.8,2.7,5.5,4.3c0.7,0.7,1.9,1.2,1.4,2.5c-0.5,1.1-1.7,0.9-2.8,0.8c-1-0.1-2.1-0.2-3.1,0c-1.3,0.3-3.3-0.8-3.6,1.2
					c-0.3,1.6,1.5,2.3,2.7,3c1.8,1,3.7,1.7,5.9,2.7c-6.3,0.6-12.3,0.8-18.7,4.2c6.9,1.6,13.1,1.4,19.8,1c-1.5,2.3-3.4,2.3-4.9,3
					c-3.7,1.7-4.1,3.3-1.5,6.1c0.4,0.5,1,0.9,0.7,1.6c-0.4,0.8-1.1,0.9-2,0.9c-1.3,0.1-3.4-1.8-3.8-0.1c-0.4,1.8-1.3,4,0.1,5.9
					c0.7,1,0.6,1.9,0.4,2.8c-3.9-0.6-7.7-1.3-11.4-1.9c-1.9-0.3-2.5-0.1-1.8,2.2c1.4,4.3,3.9,7.8,7,11.1c-3.3-1.3-6.5-3.2-10.1-2.6
					c-1.1,0.2-3-0.6-3.1,1.3c-0.1,1.4-0.4,3,1.1,4.3c6.8,5.8,14.7,9.1,23.6,9.7c4,0.2,7.3,1.9,10.7,3.8c-7.5,0.3-14.9-1.7-22.7,0.6
					c4.4,5,9.8,7.1,16.1,7.4c1.3,0.1,3.8-1.4,4.1,1.7c0.1,0.6,0.9,0.3,1.2-0.1c2.5-3.1,6.9-3.3,9.7-6.7c0.3,2.8-1.4,4.2-2.7,5.3
					c-3.1,2.9,0,6.1-0.9,9.1c-0.2,0.7,1.6,0.9,2.6,0.3c1.8-1.1,3.5-2.1,5.3-3.2c2.7-1.7,1.8-4.3,1.1-6.3c-1.3-3.8,0.9-5.8,3-8.1
					c0.7-0.7,1.4-0.9,2.4-0.6c4.2,1.6,8.4,2.6,13,1.4c0.9-0.2,1.3,0.7,1.5,1.5c0.3,1.2-0.6,1.4-1.5,1.8c-3.3,1.4-6.2,3.5-10,4
					c2.6,1.9,4.9,3.7,8,3.4c2.6-0.2,4.2,0.8,4.9,3.6c-1.7,0.4-3.3,0.6-4.9,1.1c-0.8,0.2-1.9,0.5-1.8,1.7c0.1,1,1.2,0.8,1.8,1.1
					c1.2,0.4,2.6,0.4,3.4,2.2c-2.6-0.8-3.1,0.3-2.9,2.6c0.2,2.4,0.1,4.9-0.2,7.3c-0.3,2.4-1.4,3-3.7,1.6c-2.2-1.3-4.7-2.1-7-3.2
					c-0.9-0.4-1.8-0.3-2.5,0.4c-0.9,1-0.1,1.8,0.5,2.3c1.5,1.3,1.6,3.2,2.7,4.7c2.1,3.1,1.8,3.5-2,3.8c-1.4,0.1-2.9,0-4.2,0.3
					c-1.1,0.3-2.8,0-3.1,1.2c-0.3,1.4,1.1,2.5,2.2,3.3c1.1,0.8,2.8,0.9,3.6,2.1c0.5,0.7,2.5,1.1,0.1,2.6c-1.5,0.9,0.5,1.6,1.6,1.9
					c5.1,1.5,10.4,0.9,15.8,1.9c-1.1,1.2-3.4,0.1-4.2,1.9c0.5,1.1,1.7,0.9,2.3,0.6c5.8-2.1,10.8,2.1,16.3,1.9c0.3,0,1,0.3,1,0.5
					c0.7,6.5,6.8,2.6,9.9,5c2.1,1.6,5.3,1.6,8.8,2.6c-3.7,1.3-7.4,1.7-6.7,6.5c0.2,1.4-1.9,0.5-3,0.9c-2.9,1-5.5,3.3-9.1,1.9
					c-1.2-0.5-2.1,0.8-1.7,2.2c0.3,1.1,0.9,2.2,1.4,3.2c2.3,4.7,0.5,7.8-4.6,7.5c-0.4,0-0.8,0-1.2,0c-5.3,0.4-5.3,0.4-3.1,4.8
					c0.3,0.6,0.4,1.2,0.6,1.8c-1.2,1-4.2-0.3-3.5,1.2c1.4,2.9-5.4,4.2-0.8,6.9c1.7,1,3.8,1.6,5.3,3.3c-5,2.3-11,0-15.6,3.7
					c1.5,2.2,4.1,1.2,5.6,2.7c-0.2,0.9-1,0.6-1.6,0.9c-0.7,0.3-1.7,0.3-1.7,1.2c0,1.2,1.1,1.3,2,1.3c6.4,0.4,12.7,0.9,19.1,1.1
					c4.7,0.1,7.9-3.4,11.5-5.8c0.5-0.3,0.4-1.6,1.2-1.3c3.8,1.6,8.1,2.2,11.2,5.7c-2.2,0.9-4.9,0.4-5.8,2c-0.9,1.6,2,2.3,2.8,3.8
					c-1.5,0.6-2.5-0.6-3.6-1.1c-4.5-1.9-5.8-1.3-7.4,3.4c-0.2,0.5-0.6,1.2-0.8,1c-2.8-1.5-5,2.8-7.9,0.6c-0.7-0.5-1.8-0.5-2.5,0.4
					c-0.6,0.9-0.1,1.7,0.3,2.5c1.1,2,2.3,3.7,4.2,5c-2.1,2.9-4.8,3-7.9,2.3c-2.2-0.5-2.5,0.8-1.5,2.4c0.6,0.9,1.4,1.8,2.1,2.7
					c-1.4,1-2.7,0.1-4.1,0.7c3.8,2.3,9,2.3,12,6.9c-3.5,0.2-6.2-1.6-9-2.6c-2.9-1-5.7-1.6-8.7-1.8c-1.9-0.2-2.8,0.7-1.4,2.6
					c0.9,1.2,2,2.3,3.4,3c5.8,2.9,10.2,7.8,15.8,11c2.2,1.3,2,2.6,0.1,4.1c-4,3.2-5.7,7.6-6.5,12.4c-0.2,1.3-0.4,2.8,0.6,3.7
					c1.3,1,1.9-0.9,2.8-1.3c3.5-1.5,4.7-5,7-7.6c1-1.2,1.6-2.6,3.4-2.9c1.7,2.8,0.1,6.2,1.9,9c1.4,2.1,2.4,4.6,5.5,1.8
					c1.7-1.5,1.7,1.2,2.8,1.6c1.4,0.5,4.1,0.6,3.6,2.6c-0.3,1.6-2.9,1.2-4.5,1.5c-1.6,0.3-3.2,0.1-2.3,2.7c0.5,1.5-1.1,1.5-2.1,1.5
					c-1.8,0.1-3.6,0-5.4,0.2c5.4,1.9,12.3-1.8,16.4,4.8c-2.1-0.6-4.1,0.7-6.1,0.4c-2.8-0.5-3.2,3.1-5.9,3.1c-0.5,0,1,1.9,2,2.6
					c3.8,2.5,5.3,4.8,5.8,8.7c-3.9-0.4-3.8-6-7.9-6c-0.9,0.8-0.3,1.7-0.3,2.5c-0.1,2-1.1,2.6-2.8,1.7c-1.2-0.6-2.6-1.7-3.5-0.8
					c-1.2,1.2,0.2,2.9,0.6,4.3c0.3,1.1,1.7,1.6,1.6,3.1c-2.4,1-4-1.3-6.2-1.3c-1.1,0-2.4-0.7-3.1,0.8c-0.6,1.3,0.5,1.8,1.3,2.5
					c1,1,2.4,2.2,2.1,3.5c-0.3,1.4-2.2,0.7-3.4,1c-0.8,0.2-2-0.2-2.2,1.1c-0.1,1,0.7,1.7,1.5,2.1c3.3,1.6,6.4,3.4,10,4.2
					c1.9,0.4,3.8,0.8,5.6,1.4c3,1,3,1,0.5,3.6c1.2,0.2,2.2,0.4,3.5,0.7c-2.2,2.6-5.8,2.3-7.7,5.3c3,1.1,5.4-0.4,7.8-1.4
					c4-1.6,7.7-3.6,12.3-1.2c1.3,0.6,3.8-1,5.6-1.8c1-0.4,1.9-1.3,2.4,0.4c1.5,5.4,6.3,7.2,10.4,9.6c0.5,0.3,1,0.7,2.2,1.7
					c-8.2,0-15.6-2.3-23.4-0.1c2.8,4.1,7.1,5.4,11.2,6.9c2,0.7,4.4,1.2,6.5,0.8c3.8-0.8,5.3,2.4,7.8,3.7c0.2,0.1,0.4,0.5,0.4,0.6
					c-2.4,5.1,3.3,7,4.4,11.4c-4,0-7.8,0-11.6,0c-0.9,0-2.1-0.2-2.4,0.8c-0.4,1.4,1.1,1.5,2,1.9c3,1.3,5.4,2.5,7.3,5.9
					c2,3.6,6.5,5.9,9.9,8.7c1,0.8,2,1.4,1.3,3.1c-0.8,2.1-2.3,0.9-3.2,0.7c-4-0.9-7.8-2.1-11.4,1.6c-0.8,0.9-3.8-0.3-6.5-0.6
					c3.3,5.8,8.9,7.7,13.8,11.7c-5.9,0.2-11.2-3.7-16.6-0.5c3.4,4,8,4.9,12.9,6.3c-2.5,0.9-4.5,1.6-6.5,2.5
					c-1.3,0.6-2.1,1.4-1.5,3.4c0.6,2.1,1.7,1.4,2.9,1.3c8.1-0.4,16.2-1.2,23.9-4c1.3-0.5,2.2,0.4,2.8,1c-3.5,1.4-6.2,4.1-9.5,5.9
					c1.2,2.1,0.2,5.1,2.3,6.6c1.7,1.3,2.2,2.6,2.1,4.5c-0.3,4.2,1.4,7.8,3.5,11.3c0.5,0.9,1.1,1.9,2.4,1.7c1.4-0.2,1.5-1.3,1.6-2.3
					c0.3-2.3,0.6-4.6,0.9-6.9c0.1-1-0.5-2.7,1.3-2.7c1.6-0.1,3.4-0.3,4.9,0.8c1.4,1.1-0.2,2.1-0.1,3.1c0,1.3-2.9,5.4,2.2,2.9
					c0.5-0.3,1.1-0.2,1.3,0.4c0.1,0.4,0.1,1-0.1,1.5c-1.2,2.6-3.7,2.5-5.9,2.9c-1.1,0.2-2.7-0.2-3.1,1.1c-0.4,1.4,0.9,2.4,1.9,3.1
					c3.2,2.1,1.2,3.9-0.4,5.5c-0.6,0.6-1.2,0.7-0.8,1.7c1.9,5.6,4.2,10.9,10,13.7c-4.9,4.5-10.8,0.8-16,2.5
					c-0.7,0.2-1.7-0.3-2.1,0.6c-0.4,1.1,0.6,1.7,1.3,2.1c3.5,1.8,6.5,4.6,10.8,4.9c1.1,0.1,2.3,0.6,3.2,1.3c1,0.7,2.3,1.8,1.6,3.2
					c-0.6,1.3-2.1,1-3.1,0.7c-2-0.6-3.2,0.1-4.3,1.7c-0.4,0.6-0.6,1.3,0.1,1.6c4.8,2.3,5.4,9,11.6,10c-1.8,1.5-3.2,0.9-4.3,0.7
					c-4.6-0.9-9.3-0.8-13.9-0.1c-0.6,0.1-1.4-0.2-1.7,0.6c-0.3,0.8,0.3,1.5,0.9,2c2.3,2.2,5.3,3.3,8.1,4.5c2.6,1.1,5.3,2,8,2.9
					c1,0.4,2,0.9,2.1,2c0.2,1.7-1.3,1.2-2.1,1.6c-4.2,2.5-7.8,5.8-11.4,9c-0.5,0.4-1,0.9-0.7,1.6c0.3,0.8,1,0.7,1.7,0.6
					c2-0.3,4.1-0.4,6.1-1c2-0.6,2.7-0.3,3.1,1.9c0.3,2-0.3,5.3,2.4,5.5c2.5,0.2,2.5-3.1,3.7-4.9c1.4-2,1.6-4.6,3.2-6.6
					c1.4-1.7,2.6-2.1,3.2,0.3c0.5,2.2,2.1,2.8,3.7,3.6c2.6,1.4,4.2,1.1,4.5-2.2c0.1-0.7,0.7-1.4,0.9-2.1c0.4-1.5,1.6-1.1,2.5-1
					c0.9,0.1,2,0.4,2.2,1.3c0.3,1.2-0.7,1.8-1.6,2.3c-3.3,1.7-5.3,4.5-5.6,8.2c-0.1,1.4-0.9,1.7-1.9,1.9c-3.2,0.6-5.8,2.7-8.8,3.9
					c-0.5,0.2-1.1,0.2-1.1,0.9c-0.1,0.8,0.6,1.3,1.2,1.2c5.5-0.2,9.9,1.5,13.3,6.2c1,1.4,3.4,1.7,5.1,2.8c-6.7,0.9-13.5,0-20.5,1.9
					c2.4,2.6,5.2,3.4,8.1,3.8c5.1,0.8,10.3,0.9,15.5-0.1c2.7-0.5,4,1.4,6,2.5c-3.2,3.5-7.2,0.7-10.6,1.5c-1.2,0.3-2.8-0.2-4.2,0.1
					c-1.3,0.3-3.5-0.6-3.8,1c-0.2,1.6,1.5,3,3,3.7c2.3,1.1,4.7,2.3,7.2,2.7c2.9,0.5,2.5,1.6,1.3,3.2c-0.5,0.6-1.2,1.2-0.8,2
					c0.7,1.1,1.6,0.2,2.4,0c2.3-0.8,4.9-0.5,7.1-1.9c1.1-0.7,2.3,0,2.9,1.2c0.9,1.6-1.1,1-1.2,1.6c-2,5.3-6.8,2.9-10.8,3.8
					c5.6,7.3,14.8,6.3,21.8,10.7c-7.9-0.3-15.6-1.6-23.7,0.5c2.8,4.1,7.4,4.3,11.2,6c4.1,1.9,8.8-1,12.7,2.1
					c-2.9,3.7-7,4.3-11.2,4.8c-0.9,0.1-2-0.3-2.3,0.9c-0.3,1.1,0.7,1.5,1.3,2.2c2.8,3,6.8,2.9,10.2,4.5c1.6,0.7,4.2-0.2,4.2,2.9
					c0,3.3-0.1,7.2-3.6,8.2c-3.9,1.1-1.5,3.6-1.3,4.8c0.3,2.4,2.7,1.1,3.7,0.5c3.2-1.8,5.7-0.7,7.8,1.5c1.8,1.9,4.5,1.9,7.2,3.6
					c-8.7-0.1-16.8-1.9-25.4-0.1c4.3,4.6,9.3,6.8,14.9,7.4c3.6,0.4,3.8,1.7,2.3,4.4c-0.6,1-1.1,2.1-1.4,3.2c-0.4,1.4-2.5,4,1.7,2.7
					c1.6-0.5,2.1,1.8,3.5,2.2c8.1,2.3,13.8,8.5,20.4,13.1c1.3,0.9,3.2,1.1,4.1,2.7c-0.2,0.3-0.3,0.6-0.5,0.7
					c-1.1,0.6-3.3-0.7-3.5,1.4c-0.2,1.8,1.6,2.1,2.9,2.6c1.8,0.7,3.5,1.6,5.9,2.7c-5,0.7-6.9,2.9-4.6,7.3c-2.6,0.7-0.9,5.6-5,5.1
					c-1.1-0.1-2.4,0.7-3.6,1.2c-1.1,0.4-3.1,0.2-3.1,1.8c0,2,2.2,2.1,3.5,2.4c3.6,0.9,7.3,0.5,10.6-1.3c3.6-1.9,7.2-2.7,11.2-1.8
					c2.3,0.5,4.6-0.4,6.8-1.3c2.8-1.1,5.3-1,6.8,2.1c1.6,3.2,4.3,5.4,7.2,7.4c0.8,0.5,1.4,1.3,2.4,0.7c0.8-0.5,0.7-1.4,0.6-2.1
					c-0.6-5.5-2.2-10.4-8.2-12.9c4-1.8,7.5-3.3,10.9-5c1.2-0.6,3.2-1.4,2.7-3.4c-0.5-1.7-2.4-1.3-3.7-1.5c-1.5-0.2-3.1,0.2-4.6,0.4
					c-1,0.1-1.4-0.5-1.4-1.4c0-1.1,0.6-1.2,1.5-1c1,0.2,2,0.5,3.1,0.5c4.6,0.3,6.8-1.6,7.2-6c0.1-1.4-0.8-1.4-1.7-1.5
					c-2.2-0.2-4.3-0.9-6.7-0.4c1.1-2.8,2.5-5.2,6-4.8c0.9,0.1,1.6-0.1,1.9-0.9c1.7-4.5,4.9-8.1,8.1-12.3c-2.8-0.2-3.6,1.8-4.9,2.8
					c-0.9,0.7-1.6,2.1-2.9,1.4c-0.6-0.3-1-1.5-1.1-2.4c-0.1-1.4,1.4-2.1,2.3-2.2c3.1-0.6,5.9-2,8.8-3c0.8-0.3,1.8-0.5,2.3-1.8
					c-1.6-1-3.2-0.2-4.7,0c-1.4,0.1-2.9,0-2.9-1.7c0-4.1-2.4-7.5-3.5-11.2c-0.9-3,0.8-5.3,3.8-4.9c5.9,0.8,11.5,0.7,16-4.3
					c1.5-1.7,3.3,0,4.9,0.8c1.5,0.8,3.3,2.8,4.8,1c1.4-1.7-0.9-3.4-2-4.5c-2-2-4.2-3.9-5.1-6.7c-1.2-3.9-2.4-7.9-4.2-11.6
					c-0.8-1.6,0.8-1.5,1.4-1.4c2.3,0.2,4.6,0.1,6.3,2.2c0.8,1,1.9,1.7,2.9,2.6c1.9,1.6,3,0.8,3-1.3c0-4-1.2-7.7-4-10.9
					c4.5-1.8,8.9-3.8,13.5-5.4c3.7-1.3,4.2-2,2.5-5.6c-0.3-0.7-0.7-1.5-1.3-1.9c-3.3-2.1-4.7-4.4-1.1-7.5c0.2-0.2,0.5-0.9,0.4-1
					c-5.1-3.4,1.3-5.4,1.3-8.3c-0.2,2.1,0.3,4.1,0.9,6.1c0.8,2.5,2.3,4.2,4.9,4.2c2.8,0,2.2-2.8,2.9-4.4c0.9-1.9-0.1-4-0.2-6.4
					c3.1,1.3,6.1,1.8,9.4,1.7c1.2-0.1,2-0.2,2.4-1.4c0.4-1.3,0.3-2.2-0.9-3c-3.5-2.4-6.8-5.4-11.5-4.7c-1.7,0.3-2.6-0.5-3.3-1.9
					c-1.2-2.7-3.2-4.9-5.1-7.6c3.7-0.3,7.3,0,10.7-1.3c2.1-0.8,2.7-1.5,0.9-3.4c-2.7-2.9-4.4-6.6-7.8-9c-0.8-0.5-1.9-1.4-1.2-2.5
					c0.7-1.3,1.9-0.9,3.1-0.6c3.2,0.7,6.4,0.9,9.5-0.6c2.2-1.1,3.2-2.3,0.7-4.2c-2.4-1.9-4-5.1-8.1-4c4.3-2,7.7-4.3,10.3-8.2
					c1-1.5,3.8-2.9,6.3-1.3c1.7,1,3,0.5,3.7-1.3c0.7-1.8,1.9-2,3.6-1.8c5.6,0.6,10.9-1,16.1-2.9c2.3-0.9,2.2-2.1,0.9-3.3
					c-2.4-2.3-5.1-4.4-7.7-6.5c-1.4-1.1-2.5-1.8-0.6-3.7c2.3-2.4,1.7-3.4-1.9-4.1c-0.9-0.2-1.7-0.2-2.2-1.3
					c-1.3-3.4-1.4-3.4-4.7-2.9c4.4-4.2,1.7-12.3,9.8-14.8c-3.4-1.7-5.7-3.1-6.6-6.6c-1-3.7,0.7-5.3,2.8-7.2c2.2-1.8,4.2-1.1,6.3,0.6
					c3.1,2.4,6.4,4.4,10.3,5.3c0.9,0.2,1.7,0.9,2.5,0.1c1-0.9,0.4-1.9,0-2.9c-1.8-4.7-1.8-4.8,3.5-5c1,0,2.2,0.4,2.5-1
					c0.3-1.3-0.7-1.9-1.6-2.3c-2.4-1.2-4.8-2.6-7.4-3.2c-2.2-0.5-2.5-2.2-2.9-3.5c-0.4-1.4,1.5-1.8,2.5-2.6c1.5-1.1,5.1-1.3,4.4-2.9
					c-0.9-2.1-3.5,0.4-5.4,0.3c-0.1,0-0.3,0-0.7-0.1c-0.3-1.6,0.1-3.3,1.4-3.9c4.2-2,4.1-6.3,6-9.6c0.5-0.9,0.9-2.2-0.1-2.9
					c-1.2-0.8-1.8,0.5-2.5,1.2c-1,1-1.9,2-3.3,3.3c-0.9-4.4-2.2-3.5-4-0.9c-0.8,1.2-2,2-3.2,3.1c-0.9-1.8-1.5-3.6-2.6-5.1
					c-2.7-3.7-0.3-7.3,0.4-10.8c0.4-1.8,2.5-1.5,4-1.1c0.4,0.1,0.9,0.6,1.2,1c3.2,5.2,8.4,4.1,13.2,4.2c1.3,0,2.9,0.1,3.5-1.2
					c0.5-1.2-1.1-1.9-1.6-2.9c-0.7-1.4-2.2-1.7-3.5-2.4c-0.9-0.5-2.1-0.7-1.3-2.2c1.1-1.8,1.5,0.1,2.3,0.3c1,0.3,1.4,1.1,2,1.8
					c0.9,1,2.1,1.4,3,0.2c1.9-2.6,4.9-4.8,4.3-8.7c-0.3-1.9,1.1-1.2,2-1.3c2.5-0.2,3.9,2.4,6.4,2.5c1.1,0.1,2.3,1.8,3.4,0.2
					c0.9-1.4,1.3-3.1,0.1-4.7c-1.4-1.8-2.5-4-4.3-5.4c-2.7-2.1-2.2-5.7-4.4-8c-0.5-0.5,0.2-0.9,0.7-1.1c0.8-0.4,1.5-1.4,1.1-1.8
					c-2.2-2.1-0.9-4.2-0.3-6.3c0.3-1.1-1.5-2.6,0-3c1.9-0.4,3.9-1.8,5.9-0.4c0.7,0.5,1.1,1.4,2.3,0.8c7-3.2,14.8-4.8,21-9.7
					c0.9-0.7,2.4-0.9,1.7-2.5c-0.5-1.4-1.9-1.3-3-1.3c-7.5,0.1-16.6,3.3-20,12c-2.2-2.6-2.5-6-4.2-8.7c-0.6-0.9,0.1-4.7,3.1-5.6
					c1.8-0.6,3.8-1.6,2-3.9c-2.4-3.1,0.9-4.9,1.5-7.2c0.5-1.9,1.7-5.1,5.5-3.7c1.5,0.6,2.2-0.8,2-2.4c-0.3-1.4-0.7-2.8-1.7-3.9
					c-1.6-1.8-2.2-3.3,0.6-4.7c2-1,1.1-2.7-0.4-3.7c-0.9-0.7-2.1-1-3.1-1.5c-2-1-3.6-2.7-4.8-4.5c-2-3.1,2.7-2.7,2.9-5.5
					c-0.1-1-1.8,0.9-2.3-0.3c1.4-2.9,4.4-4.3,6.2-7.1c2.2-3.4,3.4-6.9,4.4-10.7c0.9-3.7,2.5-4.1,5.4-1.5c1.2,1.1,2.7,2.1,3.6,0.8
					c3-4,8.1-4.5,11.5-7.7c0.7-0.7,2.1-1,1.7-2.3c-0.3-1.1-1.5-0.9-2.3-0.9c-3.2,0-3.6-1.3-2.5-4c1-2.4,1.7-5,1.6-7.6
					c-0.2-3.7,2.9-5.9,4.1-8.9c0.6-1.4,2-3.1,0.9-4.3c-1.2-1.3-3.1-0.1-4.7,0.4c-1,0.3-1.9,0.9-2.8,1.3c-1.8,0.7-4.1-1.1-3.3-2.5
					c2.6-4.5,1.5-8.8-0.2-13.2c0.5-0.2,0.7-0.4,0.9-0.3c1.7,0.5,3.3,2.9,4.8,1.5c1.4-1.2-0.3-3.4-0.8-5c-0.9-2.7-2.5-5.3-3.9-8
					c2.6-0.9,5,0.6,7.7,0.6c5.6-0.2,9.9-4.4,15.4-4.2c-0.1,1.9-3.4,2.3-2.3,3.9c1.1,1.5,3.4,0.4,5.1,0c3.8-1,7.9-1.6,10.6-4.9
					c1.8-2.1,3.5-2.1,5.7-0.7c1.2,0.7,2.7,2.4,4.1,0.9c1.2-1.3,0.1-3.2-0.6-4.3c-1.9-2.8-3.4-5.8-6.9-7.5c-3.7-1.8-2.3-6-2-9.2
					c0.3-2.9,1.4-5.8,1.8-8.7c0.2-2,1.9-2.6,3.5-3.7c2.9-2,5.1-5.1,7.5-7.8c1.2-1.3,1.7-3.2,3.4-4.2c0.8-0.5,1.3-1.4,0.9-2.3
					c-0.6-1.2-1.6-0.5-2.4-0.1c-1.9,1-4.2,1-5.9,2.9c-0.1-0.7-0.1-1-0.1-1.2c0.3-1.9,2.6-4.3,0.6-5.6c-1.5-1-3.8,1-5.5,2
					c-3.6,2.2-6.2,5.7-10.5,7.8c0.9-4.1,3.2-7.5,2.3-11.5c-0.2-1-0.4-2-0.6-3c-0.6-2.7-2-2.8-4.8-0.4c2.4-3.8-0.6-6.7,0.6-10.1
					c0.8-2.5,1.6-2.2,3.1-1.4c6.9,3.5,14.6,3.4,22,4.6c0.8,0.1,1.7-0.2,1.9-1c0.2-1-0.9-1.1-1.4-1.5c-2.3-1.8-4.7-3.5-7-5.3
					c0.8-1.5,3.2-0.5,3-2.2c-0.1-1.8-2.1-1.1-3.2-1.5c-0.7-0.3-1.5-0.2-2.3-0.3c-1.7-0.4-3.9-1.2-3.7-2.7c0.2-2,2.3-0.5,3.6-0.6
					c3.1-0.3,6.3-0.6,8.8-2.6c2.4-1.9,5.1-3.3,7.9-3.7c7.1-0.9,12-6,18.1-8.9c0.7-0.3,1.1-0.7,1-1.4c-0.1-0.9-0.8-0.9-1.5-0.8
					c-6.9,1-14.1-0.1-20.2,4.8c-2.1,1.7-4.6,2.3-7.2,0.4c-1.1-0.8-2.5-1.2-4.2-1.2c2.9-3,3.9-5.2,3.3-9.6c-0.6-4.1-2.4-3.9-4.7-4.5
					c-2.8-0.7-2.6-3.3-1.9-4.7c2.2-4.4-0.5-4.9-3.6-5.6c-1.8-0.4-3.8-0.7-3.3-3.7c0.9-5.3,1.2-5.6,5.9-2.8c1.9,1.1,3.8,2,6,2.6
					c3.2,0.9,3.5-0.1,2.7-2.7c-1.2-3.9-4.2-5.8-7.9-7.1c-1.4-0.5-3.9-0.3-3.3-2.8c0.5-2.4,2.7-1.5,4.2-1.4c2.2,0.1,4.4,0,6.5-0.5
					c1.2-0.3,3-0.2,3.1-1.8c0.1-1.7-1.6-2.2-2.9-2.7c-2.4-0.9-4.9-1.6-7.4-2.4c1.5-3,3.9-4.2,6.7-5.1c1.1-0.3,2-0.9,2-2.1
					c0-1.3-1.2-2-2-2c-4.5-0.2-8.4-1.8-11.4-5.7c0.4-1,1.6-1.9,3.2-2.6c1.3-0.6,2.6-1.2,1.8-3.2c-0.4-1-0.8-2.4,1.3-2.1
					c0.4,0,1.2-0.7,1.1-0.8c-2.1-4.7,3.4-6.3,4.2-9.9c0.3-1.6,1.9-2.9,2.2-4.8c0.4-2.3,1.7-2.6,3.6-1c2.5,2.2,5.4,4,8.5,4.8
					c4.2,1.1,5.9-1.1,4.5-5.2c-1.8-5.4-4.2-10.3-9.9-12.8c5,2.1,9.7,4.7,15.2,3.7c4.5-0.8,8.9-1.3,13.3,0.4c0.9,0.3,1.9,0.2,2.5-0.6
					c0.7-0.9-0.2-1.6-0.8-2.3c-2.3-3.1-4.8-6-8-8.3c-1.4-1-3.2-2.2-3.7-4.4c8.3,2.4,16.6,2.2,24.8,0.7c1.1-0.2,2.7-0.2,3-1.5
					c0.4-1.6-1.4-1.5-2.3-2.1c-4.8-3.2-10.4-4.3-15.7-6.1c2.8-1,3.1-1,5.7,0.3c1.4,0.7,3,2.1,2.2-1.2c-0.3-1.2,1-0.9,1.6-1.1
					c2.6-0.8,4-3.1,5.9-4.9c0.4-0.4,0.8-0.8,0.5-1.3c-3.2-5.4-1.4-13.1-8-17c-1.2-0.7-3.7-2.6-0.6-4.6c0.3-0.2,0.4-1.1,0.1-1.5
					c-2-3.6,0.7-5.1,2.9-6.9c3.4-2.8,4.2-7.4,6.7-10.8c0.4-0.6,0.7-1.6-0.1-2.1c-0.7-0.4-1.5,0-2.1,0.6c-1.4,1.5-2.8,3.1-4.2,4.6
					c-0.9,1-1.9,2-3.1,0.4c-0.9-1.3-2.7-2.5-0.8-4.3c0.7-0.7,1.7-1.2,2.4-1.9c1.2-1.2,3-1.8,1.9-4.6c-0.9-2.1,0.5-4.5,3.6-3.6
					c3.8,1.1,7.8-0.4,11.5,0.9c0.6,0.2,1.3,0.2,1.7-0.5c0.6-1.2-0.5-1.8-1.1-2.2c-3.8-2.1-7.7-4.1-11.6-6.1
					c-0.9-0.4-2.3-0.2-2.6-1.3c-0.3-1,0.9-1.5,1.5-2c5.7-4.2,5.7-15.6,3.2-20.9c-0.4-0.8-0.8-1.7-1.9-1.6c-0.9,0.1-1.2,0.9-1.5,1.6
					c-0.8,1.9-1.6,3.8-2.6,6c-2.2-2.8,0.6-7.9-3.4-8.9c-3.6-0.9-4.7-5-8.6-5.2c3.3-0.6,6.6-0.9,9.4-0.9c5.3,0.1,9.1-2.9,13.6-4.1
					c1.9-0.5,3.5-2,5.7-2.3c0.8-0.1,1.6-0.5,1.6-1.4c-0.1-1.3-1.2-1.2-2-1.1c-6.3,0.7-13-1-18.9,2.5c-0.8,0.4-1.8,1-2.5,0.1
					c-0.8-0.9,0.3-1.7,0.6-2.4c1.4-2.9,3.7-5.2,4.9-8.3c1.1-2.9,1.8-5.6,1.4-8.6c-0.1-0.9-0.5-2-0.1-2.7c2.4-4-0.9-6.3-2.6-9
					c-1.4-2.1-3.3-1.7-3.8,0.7c-0.3,1.5-1.3,2.1-2.1,3.2c-0.9-1.2-0.4-2.6-0.7-3.7c-0.1-0.7-0.2-1.9-0.7-2.1
					c-5.6-2.4-6.4-8.8-10.4-12.5c-1.2-1.1-2.3-3.2-0.4-5.2c1.2-1.2,0.2-2.4-0.7-2.9c-2-1.2-2.9-3.1-3.9-5c-0.2-0.3-0.8-0.7-0.8-0.7
					c2.9-3.4-1.5-4.7-2-7.1c1.4-0.9,2.7-0.5,4.2,0.4c2.5,1.4,5.3,0.8,8,0.4c1.7-0.3,2.4-1.4,1.1-3.1c-0.7-0.9-2-1.9-0.6-2.9
					c1.2-0.8,3-1.6,4.3-1.3c1.6,0.4,0.5,2.2,0.4,3.4c-0.1,2-0.6,3.8-1.8,5.4c-0.7,1-0.9,2.3,0.2,3.1c1.1,0.8,1.9-0.1,2.6-0.9
					c2.2-2.5,4.9-4.7,6.5-7.6c0.8-1.4,2.4-1.6,2.9-3.3c0.4-1.4,1.4-0.1,1.9,0.5c1.4,1.7,3.1,3.1,3.8,5.3c0.3,1,1,1.9,2.3,1.6
					c1.4-0.3,1.3-1.8,1.2-2.5c-0.4-4.1-0.8-8.2-1.7-12.1c-0.4-1.8,0.2-2.2,1.4-2.4c1.8-0.3,3.6-0.6,5.4-0.4
					c9.7,1.2,17.6-2.8,24.2-9.2c3.7-3.6,4.5-9,2.5-14.2c-0.5-1.3-0.5-2.2-0.3-3.5c0.6-5.2-0.1-10.5-0.6-15.7
					c-0.1-0.7-0.3-1.4-1.1-1.4c-0.8-0.1-0.9,0.7-1.2,1.2c-2.2,3.9-3,8.4-4.7,12.6c-4.9-4.1,1.8-7.9-0.1-12.3
					c-1.1,1.3-2.5,1.3-3.8,1.5c-0.7,0.1-1.3,0.3-1.7-0.4c-0.5-0.7,0.1-1.2,0.6-1.6c0.1-0.1,0.3-0.2,0.3-0.2
					c-0.7-3.8-0.2-6.8,3.4-9.4c1.1-0.8-1.3-1.7-2.5-1.2c-2.5,1.2-5.3,1-7.9,1.9c-1.3,0.4-2.1-0.3-2.4-1.3c-0.3-1.1,0.6-1.4,1.5-1.7
					c5.9-2.2,11.4-4.9,15.4-10c0.6-0.8,1.3-1.1,2.3-1.3c1.1-0.3,2.7-0.7,2.2-2.1c-0.5-1.5-2.1-0.8-3.1-0.5
					c-5.1,1.2-10.2,2.6-15.3,3.9c-0.7,0.2-1.2,1.3-2,0.5c-0.6-0.6-0.7-1.6-0.1-2.2c1.9-2-0.4-2.5-1.2-3.2c-1.3-1-2.3,0.3-2.6,1.4
					c-0.6,2-2,2-3.7,2.1c0.2-2.5,0.7-4.6,1.7-6.6c3.5-6.6,4.6-13.7,4.4-21c-0.1-3.4,0.9-4.5,4.4-3.1c3.9,1.6,4.2,1.2,3.6-2.8
					c-0.2-1.1-0.5-2.3-0.5-3.4c0-0.7,0.2-1.5,0.4-2.3c2.8,0.1,4.3,3.9,7.6,2.8c0.6-0.2,1.6,0.6,1.9-0.6c0.2-0.9-0.5-2.4,1.2-2.3
					c1.3,0.1,1.2,1.8,1.9,2.7c0.2-0.2,0.5-0.3,0.5-0.4c-2-8.5,4.6-10.5,10-13.5c2.5-1.4,6.7-1.6,5.8-6.3c0-0.2,0.4-0.6,0.7-0.6
					c2-0.5,2.5-1.1,1.6-3.2c-0.7-1.5-0.7-2.4,0.8-3.2c4.4-2.2,7.7-5.9,12.1-8c0.4-0.2,0.8-0.6,1.9-1.5c-4.5,0.7-7.3,3.2-11.1,3.9
					c1.7-5.3,0.9-10.7,1.1-16.1c0-0.9,0.3-2.3-1-2.7c-1.3-0.4-1.9,0.8-2.2,1.7c-0.9,2.8-3.8,2.2-5.7,3.5c-0.2,0.2-1,0-1.1-0.1
					c-2.6-6-3-0.4-4.3,0.8c-0.2,0.2-0.4,0.4-0.6,0.4c-0.2,0.1-0.5,0-1,0c0.8-2.7,2.6-5.1,2.3-8c-0.2-1.6,0.1-3.6-1.5-4.6
					c-1.5-0.9-2.4,1.1-3.7,1.5c-0.7,0.2-1.3,0.8-1.9,1.2c-1-1.3,0.2-3.6-1.8-4.1c-2.4-0.5-0.7,2.8-2.6,3.1c-0.1,0-0.4-0.1-0.5-0.2
					c-1.1-1.8-1.7-4.4-4-4.3c-2.4,0.1-3.5,2.2-3.7,4.7c-0.1,0.9-1,2.2-2.2,1.5c-1.9-1.1,0.3-2.5,0.1-4c-2.5-0.3-4.9-1.1-6.2-3.6
					c-0.5-1-1.2-1.9-2.6-2c-0.9-0.1-2.4,0.4-2.4-1.2c0-0.5,0.7-1.1,1.1-1.5c1.1-1.1,1.8-0.2,2.5,0.6c0.2,0.3,0.6,0.4,0.9,0.7
					c0.8-0.8-0.1-1.5-0.2-2.2c-0.6-4.4-0.6-4.4,3.8-4.1c4,0.3,5.3-0.8,3.4-3.2c-2.7-3.6-0.1-5.3,1.6-7.6c2.2-3.1,4.1,0.1,5.6,0.6
					c2.9,0.9,3.7-2.1,3.7-2.3c-0.7-3.7,1.7-5.8,4.1-7.3c7-4.3,11.4-11.3,17.2-16.8c0.1-0.1,0-0.5,0-1.1c-2.7,0.5-5.2,1.5-7.5,2.7
					c-2.6,1.3-3.4,0.3-2.8-2.2c0.5-2.2,1.1-4.4,1.7-6.5c0.3-1,0.8-2.2-0.5-2.7c-1.2-0.5-2,0.5-2.3,1.5c-1.7,5.5-6.5,9.3-7.7,15
					c-0.6,2.7-3.5,2.1-5.2,3.7c1.5,0.8,4-0.9,3.8,0.6c-0.3,2.2,1.2,5.2-1.8,7.1c-2.1-3.9-4.1-7.8-6.2-11.5c-0.9-1.6-0.2-2,1.1-2.5
					c1.7-0.7,3.2-1.6,4.9-2.3c2.4-0.9,3.8-2.4,4.9-4.9c1.5-3.3,3.8-6.4,6.5-8.9c3.5-3.2,5.6-7.4,8-11.2c2.5-3.9-0.1-8.3-0.4-12.5
					c-0.1-1.2-1.8-1.4-2.4-0.3c-2.5,4.5-6.9,8.3-6.3,14.2c0.1,1.1-0.6,2.3,0.4,3.3c0.7,0.7,0.9,1.7-0.1,2.3
					c-1.4,0.7-1.8-0.6-2.2-1.5c-0.3-0.7-0.5-1.6-0.3-2.3c2-6.3-1.6-11.7-2.5-17.6c-0.1-1-0.3-2.4-1.6-2.3c-1.3,0.1-0.7,1.4-0.9,2.2
					c-0.7,2.7-1.9,5.4-1.7,8.6c-1.6-0.5-2.1-1.6-2.7-2.7c-1.4-2.6-2.7-5.3-4.5-7.7c-1.5-2-3.9-3.6,0.3-6.2c-5.5,1.6-7.1-2-9.2-4.8
					c-0.5-0.7-0.7-2-1.8-1.7c-1.1,0.3-1.1,1.7-1.2,2.6c-0.1,1,0,2.1,0.3,3.1c0.5,2.3-0.6,4.8-2.3,5c-1.7,0.2-3-2.1-3.2-4.3
					c-0.1-1.8-0.9-3.5-1.4-5.2c-0.9-2.8-2.4-5.1-3.9-7.5c-1-1.6-2.3-2.7-4-2.6c-1.8,0.2-1.8,2.3-2.4,3.6c-1.4,2.9-2.8,5-6.7,4.7
					c-4.1-0.3-6.3-1.6-6-5.9c0.1-1.3-0.1-2.8-1.7-3c-1.6-0.2-1.6,1.4-2,2.4c-0.1,0.2,0,0.6-0.2,0.7c-4.9,3.4-6.3,10-11.9,12.8
					c-1.4,0.7-1.5-0.2-1.9-0.8c-0.9-1.4-1.7-3.2-2.9-0.2c-0.8,1.8-2.1,0.9-3.3,0.3c-1.7-0.9-0.4-1.8,0.1-2.4
					c3.2-3.7,0.9-7.4,0.1-11.1c-0.3-1.2-1.9-2.5-2.4-1c-1,3-4.7,3.3-5.2,6.9c-4-8,2.8-10.6,6.8-14.4c-0.2-0.2-0.5-0.5-0.7-0.7
					c-1.7,0.7-3.5,1.2-5.1,2.1c-1.7,1-2.8,1.7-5.1,0.4c-3.6-2.1-3,1.9-3.9,3.9c-1.7-0.2-3.5-2.8-5.2,0.2c-0.3,0.6-1.4-0.5-1.4-1.3
					c-0.1-1.6-3.1-2.7-0.7-4.7c1.8-1.4,3.5-2.8,5.5-4.3c-2.2-1.3-3.3,0.4-4.7,0.8c-1.6,0.5-3.2,1.8-4.6,0.1c-1.6-1.9,0-3.3,1.2-4.7
					c0.1-0.2,0.2-0.5,0.3-0.8c-2-1.2-3.2-1.9-5.3,0.8c-1.1,1.5-3.1,2.7-4.1,4.6c-0.2,0.3-1.1,0.5-1.4,0.3c-1-0.5-0.3-1.3,0-2
					c2.3-5.1,1.6-11,4.7-15.9c0.4-0.7,0.3-1.6-0.5-2.1c-0.9-0.5-1.4,0.2-1.9,0.8c-2,2-2,5.2-4,7.1c-3.1,3-4.1,6.9-4.9,11
					c-7-6.3-7.7-15-1.9-23.1c0.8-1.1,1.9-2.1,0.7-3.4c-1-1.1-2.2-0.2-3.1,0.5c-1,0.7-1.7,0.9-2.8,0c-1.1-0.9-1.7-2-1.3-3.4
					c0.6-2,1.3-3.9,1.9-5.9c0.3-0.8,1.1-1.5,0.4-2.5c-0.9-1-1.9-0.4-2.9-0.2c-1.7,0.4-3.3,2.6-4.6,1.7c-1.5-1-0.1-3.4-0.4-5.1
					c-0.5-3.9-0.7-7.8-3.5-10.8c-0.6-0.6-0.9-1.8-1.9-1.7c-1.1,0.1-1,1.4-1.3,2.2c-1.4,4-1.8,8.3-2.2,12.5c-0.1,1.8-0.3,3.6-0.9,5.3
					c-1.2,0.2-1.4-0.7-1.5-1.3c-1-5.1-5.1-8.3-7.5-12.6c-0.8-1.4-2.5,0.5-3.9,0.6c-1.3,0-1.2,0.9-0.9,1.9c1,3.1-1.4,4.1-3.4,5
					c-0.5,0.2-1.3,0-1.8-0.3c-0.6-0.5-0.2-1.2,0.2-1.7c4.6-5.3,4.4-11.8,4.5-18.1c0-1.5,1.8-6.8-3.8-3.9c-0.7,0.4-1-0.9-1.5-1.5
					c-2.2-2.5-2.8-6.1-6-8.1c-1.1,2-0.9,3.8-0.8,5.7c0.1,1.6-0.5,2.7-2.2,1.3c-2-1.7-4.4-2.2-6.8-2.7c-1-0.2-2.2-1.7-3.1-0.4
					c-0.7,0.9,0.1,2.2,0.3,3.4c0.4,2,2.3,3.5,1.8,5.9c-2.8,0.4-6.7-4.2-9.2,2C144.3-559.2,141.4-563.3,140.6-558.9
					c1.7,5.5,6.7,8.1,11.1,11.5c-3.7,0.6-5.1-3.1-8-3c-0.6,1.4,1.2,1.9,0.6,3.2c-1.3,0-2.7,0-4.1,0c-2.2,0-2.8-0.6-1.5-2.8
					C140.3-552.6,140.8-555.7,140.6-558.9z M-200.5,62.4c-5.1,0.7-9.4,1.3-13.8,2c0.5-2.5,2.6-2.7,4.1-3.5c1.1-0.6,2.8-0.8,2.8-2.3
					c0-2-2.2-1.1-3.3-1.9c8.2-2.6,18.8-3.2,20.8-0.8c-4.7-1.9-8.4,1.1-12.5,2.1c-0.7,0.2-1.7,0.1-1.9,1.1c-0.2,0.9,0.5,1.4,1.2,1.8
					C-202.4,61.3-201.8,61.6-200.5,62.4z M227.9,9.4c-1.2-3.3-2.2-6-3.3-9.1c2.8,0,4.8-2.8,8.2-1.7c2.2,0.7,2.4,1.1,1.6,3
					C233.1,4.8,230.3,6.5,227.9,9.4z M98.1,434.4c0.3-1,1.1-1.7,2-1c3.8,2.8,3.7-0.6,4.6-2.6c0.4-1,0-3.2,2.5-2
					c1.9,0.9,2.6,1.5,1.8,3.7c-0.7,1.9-2.2,3.2-3,4.9c-0.6,1.2-1.2,3.3-2.9,2.3C101.1,438.5,98.8,437.2,98.1,434.4z M-277.8-418.7
					c-6.5-0.5-12.8-1.9-19.3-0.9c-0.7,0.1-1.7,0.1-1.9-0.9c-0.1-0.4,0.5-1.2,0.7-1.2c1.8,0.4,2.9-1.3,4.6-1.3
					C-288-423.1-282.4-423-277.8-418.7z M78.9,543.7c-5.2-0.2-9.6,2.1-14.2,3.8c-1.8,0.7-3.3,0.1-4.9-0.2c-0.6-0.1-1.4-0.3-1.2-1.2
					c0.2-0.9,1-0.9,1.5-0.6c3.3,1.6,5.6-0.4,8-2.2C72.8,539.6,73.6,539.6,78.9,543.7z"/>
			</g>
		</g>
	</g>
</symbol>
<symbol  id="New_Symbol_1" viewBox="-363.5 -660.9 727 1321.8">
	<use xlink:href="#Deleted_Symbol"  width="727" height="1321.8" x="-363.5" y="-660.9" style="overflow:visible;"/>
</symbol>
<use xlink:href="#New_Symbol_1"  width="727" height="1321.8" x="-363.5" y="-660.9" transform="matrix(1 0 0 -1 1207.1682 618.2759)" style="overflow:visible;"/>
<g>
	<g>
		<g>
			<path d="M230,1442c-76,0-151.9,0-227.9,0c0-479.8,0-959.5,0-1440C192.7,2,383.3,2,574,2c-1.8,2.7-3.3,5.5-5.3,7.9
				c-12.3,15.1-26.2,29-36.6,45.3c-19.1,29.8-36.2,60.9-53.7,91.7c-2.4,4.2-2,9.9-2.9,14.9c-20,15.5-27.6,37.5-30,62.4
				c2.3-0.6,4.8-1.7,5-3.1c1.8-10.3,6.8-16.7,17.9-17.5c1.7-0.1,3.4-3.7,4.7-5.9c4.3-7.5,8.5-15,12.7-22.6c-0.1-0.4-0.1-0.6,0-0.7
				c1.5-0.7,3.2-1.1,4.4-2c4.2-3.2,12.1-7.7,11.5-9.9c-2.1-8.2-2-14.5,4.9-20c0.4-0.3,0.5-1.3,0.4-1.9c-0.8-4.4-1.6-8.8-2.4-13
				c-0.8,0.9-2.3,2.6-3.8,4.4c1.4-16.7,16.2-24.3,23.2-37c-0.7-0.4-2.1-1.1-3.7-2c5.7-6.9,8.1-15.8,16.3-20.5
				c3.2-1.8,6.2-4.5,8.4-7.4c3.9-5,6.1-13.6,10.9-15.2c9.1-3.1,10.7-10.9,15.2-16.8c2.6-3.5,4.6-7.5,7.8-12.8
				c0.9,3.9,1.2,5.4,2.2,9.7c4-7.7,5.8-13.8,9.7-17.9c4-4.3,10.1-6.7,15.2-9.9c34,0,68,0,102,0c-5.7,4.9-11.5,9.8-17.2,14.7
				c7.1-2.4,13.4-6,19.7-9.7c2.6-1.5,5-3.4,7.6-5.1c614.7,0,1229.3,0,1844,0c0,58.7,0,117.3,0,176c-8.9,4.3-17.9,8.6-26.8,12.9
				c-27.8,13.4-50.6,33.9-74.6,52.8c-12.5,9.9-22.7,26.7-43.2,17.1c-0.2-0.1-0.9,0.8-1.4,1.3c1.5,12.2,1.5,12.1-10.6,16.3
				c-2.4,0.9-4.6,2.7-6.7,4.2c-17.6,13-34.8,26.7-56.7,32.3c-2.4,0.6-4.6,2.7-6.5,4.4c-15.9,14.6-31.3,29.8-47.8,43.7
				c-14.4,12.1-29.9,23.2-45.3,34c-13.5,9.4-27.8,17.7-41.6,26.8c-16.9,11.2-33.1,23.4-50.5,33.7c-15.6,9.2-32.7,16.1-48.7,24.7
				c-7.2,3.9-13.3,10-20.2,14.5c-22.8,15-45.6,29.8-68.5,44.5c-35.5,22.7-71.2,45.1-106.7,67.9c-6.6,4.3-10.7,3.7-13.6-4
				c-2.7-7.1-7.8-9.5-15.6-5.3c1.4,2.6,2.7,5,3,5.6c-4.6,4.7-7.4,9.2-11.5,11.6c-8.5,5-14.1,15.4-26,14.5c-1.1-0.1-2.3,2.9-3.8,4.2
				c-2.6,2.2-5.1,4.7-8.2,6c-4.2,1.8-8.9,2.6-13.4,3.8c-3.9,1.2-7.7,2.4-12.3,3.8c0.1,1,0.2,2.8,0.3,4.7c-5.8,4.2-15.6,3.6-18.1,13
				c6.7-1.9,12.3-3.4,17.9-5c-17.8,10.8-35.5,21.6-53.4,32.3c-6.1,3.6-8.3,7.8-3,15.4c-8.6,4.2-17,8.1-25.3,12.3
				c-1.7,0.9-3.6,2.1-4.7,3.6c-6.8,9.9-16.4,15-28,17.2c-5.3,1-10.4,2.4-9.2,10.2c0.3,2.1-3.2,5.7-5.7,7c-9.4,5-19.2,9.1-28.8,13.8
				c-11.5,5.7-23.4,10.9-34.2,17.7c-13,8.2-25,18-37.6,26.8c-5.2,3.6-11.1,6.1-16.3,9.7c-12.4,8.5-24,18.1-36.8,25.8
				c-25.7,15.3-53.9,26-76.5,47.1c-5.9,5.5-13.9,10.8-20.9,16.3c-17,13.2-33.8,26.6-51,39.6c-20.9,15.7-42,31.3-63.2,46.5
				c-17.4,12.5-36.1,23.4-52.8,36.7c-16.5,13.1-32.3,26.6-53,32.8c-4,1.2-7.7,3.9-11.2,6.4c-22.5,15.5-44.9,31.4-67.6,46.6
				c-20.6,13.9-41.7,27.2-62.6,40.8c-16.1,10.5-32.3,20.9-48.5,31.3c-16.2,10.4-33,20-48.5,31.3c-14.7,10.7-27.5,24-42.1,34.8
				c-24.9,18.2-50.7,35.3-76.1,53c-7.6,5.3-15,10.8-22.6,16.3c-5.6-9.3-11.8-4.9-34.6,11.2c4.4,7.2,2.1,11.7-5.9,14.7
				c-5.2,1.9-9.5,5.8-14.5,8.4c-7.1,3.6-14.4,6.7-18.7,8.7c-5.5,0.3-8.9-0.5-11.1,0.8c-3.9,2.3-7,6.1-10.8,8.7
				c-17.4,11.9-35.3,23.3-52.4,35.6c-8.4,6.1-15.5,13.9-23.1,20.9c-101.3,0-202.7,0-304,0c-6.9-13.9-13.6-27.8-20.6-41.7
				c-7.9-15.7-15.8-31.4-23.9-47c-2.4-4.7-4.4-9.9-8.1-13.5c-16.9-16.4-35.6-31.1-51-48.7c-16.8-19.1-30.9-40.5-45.6-61.3
				c-6.9-9.7-11.5-21-18.7-30.5c-12.9-17.1-26.8-33.4-40.6-49.9c-8.5-10.1-17.6-19.7-26.2-29.8c-9-10.5-18.1-21-26.3-32.1
				c-5.7-7.7-9.5-16.8-15.2-24.5c-12-16.6-30.4-18.9-49-19.9c-1.8-0.1-4.8,1.5-5.4,3.1c-2.2,5.2-4.9,10.7-5.1,16.1
				c-0.2,5.2,0.7,12.4,4,15.5c13.7,12.7,20.2,29.4,28,45.4c6.9,14.3,11.8,29.6,19.9,43.1c8.3,13.9,19.3,26,29.1,39
				c1.4,1.8,2.3,4,3.2,6.1c6.1,13.9,12.2,27.9,18,41.9c4.5,10.9,11.1,19.5,22.1,24.6c2.6,1.2,5.2,3.5,6.5,5.9
				c9,17.4,19.2,34,23.4,53.8c1.9,9.1,8.5,17.6,14.3,25.3c9.9,13.2,22.3,24.7,30.9,38.6C221.2,1414,224.7,1428.5,230,1442z
				 M547.7,143.7c-6.2,1-11.8,2.8-18.7,2.4c-6.8-0.4-14.1,7.4-21.1,11.6c6.2-0.6,12-5.1,16.8-4.1c10.8,2.1,17.8-0.9,22.8-10.1
				c8.4,5.9,17.1-2,19.2-18.8c-4.7,1.2-8.8,2.2-15.4,3.9c5.3,3.3,7.7,4.8,10.5,6.5c-2.3,1.7-4.2,3.3-6.4,4.6
				C553,141.2,550.3,142.4,547.7,143.7z M794.1,82.2c-4-0.6-8-1.2-13.1-1.9c4.1-2.8,6.8-4.6,11.7-7.8c-10-2.1-17-3.6-24.1-5.1
				c0.4,1.1,0.9,2.2,1.3,3.3c-2.5,2.1-5.1,4.1-7.6,6.2c0.6-1.1,1.2-2.1,2.1-3.8c-10.3,1.5-19.7,2.8-29.2,4c1.2-2.5,2.4-5,3.7-7.7
				c-11.9-9.9-16.1,5.6-24.4,7.3c3.5,0.5,6.4-0.8,9.3-2.1c4.5-2,8.8-3.3,11.6,2.6c-3.3,0-6.7,0-10,0c0,0.9,0,1.8,0,2.7
				c2.3,0.2,4.5,0.4,6.8,0.5c-3.3,3.9-6.3,7.4-9.3,10.9c0.3,0.2,0.5,0.5,0.8,0.7c6.5-3.8,13-7.6,19.4-11.4c0.3,0.7,0.7,1.3,1,2
				c-3.4,3.6-6.9,7.2-10.3,10.9c-7.3,4.6-14.6,9.2-24.3,15.4c4.8,1.1,6.9,2.2,7.6,1.7c4.3-3.4,8.4-7.1,12.3-10.9
				c1.7-1.8,2.7-4.2,4.1-6.4c3.2,1.3,6.6,4.2,9.5,3.7c4.9-0.9,9.4-3.9,16.7-7.2c-5.7-1.6-8.2-2.4-11.7-3.4c5.1-3.5,9.6-6.6,14.2-9.6
				c4.7,0,9.4,0,14.3,0c1,5,11.6,10.6,16.9,7.8c0.4-0.2,0.2-1.9,0.2-2.9c7.6-3.5,15.2-7.1,25-11.7C808.9,68,797.2,74.9,794.1,82.2z
				 M764.1,145.9c0.7,1.6,1.4,3.3,1.9,4.4c-4.3,2.7-8.5,5.4-12.7,8.1c0.5,0.9,1,1.7,1.5,2.6c6.5-3.2,12.9-6.3,21.5-10.6
				c-5.4-1.9-8.9-3.1-12.4-4.3c-2.4-1.1-5.6-3.7-7.1-3c-9.4,4.7-18.5,10.2-27.8,15.5c3.5,1.9,6.9,3.7,11.5,6.2
				c-3.8,1.7-6.1,2.7-8.4,3.8c6.1,1.2,12.6,2.6,9.4-7.2c-0.4-1.2,0.3-3.7,1.3-4.3C749.9,153.2,757,149.6,764.1,145.9z M584.9,1043.6
				c-3.4,19.2-6.8,38.5-10.3,58.4c1.5,0.1,4.2,0.6,4.3,0.3c2.3-7.2,4.3-14.5,6.3-21.8c0.6-2.3,0.1-5.9,1.6-6.9c8-5.8,5.6-10-1.7-14
				c2.2-3.7,4.1-6.9,5.5-9.2c5.6,3,10.8,5.8,16,8.6c0.6-1,1.1-1.9,1.7-2.9c-1.2-0.9-2.4-1.8-3.5-2.7c1.6-0.9,3.3-1.9,4.7-2.7
				c-2.1-4.3-3.9-8-5.8-11.7c-0.6,0.2-1.2,0.3-1.8,0.5c0,3.6,0,7.1,0,8.7c-5.8-1.8-11.1-3.5-16.4-5.1c0.6-1.8,0.6-4.4,1.8-5.4
				c14-11,15.6-20.6,5.1-36c-5.2,10.3-10,19.8-4.5,31.6c-1.7-1-3.3-2-6.2-3.6C582.3,1035.2,575.1,1041,584.9,1043.6z M656.6,972
				c-8-3.7-6.9-10.8-7.7-20.1c3,4.6,4.6,7.1,7.8,12.1c6.5-16.1,17.5-16.3,31.2-8.7c-3.1-7-5.1-11.5-7.1-16c1.4-1,3-2.3,5.1-3.8
				c-8.9-4.7-17.1-8.8-25-13.5c-10.7-6.4-13.9-5.8-21.2,4.3c-2.1,2.9-5.3,5-7.8,7.5c-8.7,8.5-17.6,16.8-25.7,25.9
				c-2,2.2-1.4,6.8-2.2,11.9c7.8-5.3,12.8-8.7,17.8-12.1c0.8,0.8,1.6,1.5,2.4,2.3c-0.6,2-1.1,5.7-1.7,5.6c-15.3-0.3-6.6,10-8.9,15.4
				c0.9,0.6,1.7,1.3,2.6,1.9c7.4-6.2,14.7-12.4,22.7-19.1c0.7,3.9,1.2,6.6,1.3,7.3c4.2,0.6,7.2,1.4,10.2,1.3
				C652.5,974.1,654.5,972.8,656.6,972c6.6,4.3,10.7-0.6,14.3-4.7c0.6-0.6-3.2-5-3.9-6.2C662.7,965.6,659.6,968.8,656.6,972z
				 M639.2,483.3c-5.4,0.6-10.7,1.2-16.1,1.8c0.2,1,0.4,2,0.5,2.9c15.3,0.4,29.8-4.2,43.3-10.8c34.7-16.9,68.9-34.7,103.3-52
				c15.6-7.8,31.3-15.3,47.4-23.2c-6.9-6.8-6.5-12.4,1.3-16.6c9.6-5.1,19.6-9.6,29.7-13.9c7.3-3.1,15-5.2,22.5-7.8
				c-1.7-1.2-3-1.1-4.2-0.8c-40.1,10.5-77.6,27.1-113.9,46.7c-25.7,13.9-51.7,27.2-77.4,40.9c-6,3.2-11.7,6.9-17.5,10.4
				c-20.5,3.5-40.4,11.6-61.8,8.9c-4.5-0.6-9-0.1-14.1-0.1c2.8,4,4.3,8.3,7.3,10c6.6,3.8,13.8,8.3,21,8.6c5.8,0.2,12.2-4.7,17.7-8.5
				C634,475.9,636.9,477.6,639.2,483.3z M897,559.1c-7.3,6.1-14.5,12.1-21.8,18.2c5.1-1.2,9.2-5.1,13.4-5.3
				c3.8-0.2,7.7,3.8,12.3,6.4c1.8-4.3,3.9-9.3,5.9-14.2c-0.9-0.5-1.8-0.9-2.7-1.4c2.6-1.9,5.2-3.8,7.8-5.7c-0.2-0.4-0.5-0.8-0.7-1.2
				c-4.8,1.1-9.7,2.3-14.5,3.4c0-4,0.7-8.1-0.1-11.9c-2.9-12.9,1.8-20.1,20.5-30.6c15.6-8.7,15.6-8.7,24.9,6c0.3,0.5,1.1,0.6,3,1.4
				c6.1-4.4,12.8-9.1,19.3-14.2c1.2-1,2.4-3.8,1.8-5c-2.8-6.4,2-9.2,5.5-12.3c12.5-11.2,11.2-17.6,5.9-29.3
				c-9.1-20.2-20.6-39.4-31.6-58.7c-2.2-3.9-6.7-6.5-9.8-9.3c-3.1,5-5.3,8.6-7.5,12.2c5.4,11.7,10.3,24.5,17.1,36.1
				c6.7,11.5,15.4,21.8,23.9,33.5c-1.1,0.9-3.3,3.4-6.1,4.9c-10.7,5.9-20.3,1.3-30.2-3c-2.2-0.9-5.6-0.7-7.7,0.5
				c-1.5,0.8-2.5,4.3-2.1,6.3c3.2,16.6-3,30.4-22.9,34.7c1.9-5.1,3.4-9.4,5.1-14c-8.5,0-16.8,0-23.5,0c7.6-5.3,17.4-12.2,27.2-19
				c-0.3-0.6-0.6-1.3-0.9-1.9c-2.8,0-5.7,0-9,0c3-3.8,5.3-6.8,7.7-9.9c-0.6-0.9-1.3-1.8-1.9-2.7c-42.4,33.6-94.2,36.5-144.3,45.3
				c34.1,17.9,67.7,5.7,100.6-0.8c2,7.6,3.6,15.1,5.9,22.3c2.3,7.3,0,11.7-6.3,15.7c-18.8,11.8-37.3,24.2-55.8,36.4
				c-1,0.7-1.7,1.9-2.5,2.9c12.1,9.2,28.4,9.5,39.4,1.1C859.9,582.6,875.9,566.9,897,559.1z M564.9,430.2c1.4,9.7,6.5,14.9,15,16.1
				c5,0.7,10.2-0.5,15.3-0.2c30.6,1.6,57.9-10.3,84.4-23c36.2-17.3,71.1-37.2,106.9-55.2c15.7-7.9,32.2-14.2,48.6-20.4
				c14.4-5.4,29.2-9.7,43.8-14.5c-0.3-1-0.6-1.9-0.9-2.9c-18.6,6-37.2,12-54.1,17.5c7.3-6.4,15.5-13.7,23.7-21
				c-0.6-0.7-1.1-1.5-1.7-2.2c-9.9,2.8-19.7,5.6-29.6,8.2c-5,1.3-10.6,0.8-15,3.1c-21.2,11.1-41.9,23.2-63.1,34.3
				c-31.1,16.2-62,33.2-94.1,47.4c-23.3,10.3-48.3,17.6-74.7,12.3C568.2,429.4,566.8,429.9,564.9,430.2z M572.3,369.3
				c23.1-2.2,44.7-9.4,65.2-20.1c33.9-17.6,67.8-35.4,101.9-52.7c21.1-10.6,42.6-20.2,63.9-30.4c3.7-1.8,8.3-4.4,3.8-8.7
				c-5.5-5.4-11.3-11.4-20.8-6.3c-22,11.7-43.9,23.6-66.4,34.1c-51.7,24.1-98.4,60.6-158.1,65.8c-2.5,0.2-5.2,6.8-6.1,10.9
				c-0.3,1.6,4,4.9,6.8,6.1C565.3,369.1,568.9,368.9,572.3,369.3z M827.7,287.2c-0.5-0.9-1.1-1.8-1.6-2.8
				c-17.9,7.3-36.4,13.6-53.6,22.3c-40.4,20.2-80.2,41.7-120.4,62.2c-23.2,11.8-46.9,22.1-73.8,21.8c-6.2-0.1-12.3,1-18.8,1.6
				c0,3.4,0,6.2,0,7.9c3.4,0.2,6.5-0.4,8.9,0.6c12.9,5.3,26,8.9,39.7,3.9c20.2-7.4,40.9-14,60.2-23.3c30-14.5,58.9-31.4,88.7-46.6
				c27.5-14,55.3-27.4,85.3-35.6c3.3-0.9,6.3-2.8,9.4-4.2c-0.4-0.8-0.7-1.5-1.1-2.3c-9,2.8-17.9,5.6-28,8.8
				C824.5,295.7,826.1,291.5,827.7,287.2z M847.3,559.6c-5.3-8-10.6-15.6-21.9-10.6c-6.7,2.9-13.2,6.6-20,9.3
				c-17.6,7-35.2,14.6-54.9,8.3c-1-0.3-2.3,0.2-3.5,0.3c-0.3,0.9-0.6,1.9-1,2.8c8.8,3.6,17.6,7.2,26.4,10.8c0.9,0.4,1.9,0.8,2.4,1.5
				c4.5,6.1,18.3,10.7,24.8,7C815.6,579.7,831.1,569.6,847.3,559.6z M1001.8,454c1.3,3,2,5.5,3.4,7.5c8.3,11.5,10.1,24.4,8.2,38
				c-1.8,13,0.6,25,6.5,36.7c2.2,4.4,3.7,9.1,5.4,13.4c2.4-3,4.6-6.8,7.7-9.4c9.3-7.7,9.4-10.9-0.3-17.9
				c-15.4-11.1-18.6-24-9.9-40.3c0.5-0.9,1.2-2.3,0.8-3C1018.9,468.8,1015.7,457.4,1001.8,454z M747.7,259.5
				c-0.9,0.8-2.6,2.5-4.4,4.2c0.4,0.7,0.9,1.5,1.3,2.2c13.7-6.2,27.3-12.4,42.1-19c-31.8-18.8-31.8-18.8-44.3-3.7
				c1.2,0.9,2.4,1.9,4.1,3.1c-3,1.1-5,1.8-9.2,3.3C741.4,253.5,744.4,256.4,747.7,259.5z M639,149.4c0.3,0.9,0.7,1.8,1,2.7
				c8.4-11.9,22.2-5.5,33.3-13c8.6-5.7,23.5,3,33.5-7.1c-13.5,0.8-26.6,3.5-39.8,5.4c-5.6,0.8-11.6,0.8-17.1-0.5
				c-4.4-1-8.2-4.5-12.3-6.9c-0.5,1.1-1.1,2.1-1.6,3.2c2.9,1.3,5.7,2.6,9.3,4.2C643.2,141.6,641.1,145.5,639,149.4z M740.2,564.9
				c-1-13.8-7.8-19.9-16.8-24.3c-3.8,2.5-7.1,4.7-11.5,7.7C721.2,553.7,729.6,558.7,740.2,564.9z M846.5,391.9
				c13.1-4,26.1-8.5,39.3-11.8c13.6-3.4,27.5-5.6,43.6-8.8C898.1,368.9,872.2,380.2,846.5,391.9z M628.3,1000.8c3.9-3.2,6.3-5,7.5-6
				c4,4.1,7.3,7.6,10.7,11.1c0.9-0.8,1.9-1.6,2.8-2.3c-3.4-5.4-6.9-10.8-10.4-16.4c-5.5,3.4-23.1-6.5-17,16
				c3.6-4.9,6.1-8.4,8.7-11.9c0.7,0.6,1.4,1.3,2.1,1.9C631.5,995,630.4,997,628.3,1000.8z M753.3,68.7c6.5-1.7,12.7-3.8,19-4.7
				c5.7-0.8,11.6-0.1,17.4-0.3c0.7,0,1.9-1.8,2-2.8c0-0.9-1.4-2.8-1.9-2.7C777.2,60.3,762.1,52.7,753.3,68.7z M715,156.5
				c9.5-3.6,18.5-7.1,27.6-10.5c-0.1-1-0.2-2.1-0.3-3.1c-7.4-0.7-14.8-1.4-22.2-2c-0.3,0.9-0.6,1.7-0.9,2.6
				C727.7,151.6,714.7,150.5,715,156.5z M792.9,287.7c-0.7-1.2-1.3-2.3-2-3.5c-13.2,6.7-26.3,13.4-39.5,20.1
				c0.6,1.1,1.2,2.2,1.8,3.3C766.4,301,779.6,294.3,792.9,287.7z M634.4,137.7c-10.1-4.2-25.8,0.9-30.5,9.6c4.2-0.2,9.2-9,11.7,0.1
				C621.8,144.2,627.9,141.1,634.4,137.7z M575.6,1108.5c-1.3-0.5-2.6-0.9-3.9-1.4c-2.9,7.2-5.8,14.4-8.7,21.7
				c1.1,0.4,2.1,0.9,3.2,1.3C566.4,1121.6,583.8,1120.6,575.6,1108.5z M1052.7,536.4c-12.4,4.6-14.5,9.5-9.7,19.9
				C1046.5,549.1,1049.6,542.8,1052.7,536.4z M528.3,1383.6c0.3,1.6,0.7,3.2,1,4.8c8.5-4.2,19.5-0.4,26.4-9.5
				C546.6,1380.5,537.4,1382,528.3,1383.6z M928.1,1189.3c-12.9,1.4-13,10.6-15.7,17.9c0.9,0.6,1.8,1.3,2.7,1.9
				C919.1,1202.9,923.2,1196.8,928.1,1189.3z M1508,54.2c-2.5,1.8-5.3,3.8-8.1,5.8c0.3,0.4,0.6,0.8,0.9,1.2c2.2-0.9,4.5-1.8,4.3-1.8
				c5.9,5.8,10.6,10.3,15.2,14.9c0.4-0.4,0.8-0.8,1.2-1.2C1517.5,67.4,1513.4,61.7,1508,54.2z M609.3,129.2c3.8,0.2,6.8,0.9,9.6,0.5
				c3.4-0.6,6.8-2,10-3.3c1.9-0.8,3.6-2.1,5.2-3.4c0.2-0.2-0.6-2.5-0.9-2.5c-2.1,0-4.3-0.1-6.2,0.7
				C621.6,123.4,616.3,126,609.3,129.2z M584.1,1337.8c-6.6-7.8-17.9-6-22.1,1.3C568.6,1338.7,575.6,1338.3,584.1,1337.8z
				 M792.2,199.5c1,0.8,2,1.6,2.9,2.4c3.5-2.6,7.1-5.1,10.6-7.7c-0.1-1-0.2-1.9-0.3-2.9c-2.4-0.2-5.7-1.5-7-0.4
				C795.8,193.1,794.2,196.6,792.2,199.5z"/>
			<path d="M2562,306c0,378.7,0,757.3,0,1136c-565.3,0-1130.7,0-1696,0c8.2-4.8,16.8-9.2,24.7-14.6c25.9-17.5,51.6-35.3,77.2-53.1
				c22.9-16,45.7-32.1,68.5-48.3c16.5-11.8,32.3-24.5,49.4-35.4c13.6-8.7,29.4-14,43-22.8c27-17.6,53.2-36.5,79.6-55
				c11.7-8.2,23-17.1,34.9-24.9c14.1-9.3,29.3-17,43-26.8c26.8-19.4,54.6-36.9,86.6-46.4c8.1-2.4,12.5-7.4,16.9-14.1
				c6.3-9.6,12.8-20,21.7-26.6c31.6-23.5,64-46.2,96.7-68.1c30-20.1,60.9-39.1,91.5-58.3c19.9-12.6,40.1-24.7,60-37.3
				c4.2-2.6,7.5-6.6,11.8-9c13.7-7.8,27.7-15.1,41.5-22.6c7-3.9,14.1-7.7,20.8-12c12.5-8,25.2-15.7,37-24.7
				c10.3-7.9,18.8-18.2,29.1-26c14.6-10.9,30-20.7,45.3-30.7c35.2-23.1,70.5-45.8,109.8-61.5c3.3-1.3,7.1-1.3,10.7-2.1
				c2.4-0.5,5.5-0.4,7.2-1.9c18.8-15.9,42.7-19.2,64.5-27.5c-10.9-18.1-11.5-14.1,3.6-25.7c9.4-7.3,19.7-13.6,29.6-20.2
				c19.9-13.2,39.8-26.6,59.9-39.5c21-13.4,42.4-26.2,63.4-39.4c28.7-18.1,56.7-37.4,85.9-54.4c39.5-23,77-48.4,110.9-79.3
				c34.1-31,67.5-63.1,106.7-87.8C2518.9,332.3,2540.5,319.3,2562,306z M1690.9,975.9c-11.1-9.8-25-9.6-34,1.6
				C1669.1,976.9,1679,976.5,1690.9,975.9z M1235.9,1242.5c-0.7-1.2-1.4-2.5-2.1-3.7c-12.2,6.7-24.4,13.3-36.6,20
				c0.7,1.3,1.4,2.6,2.1,3.9C1211.5,1256,1223.7,1249.2,1235.9,1242.5z M2263.8,812.8c-0.7,9.9,7.5,16.1,26.2,15.6
				C2280.4,822.8,2271.9,817.7,2263.8,812.8z M1978,740.2c-8.1,4.7-14.5,8.4-20.8,12.1c0.5,0.9,1,1.9,1.5,2.8
				c3.4-1.2,6.8-2.5,12.6-4.6c-4.8,4.4-7.6,7-12.3,11.4C1970.2,759.1,1972.1,756.7,1978,740.2z M2033.7,737.1
				c-16.9-3.6-20.6-2.4-21.9,6.4c3.2-1.3,6.4-2.6,10.2-4.1c0,2.8,0,4.4,0,7.4C2026.2,743.2,2029.4,740.6,2033.7,737.1z
				 M2259.9,801.7c-6.9-7.1-13.8-12.8-22.8-3C2245.3,799.8,2252.6,800.8,2259.9,801.7z M1996.6,743.2c-0.9-0.9-1.7-1.9-2.6-2.8
				c-4,5.4-14,4.8-13.3,16.8C1986.7,752,1991.7,747.6,1996.6,743.2z M2121.4,644.4c-0.1,1.4-0.2,2.9-0.3,4.3c4.7,0,9.4,0,14,0
				c0-1.1,0.1-2.1,0.1-3.2C2130.7,645.1,2126,644.7,2121.4,644.4z"/>
			<path class="st1" d="M2562,306c-21.5,13.3-43.1,26.3-64.5,39.8c-39.3,24.8-72.6,56.8-106.7,87.8c-33.9,30.9-71.4,56.3-110.9,79.3
				c-29.3,17-57.3,36.3-85.9,54.4c-21.1,13.3-42.5,26-63.4,39.4c-20.2,12.9-40,26.2-59.9,39.5c-10,6.6-20.2,12.9-29.6,20.2
				c-15.1,11.7-14.5,7.6-3.6,25.7c-21.8,8.3-45.7,11.6-64.5,27.5c-1.7,1.4-4.7,1.4-7.2,1.9c-3.6,0.7-7.4,0.8-10.7,2.1
				c-39.3,15.6-74.6,38.4-109.8,61.5c-15.3,10-30.7,19.8-45.3,30.7c-10.4,7.8-18.8,18.1-29.1,26c-11.7,9-24.5,16.7-37,24.7
				c-6.7,4.3-13.8,8.1-20.8,12c-13.8,7.6-27.8,14.9-41.5,22.6c-4.3,2.4-7.6,6.4-11.8,9c-19.9,12.5-40.1,24.7-60,37.3
				c-30.6,19.3-61.5,38.2-91.5,58.3c-32.7,22-65.1,44.6-96.7,68.1c-8.9,6.7-15.5,17.1-21.7,26.6c-4.4,6.7-8.8,11.7-16.9,14.1
				c-32,9.5-59.8,26.9-86.6,46.4c-13.6,9.9-28.9,17.6-43,26.8c-11.9,7.9-23.2,16.7-34.9,24.9c-26.4,18.5-52.6,37.4-79.6,55
				c-13.5,8.8-29.3,14.1-43,22.8c-17.1,10.9-32.9,23.6-49.4,35.4c-22.7,16.2-45.5,32.4-68.5,48.3c-25.6,17.9-51.3,35.6-77.2,53.1
				c-7.9,5.3-16.4,9.7-24.7,14.6c-70.7,0-141.3,0-212,0c7.7-7,14.7-14.9,23.1-20.9c17.1-12.4,35-23.7,52.4-35.6
				c3.8-2.6,6.8-6.4,10.8-8.7c2.2-1.3,5.6-0.5,11.1-0.8c4.4-2,11.7-5.1,18.7-8.7c5-2.5,9.3-6.5,14.5-8.4c8-3,10.4-7.4,5.9-14.7
				c22.8-16.1,29-20.4,34.6-11.2c7.6-5.4,15-11,22.6-16.3c25.4-17.6,51.1-34.7,76.1-53c14.7-10.7,27.4-24.1,42.1-34.8
				c15.5-11.3,32.3-20.9,48.5-31.3c16.2-10.4,32.4-20.8,48.5-31.3c20.9-13.5,41.9-26.9,62.6-40.8c22.7-15.3,45-31.1,67.6-46.6
				c3.5-2.4,7.2-5.2,11.2-6.4c20.7-6.1,36.6-19.6,53-32.8c16.7-13.3,35.3-24.3,52.8-36.7c21.3-15.2,42.3-30.8,63.2-46.5
				c17.2-12.9,34-26.4,51-39.6c7-5.4,15-10.8,20.9-16.3c22.6-21.1,50.8-31.8,76.5-47.1c12.8-7.6,24.4-17.3,36.8-25.8
				c5.2-3.6,11.1-6.1,16.3-9.7c12.6-8.8,24.6-18.7,37.6-26.8c10.8-6.8,22.7-12,34.2-17.7c9.5-4.7,19.4-8.9,28.8-13.8
				c2.6-1.3,6-4.9,5.7-7c-1.1-7.8,3.9-9.2,9.2-10.2c11.6-2.2,21.2-7.3,28-17.2c1.1-1.6,2.9-2.7,4.7-3.6c8.3-4.2,16.7-8.1,25.3-12.3
				c-5.3-7.6-3.1-11.8,3-15.4c17.9-10.6,35.6-21.5,53.4-32.3c0,0-0.6,0.4-0.6,0.4c6.5-5.3,13-10.5,21-17c-3.8,0-6,0-8.1,0
				c4.5-1.2,9.1-2,13.4-3.8c3-1.3,5.6-3.8,8.2-6c1.5-1.2,2.7-4.3,3.8-4.2c11.9,0.9,17.5-9.5,26-14.5c4.1-2.4,7-6.9,11.5-11.6
				c-0.3-0.6-1.6-3-3-5.6c7.8-4.2,12.9-1.8,15.6,5.3c3,7.7,7,8.3,13.6,4c35.5-22.8,71.1-45.2,106.7-67.9
				c22.9-14.7,45.8-29.5,68.5-44.5c6.9-4.6,13-10.6,20.2-14.5c16-8.6,33.1-15.5,48.7-24.7c17.4-10.3,33.6-22.6,50.5-33.7
				c13.8-9.1,28.1-17.4,41.6-26.8c15.5-10.8,30.9-21.8,45.3-34c16.5-13.9,31.9-29.1,47.8-43.7c1.9-1.8,4.1-3.8,6.5-4.4
				c21.9-5.6,39.1-19.3,56.7-32.3c2.1-1.6,4.3-3.4,6.7-4.2c12.1-4.2,12.1-4.1,10.6-16.3c0.5-0.4,1.2-1.4,1.4-1.3
				c20.4,9.7,30.6-7.2,43.2-17.1c24-18.9,46.7-39.4,74.6-52.8c8.9-4.3,17.9-8.6,26.8-12.9C2562,220.7,2562,263.3,2562,306z"/>
			<path class="st1" d="M230,1442c-5.3-13.5-8.8-28-16.3-40.2c-8.6-13.9-21-25.4-30.9-38.6c-5.8-7.8-12.4-16.3-14.3-25.3
				c-4.2-19.8-14.4-36.4-23.4-53.8c-1.3-2.5-3.9-4.7-6.5-5.9c-11-5.1-17.6-13.7-22.1-24.6c-5.8-14.1-12-28-18-41.9
				c-0.9-2.1-1.8-4.3-3.2-6.1c-9.7-13-20.8-25.2-29.1-39c-8.1-13.5-13-28.9-19.9-43.1c-7.8-16-14.3-32.8-28-45.4
				c-3.4-3.1-4.3-10.3-4-15.5c0.2-5.5,2.9-11,5.1-16.1c0.7-1.6,3.6-3.2,5.4-3.1c18.6,1,36.9,3.3,49,19.9c5.6,7.8,9.4,16.8,15.2,24.5
				c8.3,11.1,17.4,21.6,26.3,32.1c8.6,10.1,17.7,19.6,26.2,29.8c13.8,16.4,27.7,32.8,40.6,49.9c7.2,9.5,11.8,20.8,18.7,30.5
				c14.7,20.8,28.9,42.2,45.6,61.3c15.4,17.6,34.2,32.3,51,48.7c3.6,3.5,5.7,8.8,8.1,13.5c8.1,15.6,16,31.3,23.9,47
				c6.9,13.8,13.7,27.8,20.6,41.7C310,1442,270,1442,230,1442z"/>
			<path class="st1" d="M606,2c-5.2,3.2-11.2,5.6-15.2,9.9c-3.9,4.2-5.7,10.3-9.7,17.9c-1-4.3-1.3-5.7-2.2-9.7
				c-3.2,5.4-5.2,9.3-7.8,12.8c-4.5,5.9-6,13.8-15.2,16.8c-4.8,1.6-7,10.2-10.9,15.2c-2.3,2.9-5.2,5.6-8.4,7.4
				c-8.2,4.7-10.6,13.6-16.3,20.5c1.7,0.9,3.1,1.7,3.7,2c-7,12.7-21.7,20.2-23.2,37c1.5-1.7,3-3.4,3.8-4.4c0.8,4.2,1.6,8.6,2.4,13
				c0.1,0.6,0,1.6-0.4,1.9c-6.9,5.5-7,11.8-4.9,20c0.6,2.2-7.4,6.6-11.5,9.9c-1.3,1-2.9,1.4-4.4,2c8.3-11.2,8.3-11.2,1.9-27
				c-2.6,8.6-4.6,15.2-6.7,22c1.5,1.8,3.1,3.8,4.8,5.7c-4.2,7.5-8.4,15.1-12.7,22.6c-1.3,2.2-3,5.8-4.7,5.9
				c-11.1,0.9-16.1,7.3-17.9,17.5c-0.3,1.5-2.7,2.5-5,3.1c2.4-24.9,10.1-46.9,30-62.4c0.9-5,0.5-10.7,2.9-14.9
				c17.5-30.8,34.7-61.9,53.7-91.7C542.5,39,556.5,25,568.7,9.9c2-2.5,3.5-5.3,5.3-7.9C584.7,2,595.3,2,606,2z"/>
			<path class="st1" d="M718,2c-2.5,1.7-4.9,3.5-7.6,5.1c-6.2,3.7-12.6,7.3-19.7,9.7c5.7-4.9,11.5-9.8,17.2-14.7
				C711.3,2,714.7,2,718,2z"/>
			<path class="st1" d="M897.1,559.1c-21.2,7.9-37.1,23.5-54.6,36.9c-10.9,8.3-27.3,8.1-39.4-1.1c0.9-1,1.5-2.2,2.5-2.9
				c18.6-12.2,37-24.6,55.8-36.4c6.4-4,8.6-8.4,6.3-15.7c-2.3-7.2-3.9-14.7-5.9-22.3c-33,6.4-66.5,18.6-100.6,0.8
				c50.2-8.8,101.9-11.6,144.3-45.3c0.6,0.9,1.3,1.8,1.9,2.7c-2.4,3-4.7,6.1-7.7,9.9c3.3,0,6.2,0,9,0c0.3,0.6,0.6,1.3,0.9,1.9
				c-9.8,6.8-19.6,13.7-27.2,19c6.7,0,15,0,23.5,0c-1.7,4.6-3.2,8.9-5.1,14c19.8-4.3,26-18.1,22.9-34.7c-0.4-2,0.6-5.4,2.1-6.3
				c2-1.2,5.5-1.4,7.7-0.5c9.8,4.3,19.5,8.9,30.2,3c2.8-1.5,5-4,6.1-4.9c-8.5-11.7-17.2-22-23.9-33.5c-6.8-11.6-11.7-24.4-17.1-36.1
				c2.3-3.7,4.4-7.2,7.5-12.2c3.1,2.9,7.5,5.4,9.8,9.3c11,19.3,22.5,38.4,31.6,58.7c5.3,11.8,6.7,18.2-5.9,29.3
				c-3.5,3.2-8.3,5.9-5.5,12.3c0.5,1.2-0.6,4-1.8,5c-6.5,5.1-13.2,9.8-19.3,14.2c-1.9-0.9-2.7-1-3-1.4c-9.3-14.7-9.3-14.7-24.9-6
				c-18.8,10.4-23.4,17.6-20.5,30.6c0.8,3.8,0.1,7.9,0.1,11.9L897.1,559.1z"/>
			<path class="st1" d="M564.9,430.2c1.9-0.3,3.3-0.8,4.5-0.5c26.5,5.3,51.4-2,74.7-12.3c32.1-14.2,63-31.1,94.1-47.4
				c21.2-11.1,41.9-23.2,63.1-34.3c4.3-2.3,10-1.8,15-3.1c9.9-2.6,19.7-5.5,29.6-8.2c0.6,0.7,1.1,1.5,1.7,2.2
				c-8.2,7.3-16.5,14.6-23.7,21c16.9-5.5,35.5-11.5,54.1-17.5c0.3,1,0.6,1.9,0.9,2.9c-14.6,4.8-29.4,9.1-43.8,14.5
				c-16.4,6.2-33,12.5-48.6,20.4c-35.8,18-70.7,37.9-106.9,55.2c-26.5,12.7-53.7,24.5-84.4,23c-5.1-0.3-10.3,0.9-15.3,0.2
				C571.4,445.1,566.3,439.9,564.9,430.2z"/>
			<path class="st1" d="M572.3,369.3c-3.4-0.4-7-0.1-9.9-1.4c-2.8-1.2-7.1-4.5-6.8-6.1c0.8-4,3.6-10.6,6.1-10.9
				c59.7-5.2,106.4-41.6,158.1-65.8c22.5-10.5,44.5-22.4,66.4-34.1c9.5-5.1,15.3,1,20.8,6.3c4.5,4.3-0.1,7-3.8,8.7
				c-21.3,10.2-42.8,19.8-63.9,30.4c-34.1,17.2-68,35-101.9,52.7C616.9,359.8,595.4,367,572.3,369.3z"/>
			<path class="st1" d="M827.7,287.2c-1.6,4.2-3.2,8.5-5.4,14.3c10.1-3.2,19.1-6,28-8.8c0.4,0.8,0.7,1.5,1.1,2.3
				c-3.1,1.4-6.2,3.3-9.4,4.2c-30,8.2-57.8,21.6-85.3,35.6c-29.7,15.2-58.6,32.1-88.7,46.6c-19.3,9.3-40,15.9-60.2,23.3
				c-13.7,5-26.8,1.4-39.7-3.9c-2.4-1-5.5-0.4-8.9-0.6c0-1.7,0-4.5,0-7.9c6.5-0.6,12.7-1.6,18.8-1.6c26.9,0.3,50.7-9.9,73.8-21.8
				c40.2-20.5,80-42,120.4-62.2c17.3-8.6,35.7-14.9,53.6-22.3C826.6,285.4,827.2,286.3,827.7,287.2z"/>
			<path class="st1" d="M658.2,461c5.8-3.5,11.5-7.2,17.5-10.4c25.8-13.7,51.7-27.1,77.4-40.9c36.3-19.6,73.9-36.2,113.9-46.7
				c1.2-0.3,2.5-0.3,4.2,0.8c-7.5,2.6-15.2,4.7-22.5,7.8c-10.1,4.2-20.1,8.7-29.7,13.9c-7.8,4.2-8.2,9.8-1.3,16.6
				c-16,7.8-31.8,15.3-47.4,23.2c-34.5,17.3-68.6,35.1-103.3,52c-13.5,6.6-28,11.2-43.3,10.8c-0.2-1-0.4-2-0.5-2.9
				c5.4-0.6,10.7-1.2,16.1-1.8c0,0,0.3-0.1,0.7-0.2c8.9-5.2,24.5-2.4,22.4-20.1c-0.9-0.4-2.6-1.3-4.4-2.2L658.2,461z"/>
			<path class="st1" d="M656.5,972c-2,0.8-4,2.1-6,2.2c-3,0.1-6-0.7-10.2-1.3c-0.1-0.7-0.6-3.4-1.3-7.3c-8,6.7-15.3,12.9-22.7,19.1
				c-0.9-0.6-1.7-1.3-2.6-1.9c2.3-5.4-6.4-15.7,8.9-15.4c0.5,0,1.1-3.7,1.7-5.6c-0.8-0.8-1.6-1.5-2.4-2.3c-5,3.4-10,6.8-17.8,12.1
				c0.9-5.1,0.2-9.7,2.2-11.9c8.1-9,17-17.3,25.7-25.9c2.6-2.5,5.8-4.6,7.8-7.5c7.2-10,10.5-10.6,21.2-4.3c7.9,4.7,16.1,8.7,25,13.5
				c-2,1.5-3.7,2.7-5.1,3.8c2,4.5,4,9,7.1,16c-13.8-7.6-24.7-7.3-31.2,8.7c-3.2-5-4.8-7.5-7.8-12.1
				C649.6,961.2,648.6,968.3,656.5,972C656.6,972,656.5,972,656.5,972z"/>
			<path class="st1" d="M847.3,559.6c-16.2,10.1-31.7,20.1-47.6,29.4c-6.5,3.8-20.3-0.9-24.8-7c-0.5-0.7-1.6-1.2-2.4-1.5
				c-8.8-3.6-17.6-7.2-26.4-10.8c0.3-0.9,0.6-1.9,1-2.8c1.2-0.1,2.5-0.6,3.5-0.3c19.7,6.4,37.3-1.3,54.9-8.3
				c6.8-2.7,13.3-6.4,20-9.3C836.7,544,841.9,551.6,847.3,559.6z"/>
			<path class="st1" d="M1001.8,454c13.8,3.4,17.1,14.8,21.9,24.8c0.3,0.7-0.3,2.1-0.8,3c-8.7,16.3-5.5,29.2,9.9,40.3
				c9.7,7,9.6,10.2,0.3,17.9c-3.1,2.6-5.3,6.4-7.7,9.4c-1.7-4.3-3.2-9-5.4-13.4c-5.9-11.6-8.3-23.7-6.5-36.7
				c1.9-13.6,0.1-26.5-8.2-38C1003.8,459.5,1003.1,456.9,1001.8,454z"/>
			<path class="st1" d="M639.9,483.2c-0.5,0.1-0.7,0.1-0.7,0.2c-2.3-5.7-5.2-7.4-11-3.4c-5.4,3.7-11.8,8.7-17.7,8.5
				c-7.1-0.3-14.4-4.8-21-8.6c-3-1.7-4.5-6-7.3-10c5.1,0,9.6-0.5,14.1,0.1c21.5,2.8,41.3-5.3,61.8-8.9c0,0-0.2-0.2-0.2-0.2
				c-1.7,1.8-3,4.3-5.1,5.4C645.7,469.8,639.5,473.9,639.9,483.2z"/>
			<path class="st1" d="M747.7,259.5c-3.3-3.1-6.3-6-10.4-9.9c4.2-1.5,6.2-2.2,9.2-3.3c-1.7-1.3-2.9-2.2-4.1-3.1
				c12.5-15.1,12.5-15.1,44.3,3.7c-14.8,6.7-28.4,12.9-42.1,19c-0.4-0.7-0.9-1.5-1.3-2.2C745.1,262,746.8,260.4,747.7,259.5z"/>
			<path class="st1" d="M585.5,1043c5.3,1.7,10.6,3.3,16.4,5.1c0-1.6,0-5.2,0-8.7c0.6-0.2,1.2-0.3,1.8-0.5c1.8,3.7,3.6,7.4,5.8,11.7
				c-1.5,0.8-3.1,1.8-4.7,2.7c1.2,0.9,2.4,1.8,3.5,2.7c-0.6,1-1.1,1.9-1.7,2.9c-5.2-2.8-10.4-5.6-16-8.6c-1.3,2.3-3.3,5.5-5.5,9.2
				c7.3,3.9,9.8,8.2,1.7,14c-1.4,1-1,4.6-1.6,6.9c-2,7.3-4,14.6-6.3,21.8c-0.1,0.3-2.8-0.2-4.3-0.3c3.5-19.9,6.9-39.1,10.3-58.4
				C584.9,1043.6,585.5,1043,585.5,1043z"/>
			<path class="st1" d="M735.3,77.3c9.4-1.3,18.8-2.7,29.1-4.1c-0.9,1.6-1.5,2.7-2.1,3.8c0,0,0,0,0,0c-4.5,3.1-9,6.1-14.1,9.6
				c3.5,1,6,1.7,11.7,3.4c-7.3,3.3-11.8,6.3-16.7,7.2c-2.8,0.5-6.3-2.3-9.5-3.7c0,0,0.3,0.3,0.3,0.3c3.4-3.6,6.9-7.2,10.3-10.8
				c-0.3-0.7-0.7-1.3-1-2c-6.5,3.8-13,7.6-19.4,11.4c-0.3-0.2-0.5-0.5-0.8-0.7c3-3.5,5.9-7,9.3-10.9c-2.3-0.2-4.6-0.4-6.8-0.5
				c0-0.9,0-1.8,0-2.7c3.3,0,6.7,0,10,0C735.5,77.4,735.3,77.3,735.3,77.3z"/>
			<path class="st1" d="M639,149.4c2.1-3.9,4.2-7.8,6.4-12c-3.6-1.6-6.4-2.9-9.3-4.2c0.5-1.1,1.1-2.1,1.6-3.2
				c4.1,2.4,7.9,5.9,12.3,6.9c5.5,1.3,11.5,1.3,17.1,0.5c13.2-1.9,26.3-4.7,39.8-5.4c-10,10.1-25,1.4-33.5,7.1
				c-11.1,7.4-24.9,1.1-33.3,13C639.7,151.2,639.4,150.3,639,149.4z"/>
			<path class="st1" d="M585.5,1043c0,0-0.6,0.6-0.6,0.6c-9.9-2.6-2.6-8.3-3.2-14c2.9,1.7,4.5,2.7,6.2,3.6
				c-5.6-11.8-0.7-21.2,4.5-31.6c10.6,15.4,8.9,25-5.1,36C586.1,1038.6,586.1,1041.2,585.5,1043z"/>
			<path class="st1" d="M896.8,559.3c4.8-1.1,9.7-2.3,14.5-3.4c0.2,0.4,0.5,0.8,0.7,1.2c-2.6,1.9-5.2,3.8-7.8,5.7
				c0.9,0.5,1.8,0.9,2.7,1.4c-2.1,4.9-4.1,9.8-5.9,14.2c-4.6-2.6-8.6-6.6-12.3-6.4c-4.3,0.2-8.4,4.1-13.4,5.3
				c7.3-6.1,14.5-12.1,21.8-18.2C897.1,559.1,896.8,559.3,896.8,559.3z"/>
			<path class="st1" d="M740.2,564.9c-10.5-6.2-18.9-11.2-28.3-16.7c4.4-2.9,7.7-5.2,11.5-7.7C732.4,545,739.1,551.1,740.2,564.9z"
				/>
			<path class="st1" d="M846.5,391.9c25.7-11.7,51.6-23,83-20.5c-16.1,3.2-30,5.4-43.6,8.8C872.6,383.5,859.6,387.9,846.5,391.9z"/>
			<path class="st1" d="M764.1,145.9c-7.1,3.7-14.3,7.3-21.2,11.3c-1,0.6-1.7,3.1-1.3,4.3c3.2,9.8-3.3,8.4-9.4,7.2
				c2.3-1,4.6-2.1,8.4-3.8c-4.6-2.5-8-4.3-11.5-6.2c9.3-5.3,18.3-10.8,27.8-15.5c1.5-0.8,4.7,1.9,7.1,3L764.1,145.9z"/>
			<path class="st1" d="M628.3,1000.8c2.1-3.8,3.2-5.8,4.3-7.8c-0.7-0.6-1.4-1.3-2.1-1.9c-2.5,3.5-5.1,7-8.7,11.9
				c-6.1-22.5,11.5-12.6,17-16c3.6,5.6,7,11,10.4,16.4c-0.9,0.8-1.9,1.6-2.8,2.3c-3.3-3.5-6.7-6.9-10.7-11.1
				C634.6,995.8,632.3,997.6,628.3,1000.8z"/>
			<path class="st1" d="M793.9,81.9c-0.1,1,0.2,2.6-0.2,2.9c-5.4,2.7-16-2.9-16.9-7.8c-5,0-9.7,0-14.3,0c0,0,0,0,0,0
				c2.5-2.1,5.1-4.1,7.6-6.2c-0.4-1.1-0.9-2.2-1.3-3.3c7,1.5,14.1,3,24.1,5.1c-4.9,3.3-7.6,5-11.7,7.8c5.1,0.7,9.1,1.3,13.1,1.9
				L793.9,81.9z"/>
			<path class="st1" d="M547.6,143.4c-5,9.3-12,12.3-22.8,10.1c-4.8-0.9-10.6,3.5-16.8,4.1c7.1-4.2,14.3-11.9,21.1-11.6
				c6.9,0.4,12.5-1.4,18.7-2.4L547.6,143.4z"/>
			<path class="st1" d="M753.3,68.7c8.8-16.1,24-8.4,36.4-10.5c0.5-0.1,1.9,1.8,1.9,2.7c0,1-1.2,2.8-2,2.8
				c-5.8,0.2-11.7-0.5-17.4,0.3C765.9,64.9,759.8,67.1,753.3,68.7z"/>
			<path class="st1" d="M715,156.5c-0.3-6.1,12.7-4.9,4.2-13.1c0.3-0.9,0.6-1.7,0.9-2.6c7.4,0.7,14.8,1.4,22.2,2
				c0.1,1,0.2,2.1,0.3,3.1C733.5,149.4,724.5,152.9,715,156.5z"/>
			<path class="st1" d="M547.7,143.7c2.6-1.3,5.3-2.4,7.7-3.9c2.2-1.3,4.1-3,6.4-4.6c-2.8-1.7-5.3-3.3-10.5-6.5
				c6.6-1.7,10.7-2.7,15.4-3.9c-2,16.8-10.7,24.7-19.2,18.8C547.6,143.4,547.7,143.7,547.7,143.7z"/>
			<path class="st1" d="M792.9,287.7c-13.2,6.6-26.5,13.3-39.7,19.9c-0.6-1.1-1.2-2.2-1.8-3.3c13.2-6.7,26.3-13.4,39.5-20.1
				C791.6,285.4,792.2,286.5,792.9,287.7z"/>
			<path class="st1" d="M634.4,137.7c-6.5,3.4-12.6,6.5-18.8,9.7c-2.6-9-7.5-0.3-11.7-0.1C608.7,138.6,624.3,133.5,634.4,137.7z"/>
			<path d="M485.8,175c-1.6-2-3.3-3.9-4.8-5.7c2.1-6.8,4.1-13.4,6.7-22c6.4,15.8,6.4,15.8-1.9,27C485.8,174.4,485.7,174.6,485.8,175
				z"/>
			<path class="st1" d="M575.6,1108.5c8.3,12.1-9.2,13.1-9.4,21.6c-1.1-0.4-2.1-0.9-3.2-1.3c2.9-7.2,5.8-14.4,8.7-21.7
				C573,1107.5,574.3,1108,575.6,1108.5z"/>
			<path class="st1" d="M1052.7,536.4c-3.1,6.4-6.2,12.7-9.7,19.9C1038.3,546,1040.4,541,1052.7,536.4z"/>
			<path d="M1817.1,645.4c2.1,0,4.3,0,8.1,0c-7.9,6.4-14.4,11.7-21,17c0.3-2.8,0.6-5.6,0.8-8.4c-0.1-1.9-0.2-3.7-0.3-4.7
				C1809.4,647.7,1813.2,646.5,1817.1,645.4z"/>
			<path class="st1" d="M528.3,1383.6c9.1-1.6,18.3-3.1,27.4-4.7c-6.8,9.1-17.9,5.3-26.4,9.5C529,1386.8,528.6,1385.2,528.3,1383.6z
				"/>
			<path class="st1" d="M735.5,77.4c-2.7-5.9-7-4.6-11.6-2.6c-2.9,1.3-5.8,2.5-9.3,2.1c8.2-1.7,12.4-17.2,24.4-7.3
				c-1.3,2.7-2.5,5.2-3.7,7.7C735.3,77.3,735.5,77.4,735.5,77.4z"/>
			<path class="st1" d="M928.1,1189.3c-4.9,7.5-9,13.6-13.1,19.8c-0.9-0.6-1.8-1.3-2.7-1.9C915.2,1199.9,915.2,1190.6,928.1,1189.3z
				"/>
			<path class="st1" d="M1508,54.2c5.3,7.4,9.5,13.2,13.6,19c-0.4,0.4-0.8,0.8-1.2,1.2c-4.7-4.6-9.3-9.1-15.2-14.9
				c0.2-0.1-2.1,0.9-4.3,1.8c-0.3-0.4-0.6-0.8-0.9-1.2C1502.8,58,1505.5,56,1508,54.2z"/>
			<path class="st1" d="M609.3,129.2c7-3.2,12.3-5.8,17.7-8.1c1.9-0.8,4.1-0.7,6.2-0.7c0.3,0,1.2,2.3,0.9,2.5
				c-1.6,1.3-3.3,2.6-5.2,3.4c-3.2,1.4-6.6,2.8-10,3.3C616.1,130.1,613,129.4,609.3,129.2z"/>
			<path class="st1" d="M1805.1,653.9c-0.3,2.8-0.6,5.6-0.8,8.4c0,0,0.6-0.4,0.6-0.4c-5.6,1.5-11.2,3.1-17.9,5
				C1789.5,657.4,1799.3,658.1,1805.1,653.9z"/>
			<path class="st1" d="M584.1,1337.8c-8.4,0.5-15.5,0.9-22.1,1.3C566.1,1331.8,577.5,1330,584.1,1337.8z"/>
			<path class="st1" d="M794.1,82.2c3-7.3,14.8-14.2,24.8-12c-9.9,4.6-17.5,8.2-25,11.7C793.9,81.9,794.1,82.2,794.1,82.2z"/>
			<path class="st1" d="M733.7,93.5c-1.3,2.2-2.3,4.7-4.1,6.4c-3.9,3.9-8,7.5-12.3,10.9c-0.7,0.6-2.8-0.5-7.6-1.7
				c9.7-6.1,17-10.8,24.2-15.4C734,93.8,733.7,93.5,733.7,93.5z"/>
			<path class="st1" d="M763.9,146.1c3.5,1.2,7,2.4,12.4,4.3c-8.6,4.2-15.1,7.4-21.5,10.6c-0.5-0.9-1-1.7-1.5-2.6
				c4.2-2.7,8.4-5.4,12.7-8.1c-0.5-1.1-1.2-2.8-1.9-4.4C764.1,145.9,763.9,146.1,763.9,146.1z"/>
			<path class="st1" d="M656.6,972c3.1-3.2,6.1-6.4,10.4-10.9c0.8,1.2,4.5,5.6,3.9,6.2C667.2,971.4,663.2,976.3,656.6,972
				C656.5,972,656.6,972,656.6,972z"/>
			<path class="st1" d="M792.2,199.5c2-2.9,3.6-6.4,6.3-8.6c1.3-1.1,4.6,0.2,7,0.4c0.1,1,0.2,1.9,0.3,2.9c-3.5,2.6-7.1,5.1-10.6,7.7
				C794.2,201.1,793.2,200.3,792.2,199.5z"/>
			<path class="st1" d="M1690.9,975.9c-11.9,0.5-21.7,1-34,1.6C1665.9,966.4,1679.8,966.1,1690.9,975.9z"/>
			<path class="st1" d="M1235.9,1242.5c-12.2,6.7-24.4,13.5-36.6,20.2c-0.7-1.3-1.4-2.6-2.1-3.9c12.2-6.7,24.4-13.3,36.6-20
				C1234.5,1240,1235.2,1241.3,1235.9,1242.5z"/>
			<path class="st1" d="M2263.8,812.8c8.1,4.9,16.6,9.9,26.2,15.6C2271.3,829,2263.1,822.8,2263.8,812.8z"/>
			<path class="st1" d="M1978,740.2c-5.9,16.5-7.8,18.9-19,21.7c4.7-4.3,7.5-7,12.3-11.4c-5.8,2.1-9.2,3.3-12.6,4.6
				c-0.5-0.9-1-1.9-1.5-2.8C1963.5,748.6,1969.9,744.9,1978,740.2z"/>
			<path class="st1" d="M2033.7,737.1c-4.3,3.5-7.5,6.2-11.6,9.6c0-2.9,0-4.6,0-7.4c-3.8,1.6-7,2.8-10.2,4.1
				C2013.1,734.6,2016.8,733.5,2033.7,737.1z"/>
			<path class="st1" d="M2259.9,801.7c-7.3-1-14.6-1.9-22.8-3C2246.1,788.9,2253,794.6,2259.9,801.7z"/>
			<path class="st1" d="M1996.6,743.2c-5,4.4-9.9,8.8-15.8,14c-0.7-12,9.3-11.4,13.3-16.8C1994.9,741.3,1995.8,742.3,1996.6,743.2z"
				/>
			<path class="st1" d="M2121.4,644.4c4.6,0.4,9.3,0.8,13.9,1.1c0,1.1-0.1,2.1-0.1,3.2c-4.7,0-9.4,0-14,0
				C2121.2,647.2,2121.3,645.8,2121.4,644.4z"/>
			<path d="M639.9,483.2c-0.4-9.3,5.8-13.3,12.9-16.9c2.1-1,3.4-3.5,5.1-5.4c1.7,0.9,3.5,1.8,4.4,2.2
				C664.3,480.8,648.8,478,639.9,483.2z"/>
		</g>
	</g>
</g>
</svg>
